<svg width="24" height="24" overflow="visible" style="display: block;" viewBox="0 0 24 24" fill="none" xmlns="http://www.w3.org/2000/svg">
<g id="file-heart-02">
<path id="Icon" d="M20 12.5V6.8C20 5.11984 20 4.27976 19.673 3.63803C19.3854 3.07354 18.9265 2.6146 18.362 2.32698C17.7202 2 16.8802 2 15.2 2H8.8C7.11984 2 6.27976 2 5.63803 2.32698C5.07354 2.6146 4.6146 3.07354 4.32698 3.63803C4 4.27976 4 5.11984 4 6.8V17.2C4 18.8802 4 19.7202 4.32698 20.362C4.6146 20.9265 5.07354 21.3854 5.63803 21.673C6.27976 22 7.11984 22 8.8 22H13M12.5 13H8M9 17H8" stroke="currentColor" stroke-width="2" stroke-linecap="round" stroke-linejoin="round"/>
<g id="Group 296">
<path id="Vector 12" d="M19 16V22" stroke="currentColor" stroke-width="2" stroke-linecap="round"/>
<path id="Vector 13" d="M22 19H16" stroke="currentColor" stroke-width="2" stroke-linecap="round"/>
</g>
<g id="OPD">
<path id="Vector" d="M15.4943 9H14.0951V5.36364H15.4801C15.8541 5.36364 16.1773 5.43643 16.4495 5.58203C16.723 5.72644 16.9337 5.93478 17.0816 6.20703C17.2308 6.4781 17.3053 6.80303 17.3053 7.18182C17.3053 7.56061 17.2314 7.88613 17.0834 8.15838C16.9354 8.42945 16.7259 8.63778 16.4548 8.78338C16.1838 8.92779 15.8636 9 15.4943 9ZM15.0823 8.16193H15.4588C15.6387 8.16193 15.792 8.13293 15.9186 8.07493C16.0465 8.01693 16.1435 7.9169 16.2098 7.77486C16.2773 7.63281 16.311 7.43513 16.311 7.18182C16.311 6.9285 16.2767 6.73082 16.208 6.58878C16.1406 6.44673 16.0411 6.34671 15.9097 6.28871C15.7795 6.23071 15.6197 6.2017 15.4303 6.2017H15.0823V8.16193Z" fill="currentColor"/>
<path id="Vector_2" d="M10.8139 9V5.36364H12.3835C12.6534 5.36364 12.8895 5.4169 13.0919 5.52344C13.2943 5.62997 13.4518 5.77971 13.5642 5.97266C13.6767 6.1656 13.7329 6.3911 13.7329 6.64915C13.7329 6.90956 13.6749 7.13506 13.5589 7.32564C13.4441 7.51622 13.2825 7.663 13.0742 7.76598C12.867 7.86896 12.6249 7.92045 12.348 7.92045H11.4105V7.15341H12.1491C12.2651 7.15341 12.3639 7.13329 12.4456 7.09304C12.5285 7.05161 12.5918 6.99302 12.6356 6.91726C12.6806 6.8415 12.7031 6.75213 12.7031 6.64915C12.7031 6.54498 12.6806 6.4562 12.6356 6.38281C12.5918 6.30824 12.5285 6.25142 12.4456 6.21236C12.3639 6.17211 12.2651 6.15199 12.1491 6.15199H11.8011V9H10.8139Z" fill="currentColor"/>
<path id="Vector_3" d="M10.3571 7.18182C10.3571 7.58665 10.2784 7.92815 10.121 8.20632C9.96352 8.48331 9.75104 8.69342 9.48352 8.83665C9.216 8.97869 8.91771 9.04972 8.58864 9.04972C8.2572 9.04972 7.95772 8.9781 7.6902 8.83487C7.42386 8.69046 7.21198 8.47976 7.05455 8.20277C6.8983 7.9246 6.82017 7.58428 6.82017 7.18182C6.82017 6.77699 6.8983 6.43608 7.05455 6.15909C7.21198 5.88092 7.42386 5.67081 7.6902 5.52876C7.95772 5.38553 8.2572 5.31392 8.58864 5.31392C8.91771 5.31392 9.216 5.38553 9.48352 5.52876C9.75104 5.67081 9.96352 5.88092 10.121 6.15909C10.2784 6.43608 10.3571 6.77699 10.3571 7.18182ZM9.34148 7.18182C9.34148 6.96401 9.31248 6.78054 9.25447 6.63139C9.19766 6.48106 9.11302 6.36742 9.00057 6.29048C8.8893 6.21236 8.75199 6.1733 8.58864 6.1733C8.42528 6.1733 8.28738 6.21236 8.17493 6.29048C8.06366 6.36742 7.97902 6.48106 7.92102 6.63139C7.8642 6.78054 7.8358 6.96401 7.8358 7.18182C7.8358 7.39962 7.8642 7.58369 7.92102 7.73402C7.97902 7.88317 8.06366 7.9968 8.17493 8.07493C8.28738 8.15187 8.42528 8.19034 8.58864 8.19034C8.75199 8.19034 8.8893 8.15187 9.00057 8.07493C9.11302 7.9968 9.19766 7.88317 9.25447 7.73402C9.31248 7.58369 9.34148 7.39962 9.34148 7.18182Z" fill="currentColor"/>
</g>
</g>
</svg>
