<svg width="24" height="24" overflow="visible" style="display: block;" viewBox="0 0 24 24" fill="none" xmlns="http://www.w3.org/2000/svg">
<g id="Healthcare Call">
<path id="Vector" d="M19 18.0525C19 19.2166 17.9634 20.2646 16.9429 20.6822C14.589 21.6616 11.9019 20.1888 10.0191 18.8199C8.16051 17.4642 6.51594 15.8273 5.1604 13.9681C3.8019 12.0822 2.35819 9.44576 3.30338 7.08617C3.71101 6.05159 4.70981 5 5.8888 5C7.60691 5 10.2347 8.90102 8.74637 10.3873C8.35266 10.7959 7.89471 11.0731 8.09801 11.6821C8.5667 12.5402 9.32417 13.2772 10.0031 13.9681C10.7016 14.6528 11.4342 15.4163 12.3083 15.8784C12.9023 16.1157 13.2004 15.622 13.589 15.239C14.9266 13.9033 19 16.1738 19 18.0525Z" stroke="currentColor" stroke-width="2" stroke-miterlimit="10"/>
<g id="Group">
<path id="Vector_2" d="M13 6C13 3.23858 15.2386 1 18 1C20.7614 1 23 3.23858 23 6C23 8.76142 20.7614 11 18 11H13.4762C13.2132 11 13 10.7868 13 10.5238V6Z" stroke="currentColor" stroke-width="2"/>
<path id="Vector_3" d="M18 4V8M16 6L20 6" stroke="currentColor" stroke-width="2" stroke-linecap="round"/>
</g>
<g id="Vector_4">
</g>
</g>
</svg>
