<svg width="24" height="24" overflow="visible" style="display: block;" viewBox="0 0 24 24" fill="none" xmlns="http://www.w3.org/2000/svg">
<g id="heart-hand">
<path id="Icon" d="M6.8 20.2997H9.27978C9.6031 20.2997 9.92444 20.3357 10.2379 20.4077L12.858 21.0034C13.4266 21.133 14.0188 21.1456 14.5933 21.0412L17.4903 20.5139C18.2556 20.3744 18.9596 20.0315 19.5113 19.5293L21.561 17.6637C22.1463 17.1319 22.1463 16.2688 21.561 15.7361C21.034 15.2564 20.1995 15.2024 19.6033 15.6092L17.2145 17.2399C16.8724 17.4739 16.4561 17.5999 16.028 17.5999H13.7212L15.1895 17.5998C16.0171 17.5998 16.6875 16.9896 16.6875 16.2364V15.9637C16.6875 15.3382 16.2198 14.7929 15.5534 14.6417L13.2872 14.126C12.9184 14.0423 12.5407 14 12.161 14C11.2444 14 9.5853 14.7101 9.5853 14.7101L6.8 15.7999M3 15.4222L3 20.5778C3 21.0756 3 21.3245 3.10354 21.5147C3.19462 21.6819 3.33995 21.8179 3.51871 21.9031C3.72192 22 3.98795 22 4.52 22H5.28C5.81205 22 6.07807 22 6.28129 21.9031C6.46005 21.8179 6.60538 21.6819 6.69646 21.5147C6.8 21.3245 6.8 21.0756 6.8 20.5778V15.4222C6.8 14.9244 6.8 14.6755 6.69646 14.4853C6.60538 14.3181 6.46005 14.1821 6.28129 14.0969C6.07808 14 5.81205 14 5.28 14H4.52C3.98795 14 3.72193 14 3.51871 14.0969C3.33996 14.1821 3.19462 14.3181 3.10354 14.4853C3 14.6755 3 14.9244 3 15.4222Z" stroke="currentColor" stroke-width="2" stroke-linecap="round" stroke-linejoin="round"/>
<path id="&#224;&#184;&#191;" d="M11.9063 12V1H12.6329V12H11.9063ZM9 10.9V2.1H12.6329C13.3004 2.1 13.8572 2.19596 14.3032 2.38789C14.7492 2.57982 15.0844 2.84622 15.3089 3.18711C15.5333 3.52513 15.6456 3.91471 15.6456 4.35586C15.6456 4.69961 15.5747 5.00182 15.4329 5.2625C15.2911 5.52031 15.0962 5.73229 14.8481 5.89844C14.603 6.06172 14.3224 6.17773 14.0063 6.24648V6.33242C14.3519 6.34674 14.6753 6.44128 14.9766 6.61602C15.2808 6.79076 15.5274 7.03568 15.7165 7.35078C15.9055 7.66302 16 8.03542 16 8.46797C16 8.9349 15.8804 9.35169 15.6411 9.71836C15.4049 10.0822 15.0549 10.3701 14.5911 10.582C14.1274 10.794 13.5559 10.9 12.8766 10.9H9ZM10.9184 9.37891H12.4823C13.0169 9.37891 13.4068 9.28008 13.6519 9.08242C13.897 8.8819 14.0196 8.61549 14.0196 8.2832C14.0196 8.03971 13.9591 7.82487 13.838 7.63867C13.7169 7.45247 13.5441 7.30638 13.3196 7.20039C13.0981 7.0944 12.8338 7.04141 12.5266 7.04141H10.9184V9.37891ZM10.9184 5.78242H12.3405C12.6034 5.78242 12.8367 5.73802 13.0405 5.64922C13.2473 5.55755 13.4097 5.42865 13.5278 5.2625C13.6489 5.09635 13.7095 4.89727 13.7095 4.66524C13.7095 4.34727 13.5928 4.09089 13.3595 3.89609C13.1291 3.7013 12.8013 3.60391 12.3759 3.60391H10.9184V5.78242Z" fill="currentColor"/>
</g>
</svg>
