<svg preserveAspectRatio="none" width="100%" height="100%" overflow="visible" style="display: block;" viewBox="0 0 370.286 1000" fill="none" xmlns="http://www.w3.org/2000/svg">
<g id="front-region-of-body">
<path id="abdomen" d="M179.136 303.177C180.727 307.877 181.359 309.841 183.86 314.11C197.344 329.577 217.59 328.654 234.812 332.265C250.889 335.636 284.81 346.251 295.387 359.08C290.585 371.55 287.341 383.659 287.995 397.22C288.287 403.233 289.477 409.826 289.883 415.929C290.191 420.546 289.574 428.528 291.007 432.598L291.559 435.523L291.159 435.792C288.731 437.463 283.356 442.188 281.674 443.061C272.13 448.008 245.99 458.84 236.251 460.481C237.246 467.402 238.171 474.332 239.03 481.269C237.819 481.778 237.505 481.908 236.397 482.6C224.203 489.775 214.507 496.643 207.148 509.129L208.305 510.097C205.017 516.553 201.281 526.811 200.987 534.117L198.819 534.441C195.125 534.29 193.519 534.306 189.921 533.425C172.604 527.195 169.69 505.901 160.414 491.949C154.769 483.46 149.172 472.928 144.398 463.872L143.09 464.498C141.08 460.092 139.019 455.71 136.906 451.353L137.23 447.952C137.933 443.024 138.185 437.49 138.524 432.481C138.532 430.808 138.84 428.506 139.011 426.795C138.56 419.794 137.183 413.093 138.1 406.017C139.546 394.866 143.407 385.638 143.682 374.278C143.982 361.946 140.575 352.278 139.173 340.335C138.061 330.862 140.101 319.979 141.296 310.527C148.774 313.387 162.394 316.461 169.816 312.511L171.026 312.152C175.314 308.863 176.696 308.119 179.136 303.177Z" fill="url(#paint0_linear_0_268)"/>
<path id="left-side-abdomen" d="M138.527 432.481C139.84 433.604 141.137 434.577 141.17 436.449C141.229 439.711 140.474 446.48 137.232 447.951C137.935 443.023 138.188 437.49 138.527 432.481Z" fill="var(--fill-0, #F0F0F0)"/>
<path id="left-side-abdomen_2" d="M233.045 459.723L235.532 459.046L236.257 460.481C237.252 467.402 238.177 474.332 239.036 481.269C237.825 481.778 237.512 481.907 236.403 482.6C236.1 478.769 234.559 464.056 233.056 461.284C233.532 461.03 233.207 461.236 233.861 460.453L233.045 459.723Z" fill="var(--fill-0, #F0F0F0)"/>
<path id="navel" d="M207.157 509.129L208.314 510.097C205.026 516.553 201.29 526.811 200.996 534.117L198.828 534.441C202.502 524.454 200.695 520.961 207.157 509.129Z" fill="var(--fill-0, #F0F0F0)"/>
<path id="left-chest" d="M291.014 432.597L291.566 435.523L291.166 435.792C288.738 437.462 283.363 442.188 281.681 443.061C272.137 448.008 245.997 458.84 236.258 460.481L235.533 459.046C253.978 453.615 277.609 446.849 291.014 432.597Z" fill="var(--fill-0, #F0F0F0)"/>
<path id="sternum" d="M179.14 303.177C180.73 307.877 181.362 309.841 183.863 314.11C179.573 313.539 175.294 312.886 171.029 312.152C175.317 308.863 176.699 308.119 179.14 303.177Z" fill="var(--fill-0, #F0F0F0)"/>
<path id="left-flank" d="M291.28 436.322C292.907 441.709 294.366 445.125 296.618 450.355L296.632 450.383C297.459 452.018 298.376 453.644 298.906 455.279L298.918 455.317L298.936 455.352C301.6 460.582 304.554 468.618 305.826 474.358L305.832 474.385L305.841 474.411C306.951 477.667 307.629 481.054 307.848 484.486L307.851 484.526L307.859 484.564C310.728 497.295 309.596 510.467 307.552 523.685C305.512 536.871 302.553 550.15 301.835 562.943V562.944C301.478 569.367 300.975 575.941 300.505 582.367C299.624 593.611 298.452 604.829 296.987 616.013V616.015C295.632 626.677 293.155 638.559 291.076 650.41C289.065 661.87 287.429 673.288 287.576 683.437L287.596 684.416L287.576 686.487C269.959 697.999 246.275 703.37 226.875 693.608L226.54 693.44L226.352 693.641L225.177 689.767L225.169 689.743L225.159 689.719L224.82 688.894C221.348 680.271 218.895 668.833 216.979 657.176C215.002 645.142 213.608 632.942 212.248 623.395V623.394C210.101 608.361 208.214 592.324 206.621 576.931L205.956 570.379C205.491 565.683 205.353 560.494 205.231 555.257C205.125 550.68 205.03 546.065 204.737 541.736L204.6 539.899L204.547 539.39C204.405 538.233 204.123 537.273 203.649 536.406C203.144 535.481 202.435 534.694 201.503 533.897C201.864 526.712 205.515 516.684 208.754 510.324L208.935 509.969L208.629 509.714L207.8 509.02C215.067 496.876 224.602 490.124 236.654 483.031L236.665 483.024C237.742 482.352 238.029 482.233 239.228 481.73L239.576 481.584L239.53 481.208C238.69 474.427 237.786 467.653 236.816 460.887C241.836 459.944 250.566 456.894 259.223 453.476C268.175 449.942 277.113 445.99 281.907 443.506V443.505C282.371 443.264 283.055 442.779 283.83 442.19C284.615 441.593 285.525 440.865 286.454 440.115C288.239 438.675 290.079 437.17 291.28 436.322Z" fill="var(--fill-0, #F0F0F0)" stroke="var(--stroke-0, #CCCCCC)"/>
<path id="Vector" d="M139.273 429.04C146.5 448.46 160.945 457.96 177.869 461.783C195.356 465.733 215.505 463.631 233.134 460.214L233.152 460.211L233.17 460.206L235.264 459.635L235.767 460.631C236.739 467.398 237.643 474.174 238.486 480.957C237.535 481.358 237.155 481.537 236.132 482.176C223.922 489.362 214.14 496.282 206.717 508.875L206.502 509.24L206.827 509.513L207.68 510.226C204.484 516.603 200.919 526.441 200.509 533.683L198.79 533.939C195.137 533.79 193.576 533.803 190.069 532.946C181.604 529.893 176.627 523.157 172.597 515.354C170.578 511.445 168.813 507.303 166.958 503.232C165.108 499.173 163.173 495.196 160.83 491.673C155.202 483.208 149.616 472.699 144.84 463.64L144.616 463.214L144.182 463.422L143.331 463.827C141.406 459.616 139.436 455.427 137.417 451.261L137.728 447.999C138.431 443.053 138.686 437.5 139.023 432.516L139.024 432.5V432.483C139.029 431.479 139.145 430.245 139.273 429.04ZM291.278 436.321C292.892 441.667 294.341 445.071 296.563 450.232C296.043 455.015 293.32 458.839 289.189 462.017C285.015 465.228 279.44 467.749 273.366 469.898C267.296 472.046 260.769 473.808 254.697 475.518C248.934 477.14 243.568 478.721 239.443 480.537C238.627 473.981 237.753 467.43 236.815 460.888C241.835 459.944 250.565 456.893 259.221 453.476C268.173 449.941 277.113 445.989 281.906 443.505C282.37 443.264 283.054 442.779 283.828 442.19C284.613 441.594 285.524 440.865 286.452 440.115C288.237 438.675 290.077 437.169 291.278 436.321Z" fill="var(--fill-0, #F0F0F0)" stroke="var(--stroke-0, #CCCCCC)"/>
<path id="left-torso" d="M239.037 481.27C255.665 473.607 295.064 470.238 297.081 450.157C297.893 451.762 298.839 453.441 299.385 455.125C302.067 460.39 305.036 468.465 306.317 474.25C307.442 477.547 308.129 480.978 308.351 484.455C308.151 484.265 307.945 484.081 307.74 483.892C301.997 475.833 301.229 471.278 290.949 468.497C289.889 468.212 288.824 467.937 287.753 467.676C263.279 475.515 238.421 478.688 219.175 497.303C214.168 502.148 212.373 505.441 208.312 510.097L207.155 509.129C214.514 496.643 224.21 489.776 236.404 482.6C237.512 481.908 237.826 481.778 239.037 481.27Z" fill="var(--fill-0, #F0F0F0)"/>
<path id="left-side" d="M299.386 455.125C302.068 460.39 305.037 468.465 306.319 474.249C304.042 474.503 297.218 467.319 289.025 466.247C293.887 462.783 295.601 459.579 299.386 455.125Z" fill="var(--fill-0, #F0F0F0)"/>
<path id="left-upper-thigh" d="M224.697 689.913C228.71 692.957 231.992 695.077 237.145 696.305C249.739 699.306 266.633 696.083 278.237 690.74C280.432 689.729 284.677 686.322 287.165 684.922L288.095 684.403L288.073 686.76C270.347 698.43 246.349 703.967 226.649 694.055L226.125 694.617L224.697 689.913Z" fill="var(--fill-0, #F0F0F0)"/>
<path id="left-chest_2" d="M298.278 181.484C301.317 184.262 303.252 185.857 306.601 188.327L309.257 190.509L309.274 190.522L309.292 190.535C321.407 198.834 332.668 205.22 340.037 218.354C347.979 232.505 348.207 245.686 348.337 261.578L348.219 263.872C332.236 272.281 305.908 276.709 287.515 277.784L287.383 277.792L287.273 277.864L286.342 278.467L286.12 278.611L286.114 278.875L286.072 280.732L286.07 280.801L286.086 280.867C286.632 283.024 286.813 284.533 286.94 285.935C287.066 287.328 287.141 288.653 287.473 290.384C288.403 313.689 287.851 327.117 293.081 350.256L293.606 352.527L293.609 352.538C294.147 354.605 294.501 355.837 294.733 357.576C292.058 354.738 288.32 352.036 283.981 349.519C279.034 346.651 273.275 344.006 267.355 341.661C255.515 336.971 242.989 333.466 234.924 331.775C230.6 330.869 226.086 330.247 221.563 329.585C217.032 328.922 212.486 328.218 208.061 327.147C199.231 325.01 190.921 321.419 184.277 313.817C181.838 309.649 181.209 307.721 179.649 303.108L179.792 300.655C180.456 300.148 180.816 299.561 180.982 298.907C181.156 298.221 181.11 297.49 181.059 296.807C180.954 295.404 180.819 294.024 181.861 292.563L181.942 292.45L181.952 292.309C183.711 268.217 191.006 236.841 200.751 214.804C203.776 210.651 208.485 205.8 212.528 202.619C234.068 202.036 250.567 203.13 270.583 193.389C273.45 191.994 279.244 188.98 284.956 186.318C287.808 184.989 290.625 183.756 293.023 182.866C294.222 182.421 295.309 182.064 296.239 181.824C297.077 181.608 297.763 181.494 298.278 181.484Z" fill="var(--fill-0, #F0F0F0)" stroke="var(--stroke-0, #CCCCCC)"/>
<path id="left-shoulder" d="M309.43 190.63C321.491 198.882 332.693 205.27 340.034 218.354C347.976 232.505 348.204 245.686 348.334 261.578L348.216 263.871C332.232 272.28 305.905 276.71 287.512 277.784L287.38 277.792L287.27 277.865L287.13 277.954L287.148 277.018L287.15 276.92L287.115 276.828C282.452 264.689 278.504 243.414 280.55 225.016C281.572 215.818 284.087 207.389 288.713 201.181C293.297 195.029 299.973 191.029 309.43 190.63Z" fill="var(--fill-0, #F0F0F0)" stroke="var(--stroke-0, #CCCCCC)"/>
<path id="left-shoulder_2" d="M348.834 261.584L348.698 264.183C332.644 272.729 306.049 277.202 287.539 278.284L286.609 278.887L286.647 277.008C290.865 275.995 299.084 275.477 303.773 274.841C320.514 272.569 334.147 269.813 348.834 261.584Z" fill="var(--fill-0, #F0F0F0)"/>
<path id="left-pectoral" d="M286.387 282.188C286.701 283.675 286.836 284.838 286.936 285.936C287.062 287.328 287.137 288.653 287.469 290.384C288.418 314.171 287.825 327.669 293.411 351.705C293.259 351.651 293.085 351.587 292.893 351.51C292.274 351.263 291.497 350.919 290.606 350.507C288.826 349.682 286.614 348.589 284.345 347.454C279.828 345.195 275.05 342.753 273.109 342.003C260.89 337.278 250.096 333.477 237.492 330.938C251.637 329.098 260.82 322.925 267.9 314.356C275.245 305.467 280.339 293.976 286.387 282.188Z" fill="var(--fill-0, #F0F0F0)" stroke="var(--stroke-0, #CCCCCC)"/>
<path id="chest" d="M306.914 187.936L309.574 190.122C270.797 191.584 277.275 252.6 286.652 277.008L286.614 278.886L286.571 280.744C273.869 305.261 265.974 328.329 234.053 330.79C248.086 333.299 259.652 337.334 272.933 342.469C276.756 343.947 291.903 352.161 294.093 352.412C294.774 355.029 295.18 356.349 295.396 359.08C284.819 346.251 250.898 335.635 234.821 332.264C217.598 328.654 197.353 329.577 183.868 314.11C181.367 309.841 180.736 307.877 179.145 303.176L179.308 300.392C182.105 298.504 179.134 295.524 181.453 292.273C181.008 306.055 183.728 316.128 197.69 322.157C218.128 330.981 244.965 333.913 262.334 317.141C272.587 307.242 279.422 291.702 285.197 278.694C275.475 254.574 270.402 207.797 296.185 191.543C299.333 189.56 303.404 188.896 306.914 187.936Z" fill="var(--fill-0, #F0F0F0)"/>
<path id="head" d="M201.137 6.28125C215.298 -0.521773 229.734 -1.31795 244.522 3.87891C260.359 9.44406 270.013 20.5472 274.396 33.8984C278.785 47.2649 277.898 62.9078 272.586 77.5127L272.563 77.5742L272.558 77.6396C271.857 85.4899 270.418 89.094 268.701 92.2266C266.989 95.3512 264.927 98.1207 263.035 104.065C261.983 104.603 261.126 105.165 260.304 105.739C259.461 106.328 258.673 106.911 257.729 107.516L251.522 107.666L251.108 107.676L251.041 108.085C249.689 116.296 247.89 121.724 244.75 126.357C241.604 131 237.086 134.886 230.207 139.968C226.066 143.027 220.431 146.565 214.502 149.225C208.658 151.846 202.586 153.588 197.394 153.233C196.982 152.53 196.615 152.098 196.074 151.905C195.792 151.805 195.498 151.782 195.203 151.774C195.054 151.771 194.891 151.771 194.721 151.77C194.72 151.77 194.718 151.769 194.717 151.769L194.755 151.527L194.191 151.509C190.161 151.378 187.341 150.695 185.304 149.608C183.279 148.528 181.992 147.03 181.057 145.194C180.112 143.341 179.529 141.151 178.918 138.684C178.311 136.231 177.678 133.521 176.631 130.705C170.478 114.169 166.395 99.3451 167.654 81.6318C167.694 81.0777 167.542 80.336 167.336 79.5625C167.125 78.7725 166.835 77.8727 166.555 76.9834C166.272 76.0865 165.999 75.1959 165.812 74.3955C165.645 73.6842 165.557 73.087 165.572 72.6406L165.585 72.459L165.586 72.4463C166.503 62.0061 167.669 49.1795 171.074 39.4102C176.263 24.7948 187.088 12.8647 201.132 6.2832L201.137 6.28125Z" fill="var(--fill-0, #F0F0F0)" stroke="var(--stroke-0, #CCCCCC)"/>
<path id="left-ear" d="M258.663 77.8161C267.19 67.941 272.463 77.3451 270.483 85.869C269.072 91.9562 263.405 101.896 258.019 105.303C255.786 106.715 253.855 106.526 251.33 106.492C251.6 104.466 253.634 98.86 254.239 96.1892C255.624 90.1036 256.803 83.7276 258.663 77.8161Z" fill="var(--fill-0, #F0F0F0)"/>
<path id="face" d="M255.678 77.7709C260.588 69.6478 267.947 69.9073 273.052 77.6844C271.641 93.5062 267.223 92.3723 263.443 104.417C261.226 105.519 259.896 106.736 257.879 108.013L251.53 108.167C248.816 124.657 244.268 130.2 230.5 140.37C222.173 146.523 207.838 154.599 197.09 153.714C196.152 152.027 195.847 152.319 194.133 152.26L194.171 152.009C213.38 151.162 231.912 140.129 243.754 124.722C247.145 120.314 248.545 113.282 249.784 107.874L251.325 106.492C253.85 106.526 255.781 106.715 258.014 105.303C263.4 101.896 269.067 91.9564 270.478 85.8692C272.457 77.3453 267.185 67.9411 258.657 77.8163L255.678 77.7709Z" fill="var(--fill-0, #F0F0F0)"/>
<path id="left-ear_2" d="M255.678 77.7704L258.657 77.8158C256.797 83.7273 255.618 90.1033 254.234 96.1889C253.628 98.8597 251.595 104.466 251.325 106.491L249.783 107.874C249.162 100.292 254.402 85.4934 255.678 77.7704Z" fill="var(--fill-0, #F0F0F0)"/>
<path id="left-flank_2" d="M137.143 452.986C139.015 456.873 140.85 460.779 142.641 464.706L142.852 465.168L143.311 464.949L144.185 464.531C148.907 473.486 154.43 483.844 160.003 492.226C162.299 495.679 164.206 499.595 166.053 503.647C167.894 507.687 169.68 511.874 171.714 515.812C175.67 523.471 180.628 530.316 189.014 533.615L188.111 534.495L187.566 535.025L188.27 535.315C191.314 536.571 193.747 536.821 195.674 536.833C196.619 536.838 197.473 536.784 198.152 536.768C198.858 536.751 199.391 536.775 199.817 536.9C200.218 537.017 200.534 537.228 200.802 537.628C201.083 538.049 201.325 538.698 201.514 539.712C201.892 541.746 202.027 545.057 202.022 550.442C202.016 557.835 202.506 567.212 203.227 574.565V574.569C206.336 604.276 210.26 633.886 214.989 663.378C206.517 667.864 194.843 672.32 183.482 673.519C172.022 674.729 160.988 672.618 153.811 664.029C153.38 661.041 152.187 656.94 150.845 652.873C149.478 648.73 147.943 644.583 146.874 641.622C124.085 578.522 126.193 517.929 137.143 452.986Z" fill="var(--fill-0, #F0F0F0)" stroke="var(--stroke-0, #CCCCCC)"/>
<path id="left-abdomen" d="M144.4 463.872C149.174 472.928 154.771 483.459 160.416 491.949C169.692 505.9 172.607 527.195 189.923 533.425L188.457 534.852C188.241 534.766 188.025 534.674 187.809 534.587C183.058 532.554 178.88 529.385 175.641 525.362C171.669 520.42 164.934 504.581 161.573 498.173C156.343 488.207 147.186 474.523 143.092 464.498L144.4 463.872Z" fill="var(--fill-0, #F0F0F0)"/>
<path id="left-thigh" d="M161.71 717.437C173.836 733.335 211.114 720.698 220.966 705.308C232.533 743.155 235.415 760.67 226.417 799.426C222.929 814.453 222.643 850.159 223.767 865.559C213.942 873.103 194.379 879.219 183.369 871.616C180.333 834.007 168.747 799.561 163.345 762.514C161.087 747.032 161.529 732.978 161.71 717.437Z" fill="var(--fill-0, #F0F0F0)"/>
<path id="left-thigh_2" d="M296.504 729.642C316.333 778.228 301.252 811.603 290.885 859.011C288.344 870.642 285.472 883.036 284.034 894.808C283.942 895.722 283.688 898.875 283.461 899.567L283.196 898.669C280.617 898.464 275.485 902.152 272.435 902.482C261.955 903.623 254.666 902.492 245.949 896.279L245.733 895.798L246.484 892.916C248.885 881.257 249.632 861.633 248.615 849.786C248.977 844.967 248.199 837.835 247.761 832.947C245.717 810.354 241.823 788.773 243.624 765.964C243.975 761.497 242.093 752.348 241.293 747.557C242.05 748.06 242.823 748.541 243.608 749.006C258.83 757.809 287.982 744.22 296.504 729.642Z" fill="var(--fill-0, #F0F0F0)"/>
<path id="left-shin" d="M246.488 892.916C255.178 903.596 273.958 903.147 284.038 894.808C283.946 895.722 283.692 898.875 283.465 899.567L283.2 898.669C280.62 898.464 275.489 902.152 272.439 902.482C261.959 903.623 254.67 902.492 245.953 896.279L245.736 895.798L246.488 892.916Z" fill="var(--fill-0, #F0F0F0)"/>
<path id="right-chest" d="M176.9 160.231C176.94 161.046 176.725 161.706 176.379 162.436C175.969 163.3 175.312 164.365 174.801 165.787C172.929 171 172.431 175.416 173.564 179.393C174.698 183.373 177.442 186.831 181.882 190.177C183.298 191.245 184.945 192.162 186.609 193.032C188.287 193.908 189.969 194.732 191.519 195.633C194.628 197.443 196.985 199.452 197.413 202.473C197.585 203.683 197.755 205.718 198.005 207.75C198.128 208.75 198.268 209.736 198.436 210.576C198.594 211.375 198.788 212.096 199.037 212.573L199.771 214.538C190.023 236.643 182.739 267.979 180.96 292.105C179.776 293.852 179.958 295.539 180.058 296.88C180.11 297.584 180.137 298.157 180.009 298.662C179.889 299.134 179.625 299.573 179.024 299.978L178.819 300.116L178.805 300.363L178.647 303.043C177.461 305.433 176.543 306.786 175.421 307.935C174.28 309.103 172.924 310.071 170.8 311.699L169.679 312.032L169.63 312.046L169.586 312.07C166.014 313.971 160.881 314.206 155.641 313.577C150.553 312.966 145.454 311.551 141.767 310.167L141.202 304.441L141.184 304.249L141.039 304.119C133.486 297.31 130.341 288.197 129.355 278.22L129.348 278.132L129.31 278.053L129.202 277.805C128.969 277.201 128.849 276.424 128.801 275.51C128.746 274.472 128.784 273.314 128.822 272.112C128.86 270.92 128.899 269.688 128.835 268.542C128.774 267.456 128.618 266.411 128.265 265.524L129.517 256.501L130.9 255.902L131.14 255.798L131.191 255.542C131.402 254.503 131.691 253.384 131.984 252.221C132.276 251.064 132.571 249.868 132.783 248.702C133.198 246.418 133.323 244.115 132.367 242.369L132.116 241.625L132.74 241.497L132.987 241.445L133.093 241.215L133.521 240.28L133.573 240.167L133.566 240.042C133.497 238.886 133.364 237.775 132.922 236.84C132.501 235.951 131.814 235.249 130.726 234.787C129.301 223.607 133.185 208.793 139.772 195.116C146.393 181.371 155.689 168.89 164.893 162.495C168.582 161.95 173.142 160.951 176.9 160.231Z" fill="var(--fill-0, #F0F0F0)" stroke="var(--stroke-0, #CCCCCC)"/>
<path id="left-pectoral_2" d="M199.497 212.376L200.311 214.553C190.53 236.651 183.213 268.113 181.449 292.273C179.131 295.524 182.101 298.504 179.304 300.392L177.523 301.308C179.224 296.358 180.258 281.352 181.267 275.061C185.105 251.135 189.423 234.199 199.497 212.376Z" fill="var(--fill-0, #F0F0F0)"/>
<path id="left-chest_3" d="M140.707 304.49C142.852 306.666 143.538 308.013 145.321 310.148C153.384 312.633 159.853 313.44 168.143 311.194L169.823 312.511C162.401 316.46 148.781 313.387 141.303 310.527L140.707 304.49Z" fill="var(--fill-0, #F0F0F0)"/>
<path id="sternum_2" d="M179.302 300.392L179.139 303.177C176.698 308.119 175.317 308.863 171.028 312.152L169.819 312.511L168.139 311.194C173.231 308.562 174.625 306.177 177.521 301.308L179.302 300.392Z" fill="var(--fill-0, #F0F0F0)"/>
<path id="left-side_2" d="M129.061 256.155L130.701 255.443C130.424 260.334 129.861 274.02 128.858 278.27C127.469 275.375 129.189 268.93 127.752 265.584L129.061 256.155Z" fill="var(--fill-0, #F0F0F0)"/>
<path id="left-upper-arm" d="M348.217 264.997C348.582 278.789 351.082 289.126 352.596 302.573C354.283 317.554 353.292 333.984 352.442 349.044C352.191 353.521 351.999 362.013 351.456 366.141L351.453 366.163L351.452 366.186C350.856 381.042 353.109 385.424 356.52 399.573C350.858 399.89 341.525 401.099 332.386 402.851C323.397 404.574 314.514 406.835 309.501 409.32C309.568 400.396 310.731 393.648 307.952 384.841L307.943 384.814L307.932 384.788L307.219 383.171C292.451 349.416 291.489 327.706 290.233 290.969L290.222 290.634L289.907 290.518L288.406 289.96C288.123 288.407 288.051 287.2 287.929 285.845C287.8 284.424 287.614 282.878 287.065 280.692L287.101 279.162L287.7 278.774C305.954 277.693 332.041 273.331 348.217 264.997Z" fill="var(--fill-0, #F0F0F0)" stroke="var(--stroke-0, #CCCCCC)"/>
<path id="left-elbow" d="M320.653 386.531C335.707 379.161 336.773 371.532 344.9 358.896C347.204 360.938 349.55 363.878 351.951 366.206C351.351 381.177 353.649 385.383 357.148 400.04C346.041 400.557 318.522 404.958 308.994 410.145C308.989 400.712 310.308 393.97 307.475 384.991C311.644 385.768 316.397 386.133 320.653 386.531Z" fill="var(--fill-0, #F0F0F0)"/>
<path id="left-upper-arm_2" d="M286.608 278.886L287.538 278.283C288.462 281.925 289.252 287.191 289.733 290.986L287.965 290.33C287.3 286.89 287.673 285.125 286.564 280.744L286.608 278.886Z" fill="var(--fill-0, #F0F0F0)"/>
<path id="neck" d="M262.83 105.307C261.843 113.514 261.368 122.744 262.423 131.667C263.518 140.935 266.265 149.906 271.829 157.056C277.545 164.399 288.918 173.498 296.26 179.674H296.261L297.268 180.58C296.87 180.644 296.439 180.738 295.984 180.856C295.008 181.107 293.885 181.477 292.668 181.929C290.233 182.833 287.389 184.078 284.527 185.411C278.813 188.074 272.962 191.116 270.14 192.49C250.311 202.14 234.041 201.029 212.327 201.624L212.163 201.629L212.033 201.731C208.115 204.791 203.57 209.41 200.455 213.518L199.964 212.2L199.951 212.167L199.934 212.136C199.754 211.807 199.577 211.201 199.414 210.38C199.254 209.576 199.117 208.62 198.995 207.629C198.756 205.68 198.571 203.532 198.401 202.332C197.902 198.815 195.159 196.596 192.019 194.769C190.444 193.852 188.715 193.005 187.07 192.146C185.413 191.28 183.828 190.394 182.481 189.379C178.144 186.109 175.578 182.816 174.524 179.118C173.536 175.649 173.858 171.752 175.413 167.071L175.74 166.124C176.232 164.755 176.807 163.862 177.28 162.865C177.695 161.991 177.981 161.113 177.884 159.989C179.389 159.519 180.926 159.299 182.566 158.993L182.608 158.986L182.649 158.97L192.565 155.287L194.783 155.157L196.53 155.679L197.018 155.825L197.155 155.335L197.46 154.24C202.864 154.572 209.06 152.76 214.906 150.137C220.913 147.442 226.611 143.866 230.797 140.773C237.685 135.684 242.325 131.712 245.573 126.918C248.774 122.194 250.596 116.71 251.952 108.656L257.89 108.513L258.028 108.51L258.145 108.436C259.166 107.789 260.024 107.15 260.871 106.559C261.492 106.125 262.119 105.708 262.83 105.307Z" fill="var(--fill-0, #F0F0F0)" stroke="var(--stroke-0, #CCCCCC)"/>
<path id="neck_2" d="M177.337 159.638C179.011 159.064 180.726 158.827 182.475 158.501C166.117 177.028 181.286 188.87 197.906 196.618C199.986 201.9 200.584 204.16 201.071 209.868C205.149 205.463 207.647 203.188 212.714 199.973C225.595 200.252 237.464 200.143 250.21 197.743C267.098 194.563 280.595 184.519 296.596 179.302L298.467 180.985C293.648 180.828 276.047 190.17 270.358 192.938C250.41 202.647 234.009 201.53 212.341 202.124C208.221 205.341 203.392 210.308 200.309 214.553L199.495 212.376C198.615 210.767 198.248 204.812 197.906 202.402C196.979 195.864 187.708 193.944 182.18 189.778C173.403 183.162 171.564 176.275 175.269 165.955C176.272 163.163 177.735 162.04 177.337 159.638Z" fill="var(--fill-0, #F0F0F0)"/>
<path id="neck_3" d="M194.844 154.652L196.676 155.2C196.753 157.956 196.813 159.235 196.408 161.938L195.588 162.395L195.671 162.88L196.212 162.911L196.145 163.144L195.701 163.279C194.533 159.936 194.929 158.317 194.844 154.652Z" fill="var(--fill-0, #F0F0F0)"/>
<path id="left-foot" d="M223.768 865.559L223.882 868.16C224.569 875.52 225.542 882.847 226.786 890.136L227.3 893.646C228.992 902.974 235.205 918.894 229.149 926.945C220.324 938.674 198.464 934.386 186.238 940.031C175.93 944.79 170.27 951.111 161.299 957.482C156.244 960.64 150.177 961.467 144.562 963.197C140.785 964.36 136.903 967.777 133.412 968.864C127.134 970.816 119.284 972.72 115.154 966.496C114.991 964.5 115.055 963.743 114.199 961.899C113.482 963.938 113.629 964.122 111.723 964.706C108.69 963.003 109.908 960.521 111.204 958.147L110.183 957.016L109.708 956.751L109.609 955.735C110.759 953.258 111.159 952.918 112.974 950.792L111.756 950.23L111.679 949.165C113.293 946.488 114.239 944.558 116.557 942.438C117.364 941.129 117.483 940.551 118.876 940.021C123.989 935.024 135.198 931.466 141.473 928.151C151.91 922.63 171.838 906.413 178.998 897.085L180.038 895.274C182.43 889.369 182.881 885.367 183.408 879.078C183.239 876.791 183.347 873.957 183.37 871.616C194.38 879.219 213.943 873.103 223.768 865.559Z" fill="var(--fill-0, #F0F0F0)"/>
<path id="left-foot_2" d="M223.764 865.559L223.877 868.16C224.564 875.52 225.537 882.847 226.781 890.136C225.818 891.64 220.627 896.236 219.048 897.047C212.694 900.33 203.918 900.746 196.833 901C193.445 901.087 182.435 897.253 180.033 895.273C182.425 889.368 182.876 885.367 183.403 879.078C183.234 876.791 183.342 873.957 183.365 871.616C194.375 879.219 213.938 873.103 223.764 865.559Z" fill="var(--fill-0, #F0F0F0)"/>
<path id="left-foot_3" d="M223.766 865.559L223.88 868.16C211.697 875.677 197.428 879.949 183.568 874.195C183.572 875.331 183.68 878.159 183.406 879.078C183.237 876.791 183.344 873.957 183.368 871.616C194.377 879.219 213.941 873.103 223.766 865.559Z" fill="var(--fill-0, #F0F0F0)"/>
<path id="left-foot_4" d="M226.782 890.136L227.296 893.646L226.722 893.987C224.965 895.057 219.011 899.535 218.26 899.8C210.403 902.552 206.077 900.703 197.899 904.412C191.53 902.147 185.226 899.702 178.994 897.085L180.034 895.274C182.436 897.253 193.446 901.087 196.834 901C203.919 900.746 212.695 900.33 219.049 897.047C220.628 896.236 225.819 891.64 226.782 890.136Z" fill="var(--fill-0, #F0F0F0)"/>
<path id="left-toes" d="M114.205 961.899C114.491 960.645 114.891 959.65 116.265 959.109C119.021 958.027 132.309 950.224 133.883 949.808L134.589 950.365L134.438 951.371C130.333 954.248 125.617 956.064 121.32 958.611C116.878 961.239 115.552 961.304 115.16 966.496C114.997 964.5 115.061 963.743 114.205 961.899Z" fill="var(--fill-0, #F0F0F0)"/>
<path id="left-toes_2" d="M110.188 957.016C114.067 953.847 120.474 948.104 125.513 947.98C125.069 948.721 125.392 948.364 124.475 948.883L122.706 949.862C118.416 952.203 114.755 956.167 111.208 958.146L110.188 957.016Z" fill="var(--fill-0, #F0F0F0)"/>
<path id="left-toes_3" d="M111.676 949.165L112.438 948.797C115.025 947.515 121.958 942.676 124.637 942.881C120.543 946.737 117.151 947.434 112.971 950.792L111.753 950.23L111.676 949.165Z" fill="var(--fill-0, #F0F0F0)"/>
<path id="left-toes_4" d="M118.877 940.021C120.882 939.307 122.464 938.371 124.277 938.901C122.552 941.059 119.202 941.756 116.559 942.438C117.366 941.129 117.484 940.551 118.877 940.021Z" fill="var(--fill-0, #F0F0F0)"/>
<path id="left-foot_5" d="M239.499 920.835C246.767 925.431 254.305 924.944 262.021 928.784C262.594 928.454 263.189 928.162 263.8 927.902C265.931 926.999 280.077 924.209 282.186 925.15C283.283 924.577 282.954 924.728 283.835 923.749C287.572 930.109 289.648 941.605 287.891 948.894C285.765 957.703 276.73 960.164 270.814 965.987C262.043 974.623 258.009 989.067 243.846 989.84C240.716 993.831 239.212 996.61 233.605 994.604L231.815 993.841C229.922 998.07 225.807 999.433 222.568 995.783L222.476 995.42L221.449 994.95C219.621 999.822 215.106 1001.83 211.315 997.973C211.028 997.524 210.498 997.167 210.055 996.789L209.785 995.637L210.342 994.836C207.221 993.544 206.091 994.004 201.745 991.965C203.472 989.375 209.503 981.94 209.768 979.874C205.691 982.28 202.907 987.158 200.277 991.121C196.176 986.952 194.957 986.357 189.279 986.222C190.97 983.556 193.724 981.047 195.743 978.349C198.588 974.904 200.919 970.021 203.923 966.777C216.463 953.215 231.112 937.447 239.499 920.835Z" fill="var(--fill-0, #F0F0F0)"/>
<path id="left-foot_6" d="M262.012 928.784C262.585 928.454 263.18 928.162 263.791 927.903C265.921 927 280.067 924.209 282.176 925.15C282.241 926.567 282.155 926.48 282.75 927.794C279.911 938.956 267.522 934.884 262.012 928.784Z" fill="var(--fill-0, #F0F0F0)"/>
<path id="left-hand" d="M56.5469 454.906C58.7913 454.908 61.3345 455.877 64.0293 457.416C66.7669 458.979 69.6006 461.092 72.3545 463.252C75.0957 465.402 77.7714 467.609 80.1484 469.317C81.3399 470.173 82.4714 470.915 83.5146 471.469C84.3389 471.907 85.1284 472.236 85.8633 472.408C81.2152 490.342 76.0775 500.953 65.2852 516.199C64.1965 517.737 62.7225 520.21 61.0156 523.037C59.3023 525.875 57.343 529.09 55.2686 532.143C53.1922 535.198 51.0117 538.074 48.8604 540.241C46.7675 542.349 44.7722 543.709 42.9844 543.999C42.7421 543.812 42.6144 543.72 42.4961 543.623C42.4473 543.583 42.4248 543.561 42.415 543.55C42.4067 543.515 42.4026 543.446 42.3896 543.18C42.3781 542.942 42.3575 542.611 42.2969 542.134C42.9072 540.318 43.887 538.515 44.9727 536.708C45.9304 535.114 46.985 533.494 47.8965 531.905L48.2773 531.227C50.5648 527.065 53.3648 521.766 54.9863 517.264L55.2305 516.586L54.5107 516.594L52.6846 516.615L52.457 516.618L52.3096 516.792L51.5186 517.722L51.4355 517.819L51.4102 517.944C50.7827 520.975 49.1611 524.259 47.2549 527.48C45.5794 530.31 43.7348 533.014 42.167 535.463L41.5127 536.497C40.9035 537.476 40.1205 538.95 39.2305 540.511C38.3305 542.089 37.3034 543.791 36.1719 545.293C35.0361 546.801 33.8199 548.073 32.5547 548.826C31.3696 549.531 30.1671 549.768 28.9248 549.342C28.4727 548.072 28.6347 546.572 29.2432 545.355C31.6222 540.606 34.5286 536.027 37.3672 531.356C40.1998 526.696 42.9605 521.954 45.0078 516.926L45.0908 516.722L44.9961 516.522L44.3828 515.235L44.1699 514.788L43.7207 514.996C43.172 515.25 42.6856 515.853 42.2607 516.518C41.8198 517.207 41.3832 518.067 40.9648 518.958C40.1107 520.778 39.347 522.688 38.7021 523.848C33.8807 532.479 28.1117 540.703 22.6621 548.999C21.3951 550.923 18.9766 551.363 16.9941 550.017C16.0483 547.996 16.465 546.065 17.459 544.147C17.9668 543.166 18.6162 542.207 19.2939 541.259C19.964 540.321 20.6733 539.379 21.2607 538.478C23.0214 535.773 26.5134 530.376 29.6191 524.898C31.1717 522.16 32.6326 519.393 33.7334 516.928C34.8267 514.479 35.5916 512.269 35.7051 510.667L35.7324 510.282L35.3662 510.158L34.8213 509.975L34.5088 509.869L34.2891 510.114C33.0905 511.45 31.4755 514.226 29.6338 517.556C27.7761 520.914 25.6644 524.881 23.4473 528.684C21.2295 532.487 18.9246 536.094 16.6963 538.725C15.5819 540.04 14.5017 541.095 13.4756 541.807C12.5293 542.463 11.6655 542.801 10.8877 542.825L10.3691 542.244C10.2651 541.593 10.1497 540.702 10.123 539.825C10.0937 538.86 10.1753 538.001 10.4258 537.48C12.3322 533.518 14.406 529.502 16.5068 525.431C18.6066 521.361 20.7329 517.235 22.7402 513.063C26.7541 504.719 30.3019 496.163 32.2168 487.428L32.2373 487.333L32.2217 487.238C32.0407 486.148 31.9602 485.542 31.7842 484.982C31.604 484.41 31.3257 483.886 30.79 482.924L30.6758 482.719L30.4443 482.676L30.2402 482.638L29.9697 482.588L29.7832 482.789C29.6174 482.967 29.5128 483.088 29.4395 483.174C29.3582 483.269 29.3409 483.288 29.3262 483.302C29.3259 483.302 29.3204 483.309 29.2588 483.343L28.9131 483.525C25.1421 485.517 21.7708 488.396 18.3496 490.905C14.9008 493.435 11.3608 495.626 7.13965 496.405C5.88113 496.639 4.26169 496.423 2.92578 495.783C1.66682 495.18 0.746794 494.248 0.529297 493.052C1.93525 491.626 3.8589 490.397 5.94238 489.105C8.08686 487.774 10.3899 486.383 12.3184 484.672V484.671C16.1648 481.252 19.3314 477.097 22.6133 473.29C25.9133 469.463 29.3527 465.957 33.8076 463.69L33.8086 463.689C37.9259 461.589 42.1877 459.783 46.5615 458.287L46.5625 458.288C47.9642 457.818 49.837 457.354 51.7295 456.798C53.5176 456.272 55.3138 455.663 56.5469 454.906Z" fill="var(--fill-0, #F0F0F0)" stroke="var(--stroke-0, #CCCCCC)"/>
<path id="left-hand_2" d="M51.9025 518.046C51.7332 516.007 51.3914 516.77 52.4535 515.493C55.0269 514.974 56.7573 514.991 59.1009 516.386L58.81 516.835L54.5192 517.094L52.6936 517.116L51.9025 518.046Z" fill="var(--fill-0, #F0F0F0)"/>
<path id="left-hand_3" d="M30.3494 483.168L36.3561 483.654L32.3858 485.033C31.8089 486.363 31.9338 485.936 31.7245 487.321C31.353 485.082 31.4298 485.109 30.3494 483.168Z" fill="var(--fill-0, #F0F0F0)"/>
<path id="left-hand_4" d="M56.41 476.163C57.791 477.612 57.2687 479.755 56.0595 481.161C51.8833 485.995 45.6176 487.872 39.5358 488.905L39.3049 488.531C39.1784 486.093 44.5994 486.19 47.2615 484.843C51.302 482.799 53.5856 479.534 56.41 476.163Z" fill="var(--fill-0, #F0F0F0)"/>
<path id="left-forearm" d="M356.998 402.205C360.654 424.412 359.669 443.047 357.41 465.379C357.038 469.051 356.373 475.037 355.883 480.932C355.397 486.776 355.079 492.587 355.398 495.983L355.174 497.71C350.373 496.189 344.674 495.143 339.098 495.244C333.594 495.344 328.169 496.562 323.851 499.582L323.627 497.99V497.987L323.406 496.533C322.26 489.236 320.492 481.539 318.631 473.851C316.644 465.643 314.554 457.449 312.991 449.726C310.188 435.852 309.341 426.746 309.248 412.63L309.467 410.462C314.22 407.957 323.264 405.618 332.576 403.833C341.773 402.07 351.146 400.864 356.729 400.564L356.998 402.205Z" fill="var(--fill-0, #F0F0F0)" stroke="var(--stroke-0, #CCCCCC)"/>
<path id="left-forearm_2" d="M357.151 400.041L357.491 402.124C349.077 402.054 314.518 407.291 308.748 412.611L308.997 410.145C318.525 404.958 346.044 400.558 357.151 400.041Z" fill="var(--fill-0, #F0F0F0)"/>
<path id="left-wrist" d="M323.135 498.06C332.506 492.69 345.765 493.328 355.904 495.999L355.596 498.368C345.846 495.156 332.09 493.88 323.475 500.477L323.135 498.06Z" fill="var(--fill-0, #F0F0F0)"/>
<path id="left-forearm_3" d="M103.372 345.262C105.032 347.667 107.455 349.73 110.063 351.541C112.945 353.542 116.103 355.274 118.763 356.828C125.905 361.003 133.483 366.182 141.066 369.568L141.043 371.323V371.336C141.183 381.355 139.956 388.839 137.283 395.719C134.607 402.608 130.47 408.921 124.743 416.592C117.189 426.71 108.514 437.992 101.497 448.41L100.456 449.761C92.7292 445.867 78.8984 437.653 71.5518 432.806L72.3799 431.293C77.7538 421.549 81.5233 410.738 84.7383 399.773C86.3459 394.29 87.8167 388.762 89.2793 383.307C90.7426 377.85 92.1983 372.466 93.7773 367.26C95.7442 360.774 99.65 353.235 102.604 346.881L102.604 346.882L103.372 345.262Z" fill="var(--fill-0, #F0F0F0)" stroke="var(--stroke-0, #CCCCCC)"/>
<path id="left-elbow_2" d="M102.152 346.667L103.304 344.242C106.494 349.534 113.663 353.269 119.015 356.397C126.299 360.653 133.921 365.879 141.571 369.246L141.543 371.329C134.007 368.825 107.914 352.261 102.152 346.667Z" fill="var(--fill-0, #F0F0F0)"/>
<path id="left-forearm_4" d="M70.8926 432.972L71.9422 431.052C76.1941 434.197 97.8923 447.642 101.905 448.701L100.6 450.395C92.7962 446.504 78.2592 437.865 70.8926 432.972Z" fill="var(--fill-0, #F0F0F0)"/>
<path id="left-hand_5" d="M341.484 520.4C346.893 520.596 352.096 522.02 355.693 524.985L355.547 527.349L355.538 527.501L355.615 527.633C361.351 537.373 363.13 541.37 363.885 545.448C364.265 547.502 364.386 549.581 364.606 552.461C364.826 555.332 365.143 558.959 365.913 564.062L365.917 564.093L365.925 564.121C366.224 565.203 366.665 566.477 367.139 567.812C367.614 569.154 368.124 570.56 368.57 571.932C369.017 573.303 369.393 574.622 369.604 575.779C369.803 576.868 369.842 577.758 369.696 578.404C368.917 579.02 368.144 579.244 367.387 579.22C366.575 579.193 365.74 578.879 364.908 578.37C363.235 577.346 361.705 575.616 360.577 574.271L360.302 573.943L359.936 574.164L358.484 575.037L357.502 574.952L357.161 574.148L356.68 573.016L356.234 574.163C355.036 577.253 353.905 581.242 352.692 585.569C351.477 589.907 350.176 594.598 348.633 599.129C347.089 603.66 345.309 608.011 343.144 611.669C340.999 615.292 338.494 618.199 335.499 619.941C334.724 619.997 334.106 620.069 333.384 620.03L333.195 620.019L333.047 620.137L332.62 620.473L330.93 619.706L330.485 619.505L330.273 619.943C329.021 622.526 327.554 624.25 324.909 624.939C324.435 624.82 324.115 624.754 323.898 624.707C323.644 624.651 323.591 624.629 323.56 624.609C323.528 624.59 323.485 624.552 323.321 624.35C323.179 624.175 322.972 623.913 322.643 623.533C322.014 621.556 322.428 620.502 322.85 618.112L322.931 617.653L322.479 617.54L321.24 617.232L320.983 617.168L320.786 617.345C320.136 617.925 319.796 618.179 319.438 618.37C319.08 618.562 318.706 618.693 317.966 618.988C317.166 618.838 316.655 618.551 316.322 618.199C315.97 617.827 315.772 617.336 315.688 616.732C315.602 616.124 315.636 615.428 315.728 614.679C315.82 613.926 315.963 613.166 316.086 612.4L316.096 612.34L316.091 612.279L315.718 607.812L315.655 607.059L314.987 607.411C314.014 607.923 313.341 608.285 312.729 608.357C312.446 608.391 312.185 608.358 311.918 608.24C311.669 608.13 311.394 607.934 311.084 607.605C310.879 606.414 311.023 604.799 311.401 602.898C311.791 600.938 312.415 598.733 313.094 596.473C313.77 594.222 314.505 591.909 315.101 589.77C315.696 587.633 316.166 585.628 316.308 583.979C316.912 576.969 316.845 569.909 316.997 562.918C317.15 555.913 317.522 548.955 318.996 542.079C320.22 536.376 323.322 531.332 326.273 526.179L326.337 526.068L326.34 525.942L326.408 523.073C330.603 521.227 336.109 520.206 341.484 520.4Z" fill="var(--fill-0, #F0F0F0)" stroke="var(--stroke-0, #CCCCCC)"/>
<path id="left-finger" d="M329.609 600.721C332.318 600.77 334.043 600.656 336.671 601.392C333.897 608.481 330.717 612.661 330.728 620.161C329.425 622.849 327.841 624.736 324.921 625.455C322.779 624.904 323.655 625.444 322.201 623.779C321.482 621.594 321.947 620.388 322.363 618.025C323.818 613.699 327.651 605.896 329.609 600.721Z" fill="var(--fill-0, #F0F0F0)"/>
<path id="left-finger_2" d="M337.376 599.067C338.728 594.438 340.134 589.636 340.561 584.813C346.493 588.398 331.617 612.602 333.358 620.529L332.693 621.054L330.725 620.161C330.714 612.661 333.894 608.481 336.668 601.392L337.376 599.067Z" fill="var(--fill-0, #F0F0F0)"/>
<path id="left-finger_3" d="M328.33 597.736C329.142 594.594 330.602 587.1 332.391 585.12L332.916 585.461C332.629 589.852 330.867 594.459 330.099 599.066L329.607 600.721C327.649 605.896 323.815 613.699 322.361 618.025L321.122 617.717C321.025 616.008 327.211 600.91 328.33 597.736Z" fill="var(--fill-0, #F0F0F0)"/>
<path id="left-hand_6" d="M325.918 522.745C334.532 518.819 348.77 518.414 356.21 524.762L356.048 527.379C348.591 519.593 334.51 520.647 325.842 525.93L325.918 522.745Z" fill="var(--fill-0, #F0F0F0)"/>
<path id="left-finger_4" d="M315.219 607.854C315.446 607.097 317.836 601.051 318.052 600.721C320.643 596.79 321.816 584.672 324.049 581.617L324.693 581.79C324.574 585.537 322.67 592.491 321.946 596.676C320.248 601.916 317.793 607.237 315.592 612.32L315.219 607.854Z" fill="var(--fill-0, #F0F0F0)"/>
<path id="left-hand_7" d="M331.639 549.031L333.991 548.528C337.327 555.342 342.946 559.96 350.77 560.343L351.976 559.549C352.431 560.316 353.334 561.712 353.68 562.452C345.309 562.328 334.121 557.732 331.639 549.031Z" fill="var(--fill-0, #F0F0F0)"/>
<path id="left-fingertip" d="M351.971 559.549L351.717 558.099L352.29 558.002C354.047 560.046 355.129 561.955 356.146 564.459L357.341 567.736L355.945 569.212C355.188 567.855 354.183 564.123 353.674 562.452C353.328 561.712 352.425 560.316 351.971 559.549Z" fill="var(--fill-0, #F0F0F0)"/>
<path id="left-fingertip_2" d="M357.34 567.735C358.276 570.353 358.855 572.11 360.196 574.592L358.606 575.549L357.162 575.425L356.702 574.343C356.702 572.559 356.291 570.964 355.945 569.212L357.34 567.735Z" fill="var(--fill-0, #F0F0F0)"/>
<path id="left-finger_5" d="M330.172 538.335C331.756 541.98 332.73 544.743 333.984 548.528L331.632 549.031C330.567 545.127 330.258 542.309 330.172 538.335Z" fill="var(--fill-0, #F0F0F0)"/>
<path id="left-finger_6" d="M330.092 599.067H337.37L336.662 601.392C334.034 600.656 332.309 600.77 329.6 600.721L330.092 599.067Z" fill="var(--fill-0, #F0F0F0)"/>
<path id="left-upper-thigh_2" d="M288.077 686.76C289.17 704.81 289.954 710.504 296.026 727.787L296.508 729.642C287.985 744.22 258.833 757.809 243.611 749.006C242.827 748.541 242.054 748.06 241.297 747.557C240.708 745.021 240.502 744.756 241.281 742.393C236.165 735.195 230.06 721.914 228.973 713.046C228.249 707.152 227.973 701.252 226.372 695.477L226.129 694.617L226.653 694.055C246.353 703.967 270.351 698.43 288.077 686.76Z" fill="var(--fill-0, #F0F0F0)"/>
<path id="left-thigh_3" d="M296.023 727.787L296.505 729.642C287.982 744.22 258.831 757.809 243.608 749.006C242.824 748.541 242.051 748.06 241.294 747.557C240.705 745.021 240.499 744.756 241.278 742.393C243.749 746.27 244.441 747.438 248.34 749.855C267.931 750.801 284.5 743.717 296.023 727.787Z" fill="var(--fill-0, #F0F0F0)"/>
<path id="left-upper-thigh_3" d="M153.336 664.243C167.994 681.969 198.471 672.776 215.538 663.654C216.35 667.347 219.14 678.849 219.34 681.634C220.054 691.621 217.117 694.693 220.968 705.308C211.115 720.697 173.837 733.335 161.711 717.437C162.35 707.86 156.43 697.98 155.417 688.074C154.605 680.136 154.385 672.089 153.336 664.243Z" fill="var(--fill-0, #F0F0F0)"/>
<path id="left-upper-arm_3" d="M120.097 227.388C120.506 227.861 120.907 228.34 121.307 228.822C122.064 229.735 122.82 230.66 123.606 231.539C125.181 233.298 126.912 234.913 129.147 235.995L129.356 236.096L129.568 236.001L130.284 235.684C131.19 236.055 131.704 236.596 132.022 237.268C132.363 237.988 132.492 238.888 132.563 239.978L132.293 240.568L131.365 240.761L130.812 240.875L130.993 241.411L131.438 242.726L131.452 242.77L131.476 242.811C132.272 244.228 132.221 246.235 131.805 248.523C131.599 249.652 131.312 250.818 131.02 251.976C130.752 253.035 130.481 254.092 130.271 255.086L128.866 255.696L128.608 255.808L128.57 256.086L127.262 265.515L127.26 265.524L127.259 265.533C126.236 275.365 126.416 281.939 128.251 288.045C130.072 294.106 133.513 299.663 138.917 307.462C138.711 313.38 137.892 318.026 137.214 322.898C136.541 327.732 136.014 332.757 136.395 339.373C136.038 339.541 135.863 339.596 135.698 339.627C135.583 339.649 135.469 339.661 135.282 339.684C135.101 339.706 134.877 339.735 134.573 339.791C130.244 340.58 127.406 340.569 124.84 339.797C122.308 339.036 119.994 337.523 116.742 335.178C116.664 333.542 116.118 331.769 115.531 330.04C114.903 328.189 114.23 326.386 113.921 324.708C112.397 316.441 111.993 308.324 112.389 299.933C112.979 289.402 114.422 278.936 116.703 268.638C117.668 264.384 118.552 261.017 119.299 258.073C120.045 255.131 120.657 252.606 121.074 250.057C121.91 244.943 121.954 239.767 120.771 230.917L120.764 230.87L120.749 230.825L120.704 230.671C120.592 230.244 120.426 229.343 120.26 228.37C120.204 228.045 120.15 227.709 120.097 227.388Z" fill="var(--fill-0, #F0F0F0)" stroke="var(--stroke-0, #CCCCCC)"/>
<path id="left-upper-arm_4" d="M119.318 225.784C122.643 229.307 125.059 233.463 129.359 235.545L130.266 235.143C132.544 235.971 132.926 237.769 133.065 240.071L132.636 241.007L131.461 241.251C130.355 237.212 123.916 232.347 120.268 230.984C120.02 230.243 119.478 226.711 119.318 225.784Z" fill="var(--fill-0, #F0F0F0)"/>
<path id="left-upper-arm_5" d="M131.912 242.566C133.694 245.735 131.56 251.228 130.707 255.443L129.066 256.155C129.704 251.52 130.151 246.889 131.912 242.566Z" fill="var(--fill-0, #F0F0F0)"/>
<path id="left-shoulder_3" d="M162.932 162.685C154.002 169.458 145.202 181.538 138.871 194.682C132.264 208.399 128.291 223.386 129.724 234.836L129.375 234.991C127.407 233.993 125.835 232.533 124.348 230.871C123.577 230.01 122.837 229.105 122.072 228.184C121.349 227.312 120.605 226.43 119.811 225.578C118.941 208.561 120.949 193.573 127.741 182.463C134.313 171.713 145.41 164.52 162.932 162.685Z" fill="var(--fill-0, #F0F0F0)" stroke="var(--stroke-0, #CCCCCC)"/>
<path id="left-ankle" d="M245.949 896.279C254.666 902.492 261.955 903.622 272.435 902.481C275.485 902.152 280.616 898.464 283.196 898.669L283.461 899.567C282.947 906.515 284.266 915.043 283.612 920.061C283.661 921.267 283.672 922.57 283.828 923.749C282.947 924.728 283.277 924.577 282.179 925.15C280.07 924.209 265.924 926.999 263.794 927.902C263.183 928.162 262.588 928.454 262.014 928.784C254.298 924.944 246.76 925.431 239.492 920.835L240.098 918.72C241.79 914.162 244.543 901.735 245.949 896.279Z" fill="var(--fill-0, #F0F0F0)"/>
<path id="left-ankle_2" d="M240.098 918.72C249.702 924.955 275.014 929.189 283.612 920.061C283.661 921.267 283.672 922.57 283.828 923.749C282.947 924.728 283.277 924.577 282.179 925.15C280.07 924.209 265.924 926.999 263.794 927.902C263.183 928.162 262.588 928.454 262.014 928.784C254.298 924.944 246.76 925.431 239.492 920.835L240.098 918.72Z" fill="var(--fill-0, #F0F0F0)"/>
<path id="left-wrist_2" d="M71.1006 433.704C78.4464 438.543 92.0881 446.645 99.8525 450.574C94.6685 457.738 90.3018 463.507 86.208 471.462C85.5678 471.328 84.8251 471.032 83.9854 470.586C82.9985 470.062 81.9078 469.35 80.7334 468.506C78.3788 466.814 75.7449 464.639 72.9736 462.465C70.215 460.301 67.3329 458.149 64.5273 456.547C62.119 455.172 59.7213 454.177 57.4746 453.953C62.8691 447.816 67.5767 441.119 71.1006 433.704Z" fill="var(--fill-0, #F0F0F0)" stroke="var(--stroke-0, #CCCCCC)"/>
<path id="left-wrist_3" d="M339.118 496.244C344.656 496.144 350.339 497.202 355.104 498.735C355.275 506.316 355.843 516.265 355.729 523.738C351.943 520.909 346.769 519.591 341.523 519.401C336.188 519.208 330.711 520.179 326.421 521.979C326.393 515.62 324.947 506.912 324.013 500.698C328.174 497.615 333.551 496.345 339.118 496.244Z" fill="var(--fill-0, #F0F0F0)" stroke="var(--stroke-0, #CCCCCC)"/>
<path id="left-elbow_3" d="M112.1 329.335C113.114 331.74 113.882 333.517 115.419 335.992L115.697 336.44L116.13 336.137L116.247 336.054C119.447 338.359 121.866 339.948 124.552 340.755C127.333 341.592 130.351 341.578 134.752 340.775C135.029 340.724 135.233 340.698 135.402 340.677C135.566 340.657 135.728 340.64 135.886 340.61C136.084 340.572 136.274 340.513 136.514 340.414C137.215 345.317 138.121 349.871 138.961 354.436C139.793 358.956 140.558 363.497 141.003 368.441C133.648 365.086 126.352 360.104 119.271 355.965C116.578 354.392 113.476 352.692 110.637 350.72C107.891 348.813 105.445 346.683 103.893 344.233C107.055 338.918 109.504 334.849 112.1 329.335Z" fill="var(--fill-0, #F0F0F0)" stroke="var(--stroke-0, #CCCCCC)"/>
<path id="groin" d="M221.372 685.781C223.378 691.713 224.692 695.396 225.595 701.658C226.049 704.794 226.444 711.629 227.077 714.209L225.752 713.846C221.804 701.907 219.874 698.316 221.372 685.781Z" fill="var(--fill-0, #F0F0F0)"/>
<path id="neck_4" d="M194.137 152.259C195.852 152.319 196.157 152.027 197.094 153.714L196.679 155.2L194.847 154.652L192.467 154.793L190.731 154.501L190.326 153.809C191.714 152.459 192.23 152.546 194.137 152.259Z" fill="var(--fill-0, #F0F0F0)"/>
<path id="left-hip" d="M225.746 713.846L227.071 714.209C227.85 717.604 228.553 720.184 229.585 723.515L228.607 724.358C227.541 720.887 226.584 717.383 225.746 713.846Z" fill="var(--fill-0, #F0F0F0)"/>
</g>
<defs>
<linearGradient id="paint0_linear_0_268" x1="216.147" y1="303.177" x2="216.147" y2="534.441" gradientUnits="userSpaceOnUse">
<stop stop-color="#FF383C"/>
<stop offset="1" stop-color="#FF999B"/>
</linearGradient>
</defs>
</svg>
