<svg preserveAspectRatio="none" width="100%" height="100%" overflow="visible" style="display: block;" viewBox="0 0 64 64" fill="none" xmlns="http://www.w3.org/2000/svg">
<g id="Frame" clip-path="url(#clip0_867_633)">
<g id="Vector">
</g>
<path id="Vector_2" d="M37.3333 8V18.6667C37.3333 19.3739 37.6143 20.0522 38.1144 20.5523C38.6145 21.0524 39.2928 21.3333 40 21.3333H50.6667" stroke="url(#paint0_linear_867_633)" stroke-width="4" stroke-linecap="round" stroke-linejoin="round"/>
<path id="Vector_3" d="M32 56H18.6667C17.2522 56 15.8956 55.4381 14.8954 54.4379C13.8952 53.4377 13.3333 52.0812 13.3333 50.6667V13.3333C13.3333 11.9188 13.8952 10.5623 14.8954 9.5621C15.8956 8.5619 17.2522 8 18.6667 8H37.3333L50.6667 21.3333V30.6667" stroke="url(#paint1_linear_867_633)" stroke-width="4" stroke-linecap="round" stroke-linejoin="round"/>
<path id="Vector_4" d="M24 24H26.6667" stroke="url(#paint2_linear_867_633)" stroke-width="4" stroke-linecap="round" stroke-linejoin="round"/>
<path id="Vector_5" d="M24 34.6667H40" stroke="url(#paint3_linear_867_633)" stroke-width="4" stroke-linecap="round" stroke-linejoin="round"/>
<path id="Vector_6" d="M24 45.3333H32" stroke="url(#paint4_linear_867_633)" stroke-width="4" stroke-linecap="round" stroke-linejoin="round"/>
<path id="Vector_7" d="M54.0215 54.0215C52.375 55.6681 51.2142 57.7367 50.6667 60C50.1192 57.7367 48.9583 55.6681 47.3118 54.0215C45.6652 52.375 43.5966 51.2142 41.3333 50.6667C43.5966 50.1192 45.6652 48.9583 47.3118 47.3118C48.9583 45.6652 50.1192 43.5966 50.6667 41.3333C51.2142 43.5966 52.375 45.6652 54.0215 47.3118C55.6681 48.9583 57.7367 50.1192 60 50.6667C57.7367 51.2142 55.6681 52.375 54.0215 54.0215Z" fill="url(#paint5_linear_867_633)"/>
</g>
<defs>
<linearGradient id="paint0_linear_867_633" x1="44" y1="8" x2="44" y2="21.3333" gradientUnits="userSpaceOnUse">
<stop/>
<stop offset="1" stop-color="#707070"/>
</linearGradient>
<linearGradient id="paint1_linear_867_633" x1="32" y1="8" x2="32" y2="56" gradientUnits="userSpaceOnUse">
<stop/>
<stop offset="1" stop-color="#707070"/>
</linearGradient>
<linearGradient id="paint2_linear_867_633" x1="25.3333" y1="24" x2="25.3333" y2="25" gradientUnits="userSpaceOnUse">
<stop/>
<stop offset="1" stop-color="#707070"/>
</linearGradient>
<linearGradient id="paint3_linear_867_633" x1="32" y1="34.6667" x2="32" y2="35.6667" gradientUnits="userSpaceOnUse">
<stop/>
<stop offset="1" stop-color="#707070"/>
</linearGradient>
<linearGradient id="paint4_linear_867_633" x1="28" y1="45.3333" x2="28" y2="46.3333" gradientUnits="userSpaceOnUse">
<stop/>
<stop offset="1" stop-color="#707070"/>
</linearGradient>
<linearGradient id="paint5_linear_867_633" x1="50.6667" y1="41.3333" x2="50.6667" y2="60" gradientUnits="userSpaceOnUse">
<stop stop-color="#FFB8B9"/>
<stop offset="1" stop-color="#3485FF"/>
</linearGradient>
<clipPath id="clip0_867_633">
<rect width="64" height="64" fill="white"/>
</clipPath>
</defs>
</svg>
