<svg preserveAspectRatio="none" width="100%" height="100%" overflow="visible" style="display: block;" viewBox="0 0 64 64" fill="none" xmlns="http://www.w3.org/2000/svg">
<g id="Frame" clip-path="url(#clip0_0_17)">
<g id="Vector">
</g>
<path id="Vector_2" d="M50.3134 49.3134C48.1964 51.4304 46.7039 54.09 46 57C45.2961 54.09 43.8036 51.4304 41.6866 49.3134C39.5696 47.1964 36.91 45.7039 34 45C36.91 44.2961 39.5696 42.8036 41.6866 40.6866C43.8036 38.5696 45.2961 35.91 46 33C46.7039 35.91 48.1964 38.5696 50.3134 40.6866C52.4304 42.8036 55.09 44.2961 58 45C55.09 45.7039 52.4304 47.1964 50.3134 49.3134Z" fill="var(--fill-0, white)"/>
<g id="Frame_2" clip-path="url(#clip1_0_17)">
<g id="Vector_3">
</g>
<path id="Vector_4" d="M10.6667 10.6667H26.6667V26.6667H10.6667V10.6667Z" stroke="var(--stroke-0, white)" stroke-width="4" stroke-linecap="round" stroke-linejoin="round"/>
<path id="Vector_5" d="M37.3333 10.6667H53.3333V26.6667H37.3333V10.6667Z" stroke="var(--stroke-0, white)" stroke-width="4" stroke-linecap="round" stroke-linejoin="round"/>
<path id="Vector_6" d="M10.6667 37.3333H26.6667V53.3333H10.6667V37.3333Z" stroke="var(--stroke-0, white)" stroke-width="4" stroke-linecap="round" stroke-linejoin="round"/>
</g>
</g>
<defs>
<clipPath id="clip0_0_17">
<rect width="64" height="64" fill="white"/>
</clipPath>
<clipPath id="clip1_0_17">
<rect width="64" height="64" fill="white"/>
</clipPath>
</defs>
</svg>
