<svg preserveAspectRatio="none" width="100%" height="100%" overflow="visible" style="display: block;" viewBox="0 0 64 64" fill="none" xmlns="http://www.w3.org/2000/svg">
<g id="Frame 126">
<rect width="64" height="64" rx="32" fill="var(--fill-0, black)" fill-opacity="0.05"/>
<g id="OPD">
<path d="M17.4414 40C16.3277 40 15.3153 39.8075 14.4041 39.4225C13.4929 39.0232 12.7047 38.467 12.0393 37.754C11.3885 37.041 10.8823 36.1996 10.5207 35.2299C10.1736 34.2603 10 33.1836 10 32C10 30.8164 10.1736 29.7398 10.5207 28.7701C10.8823 27.8004 11.3885 26.959 12.0393 26.246C12.7047 25.5187 13.4929 24.9626 14.4041 24.5775C15.3153 24.1925 16.3277 24 17.4414 24C18.5406 24 19.5386 24.1925 20.4353 24.5775C21.3465 24.9626 22.1348 25.5116 22.8001 26.2246C23.4654 26.9376 23.9716 27.7861 24.3188 28.7701C24.6803 29.7398 24.8611 30.8164 24.8611 32C24.8611 33.1836 24.6803 34.2674 24.3188 35.2513C23.9716 36.221 23.4654 37.0624 22.8001 37.7754C22.1348 38.4742 21.3465 39.0232 20.4353 39.4225C19.5386 39.8075 18.5406 40 17.4414 40ZM17.4414 37.7754C18.4105 37.7754 19.271 37.5544 20.0231 37.1123C20.7752 36.656 21.3682 36 21.8021 35.1444C22.2505 34.2745 22.4747 33.2264 22.4747 32C22.4747 30.7594 22.2505 29.7112 21.8021 28.8556C21.3682 28 20.7752 27.3512 20.0231 26.9091C19.271 26.4528 18.4105 26.2246 17.4414 26.2246C16.4724 26.2246 15.6046 26.4528 14.838 26.9091C14.0859 27.3512 13.4929 28 13.059 28.8556C12.6251 29.7112 12.4082 30.7594 12.4082 32C12.4082 33.2264 12.6251 34.2745 13.059 35.1444C13.4929 36 14.0859 36.656 14.838 37.1123C15.6046 37.5544 16.4724 37.7754 17.4414 37.7754Z" fill="var(--fill-0, black)"/>
<path d="M28.7934 39.6578C28.2411 39.6578 27.7934 39.21 27.7934 38.6578V25.3422C27.7934 24.79 28.2411 24.3422 28.7934 24.3422H33.6076C34.5912 24.3422 35.4734 24.5134 36.2544 24.8556C37.0355 25.1979 37.6502 25.7255 38.0985 26.4385C38.5614 27.1373 38.7928 28.0357 38.7928 29.1337C38.7928 30.2317 38.5614 31.1373 38.0985 31.8503C37.6502 32.5633 37.0355 33.0909 36.2544 33.4332C35.4734 33.7754 34.5912 33.9465 33.6076 33.9465H30.1168C29.5645 33.9465 29.1168 33.4988 29.1168 32.9465V32.7219C29.1168 32.1696 29.5645 31.7219 30.1168 31.7219H33.6727C34.2513 31.7219 34.743 31.6292 35.148 31.4439C35.5674 31.2442 35.8856 30.9519 36.1026 30.5668C36.334 30.1676 36.4497 29.6898 36.4497 29.1337C36.4497 28.5633 36.334 28.0927 36.1026 27.7219C35.8856 27.3369 35.5674 27.0517 35.148 26.8663C34.743 26.6667 34.2513 26.5668 33.6727 26.5668H31.1581C30.6058 26.5668 30.1581 27.0146 30.1581 27.5668V38.6578C30.1581 39.21 29.7104 39.6578 29.1581 39.6578H28.7934Z" fill="var(--fill-0, black)"/>
<path d="M42.3952 39.6578C41.8429 39.6578 41.3952 39.21 41.3952 38.6578V25.3422C41.3952 24.79 41.8429 24.3422 42.3952 24.3422H46.5586C48.164 24.3422 49.5164 24.6488 50.6156 25.262C51.7148 25.861 52.5537 26.7308 53.1322 27.8717C53.7107 28.9982 54 30.3743 54 32C54 33.6114 53.7107 34.9875 53.1322 36.1283C52.5537 37.2692 51.7148 38.1462 50.6156 38.7594C49.5164 39.3583 48.164 39.6578 46.5586 39.6578H42.3952ZM43.7599 36.4332C43.7599 36.9854 44.2076 37.4332 44.7599 37.4332H46.4935C47.5783 37.4332 48.4967 37.2406 49.2488 36.8556C50.0153 36.4706 50.6011 35.8788 51.0061 35.0802C51.4111 34.2816 51.6135 33.2549 51.6135 32C51.6135 30.7451 51.4111 29.7184 51.0061 28.9198C50.6011 28.107 50.0153 27.5152 49.2488 27.1444C48.4967 26.7594 47.5783 26.5668 46.4935 26.5668H44.7599C44.2076 26.5668 43.7599 27.0146 43.7599 27.5668V36.4332Z" fill="var(--fill-0, black)"/>
</g>
</g>
</svg>
