<svg preserveAspectRatio="none" width="100%" height="100%" overflow="visible" style="display: block;" viewBox="0 0 24 24" fill="none" xmlns="http://www.w3.org/2000/svg">
<g id="Frame" clip-path="url(#clip0_806_3909)">
<g id="Vector">
</g>
<path id="Vector_2" d="M11.5 21H5C4.46957 21 3.96086 20.7893 3.58579 20.4142C3.21071 20.0391 3 19.5304 3 19V5C3 4.46957 3.21071 3.96086 3.58579 3.58579C3.96086 3.21071 4.46957 3 5 3H19C19.5304 3 20.0391 3.21071 20.4142 3.58579C20.7893 3.96086 21 4.46957 21 5V11" stroke="var(--stroke-0, black)" stroke-width="2" stroke-linecap="round" stroke-linejoin="round"/>
<path id="Vector_3" d="M3 10H21" stroke="var(--stroke-0, black)" stroke-width="2" stroke-linecap="round" stroke-linejoin="round"/>
<path id="Vector_4" d="M10 3V21" stroke="var(--stroke-0, black)" stroke-width="2" stroke-linecap="round" stroke-linejoin="round"/>
<path id="Vector_5" d="M18 22L21.35 18.716C21.5554 18.5167 21.7188 18.2782 21.8306 18.0146C21.9423 17.7511 22.0001 17.4678 22.0006 17.1816C22.0011 16.8953 21.9442 16.6119 21.8333 16.3479C21.7224 16.084 21.5598 15.845 21.355 15.645C20.9371 15.2363 20.3762 15.007 19.7917 15.0059C19.2072 15.0048 18.6454 15.2319 18.226 15.639L18.002 15.859L17.779 15.639C17.3612 15.2306 16.8005 15.0015 16.2162 15.0004C15.632 14.9993 15.0704 15.2262 14.651 15.633C14.4455 15.8323 14.282 16.0707 14.1702 16.3342C14.0583 16.5977 14.0004 16.881 13.9999 17.1672C13.9993 17.4535 14.0561 17.737 14.1669 18.0009C14.2777 18.2648 14.4403 18.5039 14.645 18.704L18 22Z" stroke="var(--stroke-0, black)" stroke-width="2" stroke-linecap="round" stroke-linejoin="round"/>
</g>
<defs>
<clipPath id="clip0_806_3909">
<rect width="24" height="24" fill="white"/>
</clipPath>
</defs>
</svg>
