<svg preserveAspectRatio="none" width="100%" height="100%" overflow="visible" style="display: block;" viewBox="0 0 302 214" fill="none" xmlns="http://www.w3.org/2000/svg">
<g id="image 21 [Vectorized]" clip-path="url(#clip0_911_10792)">
<path id="Vector" d="M36.5347 95.9138C36.5173 95.5406 36.5037 95.1671 36.4937 94.7935C36.0508 77.6197 60.5817 71.1793 74.2166 70.6171C87.3087 70.0775 102.372 72.825 112.481 81.8751C114.77 83.9248 117.799 88.5066 117.861 91.6842C118.14 93.4789 118.012 98.2925 118.002 100.391C117.972 106.822 117.974 113.508 117.833 119.931C116.941 120.53 117.023 121.558 116.541 122.217L116.045 121.977C115.435 122.397 115.614 122.274 115.322 123.081L115.624 123.415C115.067 124.668 113.754 126.014 113.685 126.687C110.538 130.76 103.356 134.493 98.548 136.126C97.5598 136.462 95.085 137.18 94.3993 137.492L94.3983 137.73L93.3423 138.023C91.763 141.561 100.944 149.234 97.6371 153.204C101.918 152.301 108 148.311 111.434 145.607L111.812 145.688C112.384 145.25 112.638 145.044 113.141 144.525L113.384 144.833C113.029 145.709 112.241 146.258 112.194 146.825L112.349 146.993C111.629 147.878 110.895 148.752 110.147 149.614C112.239 149.31 114.242 144.099 115.595 142.701L116.024 142.743L116.21 143.181C116.093 143.804 114.718 145.942 114.262 146.804L114.374 147.137C114.643 146.66 116.797 142.853 116.911 142.778L117.469 142.721C117.876 146.608 117.55 155.333 117.313 159.433C117.234 160.793 114.836 163.901 115.033 164.909C115.584 164.606 117.171 161.183 117.496 160.486C117.968 156.833 117.65 153.133 118.009 149.386C124.26 144.908 132.079 140.602 138.492 136.281C141.071 134.544 149.324 129.93 150.832 127.979C148.904 125.869 143.222 123.365 140.303 119.917C138.073 117.462 137.084 114.437 137.391 111.157C138.208 102.434 148.581 99.2066 154.254 94.4066C155.603 94.9926 157.017 95.979 158.268 96.7922C158.781 97.0823 159.252 97.3044 159.634 97.7577C160.497 98.2618 161.359 98.7491 162.179 99.3201C163.678 100.045 164.029 100.153 165.629 100.569C162.247 103.13 153.626 108.112 151.131 110.59C150.302 112.654 151.262 113.88 153.019 114.888C155.305 116.198 162.829 122.33 165.207 120.778C169.503 117.974 177.224 114.213 180.917 111.033C181.883 111.381 182.775 111.904 183.55 112.576L184.697 113.273L185.429 113.72C186.265 113.917 186.37 113.951 186.991 114.539L187.524 115.112C188.16 115.474 189.802 116.393 190.182 116.93C190.935 117.408 191.627 117.836 192.333 118.389C188.872 121.493 179.85 125.798 176.149 128.856C176.955 130.52 192.531 140.09 194.562 140.797C197.652 141.862 201.04 141.646 203.97 140.195C206.051 139.187 212.031 135.057 214.54 133.522C215.965 134.354 217.074 135.106 218.432 136.05C218.829 136.258 219.431 136.523 219.715 136.839C220.935 137.648 222.27 138.498 223.443 139.355C223.925 139.737 224.439 140.107 224.84 140.568C221.909 142.748 218.863 144.717 215.792 146.688C208.724 151.223 203.328 154.225 194.579 152.911C189.124 152.091 185.229 149.66 180.691 146.753C177.49 144.702 167.764 137.63 164.575 137.271C163.569 137.158 162.845 137.504 161.97 137.954C157.759 140.12 152.619 143.814 148.492 146.404C142.557 150.128 136.283 153.641 130.559 157.668C130.448 157.746 130.347 157.83 130.244 157.917C134.638 160.905 136.122 161.38 136.25 167.064C136.269 167.721 136.274 168.379 136.262 169.037C136.154 174.881 131.737 176.258 127.274 179.006L114.194 187.081L95.0436 198.951C88.4743 203.007 81.5886 208.35 73.5328 205.948C67.0994 204.031 59.0229 198.132 53.198 194.475L31.7939 180.949C28.5294 178.879 23.8696 176.299 21.0777 173.755C19.495 172.314 19.6707 169.007 19.8557 166.977L19.8366 166.582C19.7645 159.721 24.1671 159.447 29.129 155.943C31.3599 154.368 34.0747 152.913 36.4296 151.491C36.729 150.357 36.4218 144.529 36.3663 143.087C36.2982 141.816 36.373 140.516 36.4198 139.242C36.4937 138.294 36.5131 137.351 36.4482 136.403C36.0399 130.441 36.2547 124.545 36.3832 118.572C36.3696 116.814 36.4498 115.101 36.444 113.337C36.4262 108.058 35.9185 101.081 36.5347 95.9138Z" fill="var(--fill-0, #2F4267)"/>
<path id="Vector_2" d="M36.5346 95.9138C36.5173 95.5406 36.5037 95.1671 36.4937 94.7935C36.0507 77.6197 60.5817 71.1793 74.2165 70.6171C87.3086 70.0775 102.372 72.825 112.481 81.8751C114.77 83.9248 117.799 88.5066 117.861 91.6842C118.14 93.4789 118.012 98.2925 118.002 100.391C117.972 106.822 117.974 113.508 117.832 119.931C116.941 120.53 117.023 121.558 116.541 122.217L116.044 121.977C115.435 122.397 115.614 122.274 115.322 123.081L115.623 123.415C115.066 124.668 113.754 126.014 113.685 126.687C110.538 130.76 103.356 134.493 98.5479 136.126C97.5597 136.462 95.085 137.18 94.3992 137.492C91.6023 137.723 88.0925 138.88 84.9565 139.263C69.1649 141.191 41.022 136.601 36.3831 118.572C36.3695 116.814 36.4498 115.101 36.4439 113.337C36.4262 108.058 35.9185 101.081 36.5346 95.9138Z" fill="var(--fill-0, white)"/>
<path id="Vector_3" d="M117.861 91.6841C118.14 93.4789 118.012 98.2924 118.002 100.391C117.972 106.822 117.974 113.508 117.832 119.931C116.941 120.53 117.023 121.558 116.541 122.217L116.044 121.977C115.435 122.397 115.614 122.274 115.322 123.081L115.623 123.415C115.066 124.668 113.754 126.014 113.685 126.687C110.538 130.76 103.356 134.493 98.5479 136.126C97.5597 136.462 95.085 137.18 94.3992 137.492C91.6023 137.723 88.0925 138.88 84.9565 139.263C69.1649 141.191 41.022 136.601 36.3831 118.572C36.3695 116.813 36.4498 115.101 36.4439 113.337C36.4262 108.058 35.9185 101.081 36.5346 95.9138C38.8848 102.874 44.5529 107.825 51.0056 110.912C63.1187 116.708 74.4476 116.769 87.4083 115.773C89.3871 115.173 91.6353 115.036 93.841 114.41C103.32 111.715 115.561 106.141 117.781 95.4325C117.931 94.7109 117.861 92.5255 117.861 91.6841Z" fill="var(--fill-0, #ECECEC)"/>
<path id="Vector_4" d="M117.862 91.6841C118.14 93.4789 118.012 98.2924 118.002 100.391C117.972 106.822 117.974 113.508 117.833 119.931C116.941 120.53 117.023 121.558 116.541 122.217L116.045 121.977C115.435 122.397 115.614 122.274 115.323 123.081C113.966 125.512 107.625 132.37 104.702 131.606L104.302 131.303L104.276 130.979C104.92 130.719 105.116 130.757 105.515 130.273L105.452 130.099C107.099 128.909 108.343 128.164 109.778 126.706L109.54 126.666C109.544 126.221 112.395 123.719 112.997 122.437C111.416 122.205 110.638 124.319 108.689 125.233L108.302 125.078C101.252 128.959 97.616 130.912 89.43 132.325L88.6697 132.085C88.4486 131.538 89.7839 130.65 89.7766 129.935C89.7478 127.128 82.4668 117.225 80.4297 116.837C80.8184 116.027 85.991 116.77 87.4086 115.773C89.3873 115.173 91.6356 115.036 93.8413 114.41C103.321 111.715 115.561 106.141 117.782 95.4325C117.931 94.7109 117.861 92.5255 117.862 91.6841Z" fill="var(--fill-0, #DCDCDC)"/>
<path id="Vector_5" d="M108.303 125.078C109.768 123.972 114.308 119.799 115.041 119.408L114.899 119.501C114.491 121.394 111.267 125.41 109.779 126.706L109.541 126.666C109.544 126.221 112.396 123.719 112.997 122.437C111.417 122.205 110.638 124.319 108.689 125.233L108.303 125.078Z" fill="var(--fill-0, #21283B)"/>
<path id="Vector_6" d="M106.399 114.65C110.615 115.63 109.144 121.097 105.072 121.668C103.73 121.033 102.679 120.439 102.315 118.87C102.139 118.112 102.286 117.315 102.72 116.67C103.546 115.432 104.999 114.909 106.399 114.65Z" fill="var(--fill-0, #2384FE)"/>
<path id="Vector_7" d="M106.11 115.581C106.686 115.8 107.48 115.961 107.719 116.562C108.824 119.339 105.562 123.045 103.572 118.889C103.894 117.052 104.398 116.332 106.11 115.581Z" fill="var(--fill-0, #63D2FE)"/>
<path id="Vector_8" d="M103.572 118.889C103.894 117.052 104.398 116.332 106.11 115.581C105.853 116.832 105.113 117.932 104.051 118.641C103.89 118.748 103.749 118.817 103.572 118.889Z" fill="var(--fill-0, #B3EDFE)"/>
<path id="Vector_9" d="M40.5544 120.118C49.9702 129.932 63.4898 132.945 76.655 133.346C80.6857 133.469 85.4026 132.844 89.4306 132.325C97.6166 130.912 101.253 128.959 108.303 125.078L108.689 125.233C110.638 124.319 111.417 122.205 112.997 122.437C112.396 123.719 109.544 126.221 109.541 126.666L109.779 126.706C108.344 128.164 107.099 128.909 105.453 130.099C102.803 131.364 100.1 132.869 97.321 133.811C85.2672 137.868 71.7648 138.336 59.5669 134.579C51.2455 132.016 44.3371 128.42 40.0547 120.652L40.5544 120.118Z" fill="var(--fill-0, #1A418C)"/>
<path id="Vector_10" d="M40.0547 120.652C39.5692 119.934 39.4495 120.005 39.4336 119.273C40.0384 119.381 40.0508 119.586 40.5545 120.118L40.0547 120.652Z" fill="var(--fill-0, #3255AA)"/>
<path id="Vector_11" d="M36.3834 118.572C41.0223 136.601 69.1652 141.191 84.9568 139.263C88.0929 138.88 91.6026 137.723 94.3996 137.492L94.3985 137.73L93.3426 138.023C91.7633 141.561 100.945 149.234 97.6373 153.204C101.918 152.301 108 148.311 111.434 145.607L111.812 145.688C112.384 145.25 112.638 145.044 113.142 144.525L113.384 144.833C113.029 145.709 112.241 146.258 112.194 146.825L112.349 146.993C111.629 147.878 110.896 148.752 110.148 149.614C112.239 149.31 114.242 144.099 115.595 142.701L116.024 142.743L116.211 143.181C116.093 143.804 114.718 145.942 114.262 146.804L114.375 147.137L113.539 148.689C113.942 148.912 113.791 148.752 113.972 149.214C107.655 157.38 94.1821 161.151 84.3033 162.41C78.974 163.053 73.5817 162.957 68.2785 162.125C67.4651 161.678 62.7933 161.24 61.4856 160.893C51.3221 158.194 41.8035 153.856 37.0717 143.965C37.0136 143.92 36.4545 143.199 36.3665 143.087C36.2984 141.816 36.3732 140.516 36.42 139.241C36.494 138.294 36.5134 137.351 36.4484 136.403C36.0402 130.441 36.255 124.545 36.3834 118.572Z" fill="var(--fill-0, #ECECEC)"/>
<path id="Vector_12" d="M36.4207 139.242C37.2127 139.067 36.9182 139.012 37.5399 139.395C38.0282 140.06 38.3286 141.477 38.4241 142.295C38.7634 142.401 39.1414 142.539 39.4888 142.561L39.6998 142.337C42.1811 144.2 43.4658 146.158 46.6501 148.195C58.7092 155.908 73.4934 157.414 87.4465 155.719C89.6524 155.451 95.5464 154.036 97.638 153.204C101.919 152.301 108.001 148.311 111.435 145.607L111.813 145.688C112.385 145.25 112.639 145.044 113.142 144.525L113.385 144.833C113.03 145.709 112.242 146.258 112.195 146.825L112.35 146.993C111.63 147.878 110.896 148.752 110.148 149.614C112.24 149.31 114.243 144.099 115.596 142.701L116.025 142.743L116.211 143.181C116.094 143.804 114.719 145.942 114.262 146.804L114.375 147.137L113.54 148.689C113.943 148.912 113.792 148.752 113.972 149.214C107.656 157.381 94.1828 161.151 84.304 162.41C78.9746 163.053 73.5824 162.957 68.2792 162.125C67.4658 161.678 62.794 161.24 61.4863 160.893C51.3227 158.195 41.8042 153.856 37.0723 143.965C37.0143 143.92 36.4552 143.199 36.3672 143.087C36.2991 141.816 36.3739 140.516 36.4207 139.242Z" fill="var(--fill-0, #1A418C)"/>
<path id="Vector_13" d="M36.4207 139.242C37.2127 139.067 36.9182 139.012 37.5399 139.395C38.0282 140.06 38.3286 141.477 38.4241 142.295C38.7634 142.401 39.1414 142.539 39.4888 142.561C40.4328 144.077 41.4101 146.205 42.5041 147.499C47.1663 153.017 55.6567 156.817 62.496 158.408C68.2305 159.767 74.1139 160.393 80.0059 160.273C83.6628 159.846 87.3096 159.335 90.9435 158.742C91.269 158.569 93.2695 158.068 93.7488 157.935C99.9032 156.23 105.222 153.762 110.148 149.614C112.24 149.31 114.243 144.099 115.596 142.701L116.025 142.743L116.211 143.181C116.094 143.804 114.719 145.942 114.262 146.804L114.375 147.137L113.54 148.689C113.943 148.912 113.792 148.752 113.972 149.214C107.656 157.381 94.1828 161.151 84.304 162.41C78.9746 163.053 73.5824 162.957 68.2792 162.125C67.4658 161.678 62.794 161.24 61.4863 160.893C51.3227 158.195 41.8042 153.856 37.0723 143.965C37.0143 143.92 36.4552 143.199 36.3672 143.087C36.2991 141.816 36.3739 140.516 36.4207 139.242Z" fill="var(--fill-0, #D8D7DF)"/>
<path id="Vector_14" d="M110.149 149.614C112.24 149.31 114.243 144.099 115.596 142.701L116.025 142.743L116.212 143.181C116.094 143.804 114.719 145.942 114.263 146.804L114.376 147.137L113.54 148.689C110.099 153.142 99.9628 158.485 94.464 159.381C93.7505 159.019 92.0045 159.739 91.2089 159.933C90.4612 160.115 89.6672 160.129 88.9023 160.182C88.9682 159.218 90.3011 159.16 91.1019 158.996L90.9438 158.742C91.2693 158.569 93.2698 158.068 93.7491 157.935C99.9035 156.23 105.222 153.762 110.149 149.614Z" fill="var(--fill-0, #8692AF)"/>
<path id="Vector_15" d="M80.0059 160.273C83.6627 159.846 87.3096 159.335 90.9435 158.742L91.1016 158.996C90.3008 159.16 88.9678 159.218 88.902 160.182C89.6669 160.129 90.4609 160.115 91.2086 159.933C92.0042 159.739 93.7502 159.019 94.4637 159.381C91.7723 160.494 85.7819 161.421 82.7616 160.976C82.0112 160.865 81.2051 160.42 80.0059 160.273Z" fill="var(--fill-0, #B1B2BD)"/>
<path id="Vector_16" d="M36.4207 139.242C37.2127 139.067 36.9182 139.012 37.5399 139.395C38.0282 140.06 38.3286 141.477 38.4241 142.295C38.2258 142.736 38.2365 142.533 38.4289 143.045L38.5664 143.041C38.8211 143.616 40.5654 147.069 40.5525 147.196C39.4915 146.393 39.0039 143.626 37.8316 143.234C37.2558 143.427 37.4643 143.287 37.0723 143.965C37.0143 143.92 36.4552 143.199 36.3672 143.087C36.2991 141.816 36.3739 140.516 36.4207 139.242Z" fill="var(--fill-0, #D9D8D8)"/>
<path id="Vector_17" d="M116.912 142.778L117.47 142.721C117.877 146.608 117.551 155.333 117.314 159.433C117.235 160.793 114.837 163.901 115.034 164.909C113.297 167.807 111.064 169.234 108.399 171.244C97.9601 177.713 85.9204 180.166 73.7478 179.549C72.0918 179.465 67.551 179.252 66.069 178.57L66.2959 178.439C65.8494 177.794 62.2053 177.971 61.1043 177.254C60.3224 176.404 60.2934 175.229 59.7596 174.314C58.3713 171.932 55.8612 162.322 57.7046 160.353C59.0104 160.067 66.9421 163.02 68.2793 162.125C73.5825 162.957 78.9747 163.053 84.3041 162.41C94.1829 161.151 107.656 157.381 113.972 149.214C113.792 148.752 113.943 148.912 113.54 148.689L114.375 147.137C114.644 146.66 116.799 142.853 116.912 142.778Z" fill="var(--fill-0, #DCDCDC)"/>
<path id="Vector_18" d="M114.375 147.137C114.643 146.66 116.798 142.853 116.911 142.778C117.062 145.557 115.713 147.23 113.972 149.214C113.791 148.752 113.942 148.912 113.539 148.689L114.375 147.137Z" fill="var(--fill-0, #B1B2BD)"/>
<path id="Vector_19" d="M104.892 161.06C105.201 161.068 106.718 161.078 106.881 161.151C109.738 162.447 109.227 164.79 107.11 166.205L107.035 166.296C104.929 169.672 99.8143 165.251 104.892 161.06Z" fill="var(--fill-0, #2384FE)"/>
<path id="Vector_20" d="M106.785 161.9C108.551 163.191 108.15 164.494 107.109 166.205L107.034 166.296L106.932 166.342C104.758 167.297 104.246 166.925 103.496 164.694C104.577 164.308 106.291 162.96 106.785 161.9Z" fill="var(--fill-0, #63D2FE)"/>
<path id="Vector_21" d="M103.496 164.694C103.872 163.052 104.962 161.554 106.785 161.9C106.291 162.96 104.577 164.308 103.496 164.694Z" fill="var(--fill-0, #B3EDFE)"/>
<path id="Vector_22" d="M19.8557 166.977L19.9989 167.08C21.399 168.097 21.9358 169.087 24.024 170.462C27.9368 173.038 31.8766 175.454 35.835 177.948C42.7898 182.382 49.7678 186.779 56.7686 191.14C61.0861 193.84 66.8266 197.8 71.4435 199.909C74.7433 201.416 81.307 201.027 84.6342 199.31C85.0767 199.323 85.7587 199.022 86.1341 198.795C101.888 189.279 117.452 179.425 133.198 169.889C134.36 169.185 135.008 167.93 136.118 167.154L136.25 167.064C136.269 167.721 136.274 168.379 136.262 169.037C136.154 174.881 131.737 176.258 127.274 179.006L114.194 187.081L95.0437 198.951C88.4743 203.007 81.5887 208.35 73.5328 205.948C67.0995 204.031 59.0229 198.132 53.198 194.475L31.7939 180.949C28.5294 178.879 23.8696 176.299 21.0777 173.755C19.495 172.314 19.6707 169.007 19.8557 166.977Z" fill="var(--fill-0, #21283B)"/>
<path id="Vector_23" d="M36.3672 143.087C36.4551 143.199 37.0142 143.92 37.0723 143.965C41.8041 153.856 51.3227 158.194 61.4863 160.893C62.7939 161.24 67.4658 161.678 68.2792 162.125C66.942 163.02 59.0102 160.067 57.7044 160.353C55.8611 162.322 58.3711 171.932 59.7595 174.314C60.2933 175.229 60.3223 176.404 61.1041 177.254C62.2052 177.971 65.8493 177.794 66.2958 178.439L66.0689 178.57C55.546 176.94 38.0965 170.651 36.6062 157.657C36.3912 155.781 36.5744 153.479 36.4305 151.491C36.7299 150.357 36.4228 144.529 36.3672 143.087Z" fill="var(--fill-0, #ECECEC)"/>
<path id="Vector_24" d="M185.429 113.72C186.265 113.917 186.37 113.951 186.991 114.539L187.524 115.112C188.16 115.474 189.802 116.393 190.182 116.93C190.935 117.408 191.627 117.836 192.333 118.389C188.872 121.493 179.85 125.798 176.149 128.856C176.955 130.52 192.531 140.09 194.562 140.797C197.652 141.862 201.04 141.646 203.97 140.195C206.051 139.187 212.031 135.057 214.54 133.522C215.965 134.354 217.074 135.106 218.432 136.05C209.885 141.037 204.036 147.437 193.307 144.627C192.725 144.475 191.544 144.104 191.021 143.859C189.577 143.417 184.868 140.198 183.401 139.279C178.702 136.339 173.988 133.11 169.202 130.311C168.765 129.886 167.236 129.436 166.576 129.203C168.403 128.004 168.562 127.767 169.18 125.683C172.653 123.678 176.01 121.456 179.443 119.38C180.17 118.94 181.65 118.154 182.216 117.602C182.708 116.871 183.358 116.635 183.485 115.923C182.719 115.797 182.09 116.133 181.312 116.301C181.93 115.707 184.631 114.177 185.429 113.72Z" fill="var(--fill-0, #294578)"/>
<path id="Vector_25" d="M185.429 113.72C186.265 113.917 186.371 113.951 186.991 114.539C185.775 115.466 183.575 116.998 182.217 117.602C182.708 116.871 183.358 116.635 183.485 115.923C182.719 115.797 182.091 116.133 181.312 116.301C181.93 115.707 184.631 114.177 185.429 113.72Z" fill="var(--fill-0, #36AAFE)"/>
<path id="Vector_26" d="M190.182 116.93C190.935 117.408 191.628 117.836 192.334 118.389C188.872 121.493 179.851 125.798 176.149 128.856C175.682 128.205 175.513 127.331 176.2 126.84C179.787 124.274 183.961 122.04 187.733 119.674C188.726 119.051 189.11 118.26 189.975 117.874L190.238 118.09L190.227 118.589L189.855 118.807L190.401 119.188C191.167 119.149 191.478 118.917 191.678 118.218C191.103 117.919 190.629 117.613 190.083 117.266L190.182 116.93Z" fill="var(--fill-0, #21283B)"/>
<path id="Vector_27" d="M158.268 96.7922C158.781 97.0822 159.252 97.3044 159.635 97.7577C160.497 98.2617 161.359 98.7491 162.179 99.32C163.678 100.045 164.029 100.153 165.629 100.569C162.247 103.13 153.627 108.112 151.131 110.59C150.303 112.654 151.262 113.88 153.019 114.887C155.306 116.198 162.829 122.33 165.207 120.778C169.503 117.974 177.224 114.213 180.918 111.033C181.883 111.381 182.775 111.904 183.55 112.576L184.697 113.273L185.429 113.72C184.631 114.177 181.93 115.707 181.312 116.301C180.497 116.699 180.186 116.893 179.441 117.415L166.715 125.147C164.946 126.207 160.784 128.535 159.432 129.639C159.519 128.526 159.688 127.847 159.175 126.799C159.119 126.177 159.476 125.767 159.506 125.184C159.59 123.595 148.385 117.378 146.699 115.406C147.242 114.497 147.288 114.436 147.186 113.405C145.707 111.948 145.883 110.466 145.787 108.45C147.984 105.134 152.386 102.763 155.765 100.516C155.317 99.9196 155.248 99.8116 154.967 99.1232C156.121 98.369 157.158 97.607 158.268 96.7922Z" fill="var(--fill-0, #294578)"/>
<path id="Vector_28" d="M151.132 110.589C149.801 107.65 159.607 103.458 161.164 101.564C161.742 100.861 161.639 100.156 162.18 99.32C163.679 100.045 164.03 100.153 165.63 100.569C162.248 103.13 153.627 108.112 151.132 110.589Z" fill="var(--fill-0, #21283B)"/>
<path id="Vector_29" d="M183.55 112.576L184.697 113.273L185.429 113.72C184.631 114.177 181.93 115.707 181.312 116.301C180.497 116.699 180.186 116.893 179.441 117.415C178.865 117.417 177.873 117.121 177.236 116.983C177.757 116.757 179.511 115.662 180.113 115.305C181.335 114.132 182.311 113.636 183.55 112.576Z" fill="var(--fill-0, #1A418C)"/>
<path id="Vector_30" d="M158.267 96.7922C158.781 97.0822 159.252 97.3044 159.634 97.7577C158.418 98.7092 157.041 99.6302 155.764 100.516C155.316 99.9196 155.247 99.8116 154.967 99.1232C156.12 98.369 157.157 97.607 158.267 96.7922Z" fill="var(--fill-0, #36AAFE)"/>
<path id="Vector_31" d="M117.496 160.486L117.789 160.408C117.84 161.461 116.492 163.071 116.181 163.907C116.047 164.267 116.463 166.165 116.437 166.973C116.096 169.332 113.036 174.812 111.448 176.361C103.82 183.801 90.1174 186.564 79.9319 187.011C71.7415 187.371 64.2654 184.432 57.1806 180.953C55.4298 180.094 48.0897 177.299 47.4611 175.595C48.9616 176.16 50.3871 177.534 51.8736 178.259C67.0627 185.673 88.9858 185.382 103.836 177.339C105.495 176.44 112.611 170.714 112.284 168.958C111.542 168.977 109.217 171.596 108.425 171.509L108.398 171.244C111.063 169.234 113.297 167.807 115.033 164.909C115.584 164.606 117.171 161.183 117.496 160.486Z" fill="var(--fill-0, #21283B)"/>
<path id="Vector_32" d="M162.165 135.445C163.736 135.368 164.877 135.36 166.448 135.42C171.134 138.379 179.507 144.36 184.056 146.601C185.478 147.561 187.651 149.093 189.355 149.408C195.017 152.438 205.119 151.084 210.422 147.917C212.559 146.64 215.137 145.185 217.174 143.761C218.597 142.766 223.045 140.656 223.442 139.355C223.925 139.737 224.439 140.107 224.84 140.568C221.909 142.748 218.862 144.717 215.791 146.688C208.724 151.223 203.328 154.225 194.579 152.911C189.123 152.091 185.229 149.66 180.691 146.753C177.49 144.702 167.764 137.63 164.575 137.271C163.568 137.158 162.845 137.504 161.97 137.954C157.758 140.12 152.619 143.814 148.492 146.404C142.557 150.128 136.283 153.641 130.558 157.668C130.448 157.746 130.347 157.83 130.244 157.917C129.936 157.855 128.622 157.109 128.26 156.913C130.826 154.885 134.399 153.118 137.187 151.28C145.349 145.901 154.109 140.944 162.165 135.445Z" fill="var(--fill-0, #21283B)"/>
<path id="Vector_33" d="M161.641 130.136C163.482 129.274 167.312 126.822 169.181 125.683C168.563 127.767 168.403 128.004 166.577 129.203C167.237 129.436 168.766 129.886 169.203 130.311C168.547 130.719 168.29 130.886 167.571 131.163C167.104 131.124 165.615 130.08 165.173 130.08C163.59 130.079 163.332 130.527 161.641 130.136Z" fill="var(--fill-0, #3255AA)"/>
<g id="Vector_34">
<path d="M181.313 116.301C182.091 116.133 182.72 115.797 183.485 115.923C183.359 116.635 182.709 116.871 182.217 117.602C181.65 118.154 180.17 118.94 179.444 119.38C176.011 121.456 172.653 123.678 169.181 125.683C168.563 127.767 168.403 128.004 166.577 129.203C167.237 129.436 168.766 129.886 169.203 130.311C168.547 130.719 168.29 130.886 167.571 131.163C167.104 131.124 165.615 130.08 165.173 130.08C163.59 130.079 163.332 130.527 161.641 130.136C157.469 132.566 153.16 135.405 148.999 137.927C146.691 139.326 141.799 142.147 139.771 143.692C136.4 145.136 132.009 148.862 128.64 150.6C127.383 151.248 123.38 154.806 122.148 152.947C122.453 151.914 129.247 148.06 130.543 147.256L146.631 137.213C149.403 135.699 155.802 131.898 157.893 129.692C158.058 128.571 158.098 127.74 158.149 126.62L159.175 126.799C159.688 127.847 159.52 128.526 159.432 129.639C160.785 128.535 164.947 126.207 166.716 125.147L179.442 117.415C180.187 116.893 180.497 116.699 181.313 116.301Z" fill="url(#paint0_linear_911_10792)"/>
<path d="M169.203 130.311C173.989 133.11 178.703 136.338 183.401 139.279C184.869 140.198 189.578 143.417 191.021 143.859C191.544 144.103 192.725 144.475 193.307 144.627C204.036 147.437 209.885 141.037 218.433 136.05C218.83 136.258 219.431 136.523 219.716 136.839C218.566 137.886 216.531 139.054 215.867 139.682C215.169 139.971 213.761 140.956 213.076 141.397C209.727 143.544 206.948 145.727 202.96 146.519C199.794 147.148 194.733 147.13 191.714 146.046C188.306 144.821 183.689 141.571 180.614 139.583L167.571 131.163C168.29 130.886 168.547 130.719 169.203 130.311Z" fill="url(#paint1_linear_911_10792)"/>
<path d="M154.967 99.1232C155.248 99.8116 155.317 99.9196 155.765 100.516C152.386 102.763 147.984 105.134 145.787 108.45C145.883 110.466 145.707 111.948 147.186 113.405C147.288 114.436 147.242 114.497 146.699 115.406C148.385 117.378 159.59 123.595 159.506 125.184C159.476 125.767 159.119 126.177 159.175 126.799L158.149 126.62C157.1 121.495 136.582 117.984 145.16 106.198C149.28 102.871 150.079 102.044 154.967 99.1232Z" fill="url(#paint2_linear_911_10792)"/>
</g>
<path id="Vector_35" d="M19.8359 166.582C20.0179 166.517 20.5825 166.258 20.7201 166.397C22.5993 168.293 24.1241 169.441 26.3816 170.871L54.4001 188.532L63.9087 194.499C68.0622 197.12 70.5432 199.303 75.6195 199.838C75.2771 200.114 75.2533 200.131 74.8605 200.325C79.6437 201.32 80.7719 199.945 84.6336 199.31C81.3064 201.027 74.7427 201.416 71.4429 199.909C66.826 197.8 61.0854 193.84 56.7679 191.14C49.7671 186.779 42.7891 182.381 35.8343 177.948C31.876 175.454 27.9362 173.038 24.0234 170.462C21.9351 169.086 21.3984 168.097 19.9983 167.08L19.8551 166.977L19.8359 166.582Z" fill="var(--fill-0, #8692AF)"/>
<path id="Vector_36" d="M140.303 119.917L140.34 119.254C141.267 119.109 152.352 125.344 150.831 127.979C148.903 125.869 143.221 123.365 140.303 119.917Z" fill="var(--fill-0, #21283B)"/>
<path id="Vector_37" d="M137.249 81.2936C137.242 80.3049 137.251 79.0901 137.826 78.2592C138.475 77.3192 140.597 75.8195 141.554 75.18C147.531 71.1838 153.537 67.2217 159.512 63.2242L205.48 32.5901L239.515 9.84361C243.57 7.18777 248.708 2.77379 253.39 1.69141C257.809 2.90742 264.336 8.10047 268.498 10.623C272.436 13.0098 276.83 15.8665 280.371 18.7717C281.115 19.3832 280.992 21.0501 280.944 21.9252C280.741 22.535 280.457 23.3749 279.936 23.7824C271.661 30.2643 262.558 35.8128 254.029 41.9553C250.764 44.307 246.612 46.4835 243.606 48.9855C242.53 49.6503 241.696 50.2944 240.698 51.0561C239.346 51.8937 233.832 55.4042 232.888 56.4065C230.608 57.9574 220.578 64.256 219.188 65.6982C213.662 69.2908 208.168 72.9355 202.71 76.6323C199.39 78.8646 195.185 81.5618 192.043 83.9446C190.83 84.5877 188.332 86.3239 187.195 87.2046C185.922 88.0089 184.915 88.7024 183.701 89.5941C183.442 89.7828 182.016 90.7974 181.875 90.9466C179.043 92.8145 174.58 95.994 171.792 97.5516C169.867 99.2157 168.015 99.7729 165.628 100.569C164.029 100.153 163.678 100.045 162.179 99.32C161.358 98.7491 160.496 98.2617 159.634 97.7576C159.251 97.3044 158.78 97.0822 158.267 96.7921C157.017 95.979 155.602 94.9926 154.253 94.4066L145.023 88.4441C142.872 87.0556 140.386 85.5724 138.466 83.9208C137.5 83.0905 137.307 82.5076 137.249 81.2936Z" fill="var(--fill-0, #F0EFEF)"/>
<path id="Vector_38" d="M280.944 21.9252C280.741 22.535 280.457 23.3749 279.937 23.7824C271.661 30.2643 262.558 35.8128 254.03 41.9553C250.764 44.307 246.613 46.4835 243.607 48.9855C242.531 49.6503 241.697 50.2944 240.698 51.0561C239.346 51.8937 233.833 55.4043 232.889 56.4065C230.609 57.9574 220.578 64.256 219.189 65.6982C213.663 69.2908 208.169 72.9355 202.711 76.6323C199.391 78.8646 195.186 81.5618 192.043 83.9446C190.831 84.5877 188.333 86.3239 187.196 87.2046C185.923 88.009 184.915 88.7024 183.702 89.5941C183.443 89.7828 182.016 90.7974 181.875 90.9466C179.043 92.8145 174.581 95.994 171.793 97.5516C171.828 96.5031 171.784 96.8968 170.871 95.8302C171.42 95.262 175.696 92.4881 176.539 91.9257L191.409 82.0019L255.833 38.4625C258.814 36.4615 279.363 22.2942 280.944 21.9252Z" fill="var(--fill-0, #B1B2BD)"/>
<path id="Vector_39" d="M137.25 81.2936C138.613 81.3513 140.359 83.0052 141.524 83.7411C144.565 85.6622 161.597 96.9121 163.37 97.384C165.717 98.0086 169.02 97.4918 170.871 95.8302C171.784 96.8968 171.829 96.5031 171.793 97.5516C169.868 99.2157 168.016 99.7729 165.629 100.569C164.029 100.153 163.678 100.045 162.18 99.32C161.359 98.7491 160.497 98.2617 159.635 97.7576C159.252 97.3044 158.781 97.0822 158.268 96.7921C157.018 95.979 155.603 94.9926 154.254 94.4066L145.024 88.444C142.873 87.0556 140.386 85.5724 138.467 83.9208C137.501 83.0905 137.308 82.5076 137.25 81.2936Z" fill="var(--fill-0, #B1B2BD)"/>
<path id="Vector_40" d="M237.846 27.6355C239.411 27.6512 241.365 28.3095 241.839 29.9598C241.816 30.3485 241.749 30.6584 241.517 30.9801C240.412 32.5197 213.939 49.6394 210.32 52.0687L192.738 63.8713C190.605 65.2987 184.656 69.6986 182.653 69.9728C181.224 69.968 179.441 69.4311 178.857 67.9168C178.698 67.6629 178.964 66.7398 179.164 66.5764C182.465 63.8767 186.471 61.4356 189.994 59.0659C198.679 53.1182 207.42 47.2522 216.216 41.4688C222.689 37.1539 229.207 32.7807 235.703 28.4946C236.403 28.0328 237.017 27.7962 237.846 27.6355Z" fill="var(--fill-0, #21283B)"/>
<path id="Vector_41" d="M223.734 47.619C225.541 47.4787 228.598 49.2173 228.272 51.1487C226.882 52.8486 214.482 61.1265 212.243 62.0853C208.985 62.827 206.842 59.2592 207.612 58.6485C211.497 55.5717 219.296 49.4913 223.734 47.619Z" fill="var(--fill-0, #D9D8D8)"/>
<path id="Vector_42" d="M244.044 34.0556C246.54 33.8274 250.314 35.8861 248.594 37.5024C245.774 40.1542 237.41 46.2831 233.942 47.5059C232.256 47.6123 230.165 46.5757 229.312 45.1368C229.291 44.9671 229.212 44.5682 229.272 44.4721C230.658 42.2861 242.299 34.7388 244.044 34.0556Z" fill="var(--fill-0, #D9D8D8)"/>
<path id="Vector_43" d="M201.237 62.6878C206.074 62.4529 207.728 65.5812 203.538 68.1826C200.525 70.053 194.807 74.7875 191.773 75.6818C191.061 75.7081 190.383 75.709 189.69 75.5173C188.828 75.2789 187.684 74.7953 187.272 73.9368C187.027 73.4277 187.09 72.9128 187.295 72.4062C187.792 71.1761 199.315 63.5314 201.237 62.6878Z" fill="var(--fill-0, #D9D8D8)"/>
<path id="Vector_44" d="M170.052 78.1999C178.668 77.4174 170.903 85.9875 165.842 84.8055C164.538 84.636 162.809 84.4343 162.048 83.236C161.76 81.0688 165.78 78.937 167.479 78.4149C168.809 79.2431 168.724 78.9706 170.052 78.1999Z" fill="var(--fill-0, #2384FE)"/>
<path id="Vector_45" d="M161.671 73.3677C166.901 72.8964 169.178 77.6447 163.453 79.3935C161.499 79.4278 157.138 79.0437 158.185 75.6086C158.563 74.3685 160.5 73.7871 161.671 73.3677Z" fill="var(--fill-0, #2384FE)"/>
<path id="Vector_46" d="M155.23 86.0278C157.687 87.4123 161.152 88.4591 163.987 88.605C170.213 88.9256 179.451 85.7994 179.949 78.4758C179.989 77.8935 179.757 77.3169 180.206 77.1002C181.437 78.985 179.732 83.3386 178.251 84.91C176.073 87.2205 171.898 89.0614 168.73 89.6269C162.894 90.3966 159.539 89.2943 154.715 86.4443L155.23 86.0278Z" fill="var(--fill-0, #B1B2BD)"/>
<path id="Vector_47" d="M154.714 86.4443C153.18 85.5344 150.453 82.6955 150.64 80.8431C150.84 81.0481 151.556 82.1315 151.74 82.4322C152.881 84.2988 153.503 84.7438 155.229 86.0278L154.714 86.4443Z" fill="var(--fill-0, #D9D8D8)"/>
<path id="Vector_48" d="M208.289 127.1C208.233 126.055 208.247 124.269 209.075 123.573C211.695 121.371 215.239 119.254 218.057 117.3L246.849 97.5224L289.609 68.2566L305.878 57.0601C309.933 54.2599 313.999 51.4446 318.132 48.7556C319.032 48.1688 320.432 47.7908 321.487 47.7208C322.615 47.7091 324.278 48.2904 325.219 48.8741C331.079 52.5113 336.666 56.6064 342.493 60.3031C344.833 61.7877 347.864 63.4381 349.252 65.8706C349.448 66.2136 349.456 67.2554 349.461 67.6788C349.392 69.0079 348.922 69.8342 347.881 70.6783C343.899 73.9071 339.194 76.822 334.957 79.7349C326.386 85.7237 317.781 91.6622 309.139 97.5504L265.427 127.512L249.697 138.194C246.758 140.189 239.052 146.129 235.624 146.259C232.684 146.37 227.718 142.013 224.841 140.568C224.44 140.107 223.926 139.737 223.443 139.355C222.271 138.498 220.936 137.648 219.716 136.839C219.432 136.523 218.83 136.258 218.433 136.05C217.075 135.106 215.966 134.354 214.541 133.522C211.998 131.569 208.491 130.698 208.289 127.1Z" fill="var(--fill-0, #EBEBEB)"/>
<path id="Vector_49" d="M208.289 127.1C209.287 127.345 212.065 129.338 213.106 130.034L223.009 136.644C226.298 138.869 230.372 142.012 233.98 143.468C237.467 144.874 243.359 139.878 246.198 137.914C250.554 134.887 254.933 131.893 259.333 128.933L319.302 88.1834L338.797 74.7758C341.371 73.0066 343.92 71.2705 346.563 69.6049C347.524 68.9995 348.299 68.2883 349.319 67.7519L349.461 67.6787C349.392 69.0079 348.922 69.8342 347.882 70.6783C343.899 73.9071 339.194 76.822 334.957 79.7348C326.387 85.7237 317.781 91.6622 309.14 97.5503L265.428 127.512L249.698 138.194C246.758 140.189 239.053 146.129 235.624 146.259C232.685 146.37 227.718 142.013 224.841 140.568C224.44 140.107 223.926 139.737 223.444 139.355C222.272 138.497 220.937 137.648 219.716 136.839C219.432 136.523 218.831 136.258 218.434 136.05C217.076 135.106 215.966 134.354 214.541 133.522C211.999 131.569 208.492 130.698 208.289 127.1Z" fill="var(--fill-0, #ACAFC0)"/>
<path id="Vector_50" d="M219.583 125.158C220.193 115.398 234.545 112.863 241.893 116.239C245.67 117.975 246.938 119.393 248.462 123.184C251.485 129.22 243.309 133.8 238.452 134.789C231.768 136.151 222.613 134.466 219.464 127.638C219.078 126.799 219 125.932 219.583 125.158Z" fill="var(--fill-0, #F0EFEF)"/>
<path id="Vector_51" d="M248.462 123.184C251.485 129.22 243.309 133.8 238.452 134.789C231.768 136.151 222.613 134.466 219.464 127.638C219.078 126.799 219 125.932 219.583 125.158C222.107 138.426 249.579 136.711 248.462 123.184Z" fill="var(--fill-0, #C6C9D5)"/>
<path id="Vector_52" d="M232.248 118.865L232.451 119.089C232.455 119.236 232.466 119.383 232.48 119.529C232.633 120.96 233.105 121.358 234.149 122.211C235.8 120.824 236.73 120.42 238.656 119.573C239.893 120.554 241.123 121.542 242.348 122.537C240.917 123.467 239.853 124.152 238.338 124.921C239.987 125.653 240.729 126.306 242.099 127.428C241.032 127.967 239.293 129.402 237.925 130.209L236.111 129.157C235.382 128.512 234.643 128.01 233.851 127.452C232.693 128.285 231.166 129.215 229.948 130.002C228.809 129.361 226.735 127.847 225.571 127.066C227.081 126.187 228.032 125.617 229.649 124.986C228.274 123.999 226.881 123.038 225.473 122.101C227.282 120.788 227.919 120.136 230.305 120.156C231.337 120.164 231.565 119.614 232.248 118.865Z" fill="var(--fill-0, #2384FE)"/>
<path id="Vector_53" d="M306.234 73.3675C307.925 73.5038 310.555 74.365 309.916 76.5564C307.668 78.6358 303.846 81.0805 301.189 82.8907L286.798 92.6407L264.67 107.692C262.355 109.267 253.852 115.413 251.842 115.859C250.018 115.903 247.233 115.548 247.644 113.075C249.253 111.031 268.83 98.0651 272.254 95.7305L292.253 82.1168C295.832 79.692 302.463 74.6895 306.234 73.3675Z" fill="var(--fill-0, #21283B)"/>
<path id="Vector_54" d="M312.549 79.854C315.359 79.6761 318.048 82.5422 316.972 83.478C313.602 86.4071 305.924 92.3419 301.946 93.9776C299.995 94.0555 296.884 92.6342 297.364 90.3527C298.384 88.9218 310.725 80.6091 312.549 79.854Z" fill="var(--fill-0, #D9D8D8)"/>
<path id="Vector_55" d="M270.751 108.255C272.795 108.136 274.123 108.923 275.377 110.58C275.519 110.77 275.646 111.464 275.467 111.626C272.515 114.293 263.89 120.812 260.528 122.026C256.586 122.75 254.221 119.187 257.403 117.132C261.168 114.701 266.851 110.019 270.751 108.255Z" fill="var(--fill-0, #D9D8D8)"/>
<path id="Vector_56" d="M291.292 94.0509C291.699 94.0427 293.145 94.268 293.153 94.267C294.173 94.152 296.797 97.1946 296.153 97.7112C292.706 100.477 285.394 106.165 281.604 107.818C278.9 107.909 277.814 106.971 276.328 104.724C278.202 102.531 288.64 95.5077 291.292 94.0509Z" fill="var(--fill-0, #D9D8D8)"/>
<path id="Vector_57" d="M247.209 50.7375C249.457 49.5778 253.446 46.5304 255.596 45.0583L274.874 32.0162C278.01 29.8733 280.949 27.5126 284.215 25.5517C286.281 24.1808 288.675 24.2554 290.863 25.5607C297.076 29.2677 303.008 33.6179 309.165 37.436C310.805 38.4523 312.437 39.4212 313.793 40.7938C315.002 42.0153 314.904 42.6619 314.867 44.2675C314.574 45.5845 314.242 46.5162 313.105 47.3434C309.691 49.8301 306.065 52.2451 302.59 54.6377L280.241 70.0154L236.55 99.8572C229.806 104.425 223.254 109.306 216.359 113.641C211.94 116.418 207.631 120.175 202.939 122.404C199.849 123.872 194.885 119.83 192.334 118.389C191.628 117.836 190.936 117.408 190.183 116.93C189.803 116.393 188.161 115.474 187.525 115.112L186.992 114.539C186.371 113.951 186.266 113.917 185.43 113.72L184.698 113.273L183.551 112.576C182.776 111.904 181.884 111.381 180.919 111.033C177.355 108.221 173.862 108.257 173.588 102.945C173.806 99.6695 181.508 95.4601 184.32 93.4917C187.732 91.2526 191.66 88.717 194.901 86.2351C197.85 84.4519 200.706 82.3838 203.566 80.4275C209.562 76.3253 216.031 72.2321 221.856 67.9298C223.254 67.2573 234.525 59.621 235.066 58.8887C238.257 56.8613 240.843 55.3849 243.848 52.9813C244.017 52.909 244.606 52.4777 244.794 52.3466C245.055 52.219 245.876 51.6474 246.163 51.4562C246.516 51.2583 246.879 50.9772 247.209 50.7375Z" fill="var(--fill-0, #D9D8D8)"/>
<path id="Vector_58" d="M173.588 102.945C174.301 104.958 195.617 117.729 198.96 119.948C202.176 122.083 210.916 114.959 213.706 113.051L231.203 101.134L286.726 63.3463L306.161 50.1097C308.488 48.5406 312.652 45.5331 314.867 44.2675C314.574 45.5845 314.242 46.5162 313.105 47.3433C309.691 49.8301 306.064 52.2451 302.59 54.6377L280.241 70.0154L236.55 99.8572C229.806 104.425 223.254 109.306 216.359 113.641C211.94 116.418 207.631 120.175 202.939 122.404C199.849 123.872 194.885 119.83 192.334 118.389C191.628 117.836 190.936 117.408 190.183 116.93C189.803 116.393 188.161 115.474 187.525 115.112L186.992 114.539C186.371 113.951 186.266 113.917 185.43 113.72L184.698 113.273L183.551 112.576C182.776 111.904 181.884 111.381 180.919 111.033C177.355 108.221 173.862 108.257 173.588 102.945Z" fill="var(--fill-0, #8692AF)"/>
<path id="Vector_59" d="M186.262 104.742C185.878 102.65 184.879 101.877 185.941 99.3589C189.104 91.8607 200.151 89.9475 207.11 92.4337C212.388 94.3192 212.772 95.7727 214.891 100.182L214.943 100.289L215.469 100.287C217.348 104.726 211.345 109.336 207.689 110.712C202.559 112.643 198.155 113.099 192.992 110.888C191.347 110.192 185.414 106.892 186.262 104.742Z" fill="var(--fill-0, #F0EFEF)"/>
<path id="Vector_60" d="M214.943 100.289L215.469 100.287C217.348 104.726 211.345 109.336 207.689 110.712C202.559 112.643 198.155 113.099 192.992 110.888C191.347 110.192 185.414 106.892 186.262 104.742C193.882 115.37 215.783 111.302 214.943 100.289Z" fill="var(--fill-0, #B1B2BD)"/>
<path id="Vector_61" d="M191.742 101.022C191.117 96.4745 194.892 95.0235 198.904 95.6839C199.671 95.8102 200.982 97.0398 201.715 97.4137C202.217 97.3525 203.462 96.654 203.821 96.5911C206.297 96.1575 209.796 96.7897 210.076 99.8329C210.235 101.57 209.526 101.67 208.707 102.832C208.138 103.561 207.259 104.031 206.426 104.434C205.303 105.429 200.767 107.069 199.153 107.674C197.479 106.487 193.18 103.49 192.265 101.835L191.742 101.022Z" fill="var(--fill-0, #2384FE)"/>
<path id="Vector_62" d="M200.272 100.928C200.448 101.763 200.313 101.788 200.824 102.29C202.031 102.051 202.84 99.3646 204.084 100.817C205.173 102.245 207.128 101.272 208.358 102.063L208.525 102.49L208.706 102.832C208.137 103.561 207.258 104.031 206.425 104.434C205.302 105.429 200.766 107.069 199.152 107.674C197.478 106.487 193.179 103.49 192.264 101.835C193.197 101.566 196.544 101.753 197.708 101.792C198.232 101.447 198.896 100.933 199.477 100.832L199.851 100.609L200.272 100.928Z" fill="var(--fill-0, #2384FE)"/>
<path id="Vector_63" d="M200.272 100.928C200.448 101.763 200.313 101.788 200.824 102.29C202.031 102.051 202.84 99.3646 204.083 100.817L203.369 101.59C202.676 101.854 201.41 103.91 200.176 104.908C199.771 103.459 199.391 102.337 199.477 100.832L199.851 100.609L200.272 100.928Z" fill="var(--fill-0, #F0EFEF)"/>
<path id="Vector_64" d="M204.085 100.817C205.175 102.245 207.13 101.272 208.359 102.063L208.527 102.489L207.982 102.739C205.986 102.57 204.694 102.893 203.371 101.59L204.085 100.817Z" fill="var(--fill-0, #D9D8D8)"/>
<path id="Vector_65" d="M207.98 102.739L208.525 102.49L208.706 102.832C208.137 103.561 207.258 104.031 206.425 104.434C206.02 103.818 206.116 104.101 206.07 103.355C206.563 102.851 207.192 102.906 207.98 102.739Z" fill="var(--fill-0, #0877FF)"/>
<path id="Vector_66" d="M197.052 100.907C198.199 99.962 198.843 99.2532 199.853 98.1595C199.986 98.9633 200.218 100.146 200.273 100.928L199.852 100.609L199.478 100.832C198.897 100.933 198.233 101.447 197.709 101.791C196.546 101.753 193.198 101.566 192.265 101.835L191.742 101.022C193.468 100.468 195.268 100.689 197.052 100.907Z" fill="var(--fill-0, #D9D8D8)"/>
<path id="Vector_67" d="M271.345 50.607C273.177 50.3823 277.02 51.0273 275.676 53.7971C275.501 54.1566 274.285 55.0782 273.9 55.3413C270.135 57.9133 266.354 60.4629 262.576 63.0165L238.909 78.9139L227.082 86.8223C225.072 88.1813 221.984 90.4417 219.99 91.4735C219.341 91.6795 218.515 91.8248 217.851 91.705C216.547 91.4695 214.654 90.5558 215.258 88.9132C215.463 88.3581 215.827 87.8902 216.307 87.5623C219.982 85.0545 223.659 82.5509 227.336 80.0489L251.085 63.995L263.723 55.4987C265.85 54.0632 269.187 51.6212 271.345 50.607Z" fill="var(--fill-0, #21283B)"/>
<path id="Vector_68" d="M259.594 69.6092C261.372 69.5634 264.278 71.1093 264.017 72.9974C263.394 74.0699 250.512 82.8398 248.89 83.6086C247.733 83.6759 246.885 83.6165 245.821 83.1079C245.132 82.7783 244.334 82.2922 244.1 81.5169C243.962 81.0634 244.077 80.6082 244.279 80.1959C245.017 78.692 257.598 70.2963 259.594 69.6092Z" fill="var(--fill-0, #B1B2BD)"/>
<path id="Vector_69" d="M238.279 84.0289C241.052 83.878 244.004 86.2374 242.297 87.767C238.925 90.7887 233.159 94.0612 229.304 96.7794C228.942 97.0344 227.956 97.3155 227.616 97.4085C225.84 97.4103 222.501 96.9115 222.992 94.42C223.755 92.9974 236.255 84.7666 238.279 84.0289Z" fill="var(--fill-0, #B1B2BD)"/>
<path id="Vector_70" d="M278.778 56.435C282.363 56.2191 285.116 59.3965 281.299 61.7607C277.651 64.0213 273.538 67.6196 269.762 69.495C268.722 69.4541 268.114 69.1993 267.176 68.8075C262.809 66.9851 267.412 63.7076 269.507 62.4823C272.564 60.6936 275.596 57.9146 278.778 56.435Z" fill="var(--fill-0, #B1B2BD)"/>
<path id="Vector_71" d="M116.541 122.217C117.023 121.558 116.941 120.53 117.833 119.931C118.221 129.893 117.589 139.492 118.009 149.386C117.65 153.133 117.969 156.833 117.496 160.486C117.171 161.183 115.584 164.606 115.033 164.909C114.836 163.901 117.235 160.793 117.313 159.433C117.55 155.333 117.876 146.608 117.469 142.721L116.911 142.778C116.798 142.853 114.643 146.66 114.375 147.137L114.262 146.804C114.718 145.942 116.093 143.804 116.211 143.181L116.024 142.743L115.595 142.701C114.242 144.099 112.239 149.31 110.148 149.614C110.896 148.752 111.629 147.878 112.349 146.993L112.194 146.825C112.241 146.258 113.029 145.709 113.384 144.833L113.142 144.525C112.638 145.044 112.384 145.25 111.812 145.688L111.434 145.607C108 148.311 101.918 152.301 97.6373 153.204C100.945 149.234 91.7633 141.561 93.3426 138.023L94.3985 137.73L94.3996 137.492C95.0853 137.18 97.56 136.462 98.5483 136.126C103.357 134.493 110.539 130.76 113.685 126.687C113.754 126.014 115.067 124.668 115.624 123.415L115.323 123.081C115.614 122.274 115.435 122.397 116.045 121.977L116.541 122.217Z" fill="var(--fill-0, #DCDCDC)"/>
<path id="Vector_72" d="M111.434 145.607C113.243 143.998 113.925 143.015 115.527 141.374C114.882 142.655 113.24 146.108 112.348 146.993L112.194 146.825C112.24 146.258 113.029 145.709 113.383 144.833L113.141 144.525C112.637 145.044 112.384 145.25 111.812 145.688L111.434 145.607Z" fill="var(--fill-0, #21283B)"/>
<path id="Vector_73" d="M115.323 123.081C115.615 122.274 115.436 122.397 116.045 121.977L116.542 122.217C116.023 123.398 114.725 125.947 113.686 126.687C113.754 126.014 115.067 124.668 115.624 123.415L115.323 123.081Z" fill="var(--fill-0, #8692AF)"/>
<path id="Vector_74" d="M105.637 137.949C108.167 137.423 109.624 140.564 108.325 142.56C107.438 143.923 107 143.867 105.566 144.318C103.278 144.954 99.9708 140.559 105.637 137.949Z" fill="var(--fill-0, #2384FE)"/>
<path id="Vector_75" d="M105.938 138.854C109.687 139.318 107.518 144.137 105.079 143.836C103.861 143.262 103.501 142.198 103.677 140.905C104.368 139.604 104.57 139.348 105.938 138.854Z" fill="var(--fill-0, #63D2FE)"/>
<path id="Vector_76" d="M105.937 138.854C106.036 139.774 104.858 141.192 103.977 141.379C103.816 141.17 103.76 141.14 103.676 140.905C104.367 139.604 104.569 139.348 105.937 138.854Z" fill="var(--fill-0, #B3EDFE)"/>
<path id="Vector_77" d="M219.189 65.6982C220.579 64.256 230.61 57.9574 232.889 56.4066C233.904 57.5627 232.722 58.0019 234.849 57.5125C235.185 57.9813 234.65 58.0686 235.066 58.8887C234.525 59.6209 223.253 67.2572 221.855 67.9297C220.721 67.6319 220.715 66.7732 219.189 65.6982Z" fill="var(--fill-0, black)"/>
<path id="Vector_78" d="M187.195 87.2046C188.333 86.3239 190.83 84.5877 192.043 83.9446C192.785 84.2335 192.988 83.948 193.927 84.3026C194.751 85.3476 194.479 85.4004 194.9 86.2351C191.658 88.717 187.73 91.2526 184.319 93.4917C183.29 91.2046 182.984 92.7234 181.875 90.9467C182.016 90.7974 183.442 89.7828 183.701 89.5941C184.196 90.0447 185.389 90.1843 186.006 89.9757C186.13 89.4551 185.91 89.3243 185.592 88.7289C186.385 88.0878 186.478 88.8163 187.394 88.2441C187.437 87.7498 187.379 87.683 187.195 87.2046Z" fill="var(--fill-0, #55565A)"/>
<path id="Vector_79" d="M240.698 51.0561L241.087 51.3343C240.909 51.8005 240.922 51.7826 240.594 52.1583C240.955 52.5897 242.988 52.3094 243.847 52.9813C240.842 55.3848 238.256 56.8613 235.066 58.8887C234.65 58.0686 235.185 57.9813 234.848 57.5125C232.721 58.002 233.904 57.5627 232.889 56.4066C233.833 55.4043 239.347 51.8938 240.698 51.0561Z" fill="var(--fill-0, #8692AF)"/>
<path id="Vector_80" d="M240.698 51.0561C241.697 50.2944 242.531 49.6503 243.607 48.9855L244.403 49.2812C245.203 49.6043 245.295 49.7299 245.884 50.3606L245.936 50.2156L246.239 50.4848L245.823 51.1786C244.327 50.091 245.537 50.3556 244.465 49.6787C243.598 49.9025 242.257 50.7723 241.989 51.5738C242.361 51.7332 244.967 52.4638 244.793 52.3466C244.605 52.4776 244.016 52.909 243.847 52.9813C242.988 52.3094 240.955 52.5897 240.594 52.1583C240.922 51.7826 240.909 51.8005 241.087 51.3343L240.698 51.0561Z" fill="var(--fill-0, #7F7E81)"/>
<path id="Vector_81" d="M244.794 52.3466C244.967 52.4638 242.362 51.7332 241.99 51.5738C242.258 50.7723 243.599 49.9025 244.466 49.6787C245.538 50.3556 244.328 50.091 245.824 51.1786L246.163 51.4561C245.876 51.6473 245.055 52.2189 244.794 52.3466Z" fill="var(--fill-0, #7F7E81)"/>
<path id="Vector_82" d="M244.403 49.2812C245.017 48.8164 246.061 48.0073 246.847 48.0221C247.672 48.9556 246.757 49.8077 247.208 50.7374C246.878 50.9771 246.515 51.2582 246.162 51.4561L245.823 51.1786L246.239 50.4848L245.936 50.2156L245.884 50.3606C245.295 49.7299 245.203 49.6043 244.403 49.2812Z" fill="var(--fill-0, #8B8B8E)"/>
<path id="Vector_83" d="M187.195 87.2046C187.379 87.683 187.437 87.7498 187.394 88.2441C186.478 88.8163 186.385 88.0878 185.592 88.7289C185.91 89.3243 186.13 89.4551 186.006 89.9757C185.389 90.1843 184.196 90.0447 183.701 89.5941C184.915 88.7024 185.923 88.009 187.195 87.2046Z" fill="var(--fill-0, #55565A)"/>
</g>
<defs>
<linearGradient id="paint0_linear_911_10792" x1="185.5" y1="111.5" x2="127" y2="149.5" gradientUnits="userSpaceOnUse">
<stop stop-color="#B285FF"/>
<stop offset="0.36995" stop-color="#B7C3FF"/>
<stop offset="1" stop-color="#FFE1A3"/>
</linearGradient>
<linearGradient id="paint1_linear_911_10792" x1="185.5" y1="111.5" x2="127" y2="149.5" gradientUnits="userSpaceOnUse">
<stop stop-color="#B285FF"/>
<stop offset="0.36995" stop-color="#B7C3FF"/>
<stop offset="1" stop-color="#FFE1A3"/>
</linearGradient>
<linearGradient id="paint2_linear_911_10792" x1="185.5" y1="111.5" x2="127" y2="149.5" gradientUnits="userSpaceOnUse">
<stop stop-color="#B285FF"/>
<stop offset="0.36995" stop-color="#B7C3FF"/>
<stop offset="1" stop-color="#FFE1A3"/>
</linearGradient>
<clipPath id="clip0_911_10792">
<rect width="302" height="214" fill="white"/>
</clipPath>
</defs>
</svg>
