<svg preserveAspectRatio="none" width="100%" height="100%" overflow="visible" style="display: block;" viewBox="0 0 20 20" fill="none" xmlns="http://www.w3.org/2000/svg">
<g id="SVGRepo_iconCarrier">
<path id="Vector" d="M8.125 0C3.65234 0 0 3.65234 0 8.125C0 12.5977 3.65234 16.25 8.125 16.25C8.33984 16.25 8.54004 16.2256 8.75 16.2109V13.6719C8.54004 13.6963 8.33984 13.75 8.125 13.75C5.00488 13.75 2.5 11.2451 2.5 8.125C2.5 5.00488 5.00488 2.5 8.125 2.5C11.2451 2.5 13.75 5.00488 13.75 8.125C13.75 8.33984 13.6963 8.54004 13.6719 8.75H16.2109C16.2256 8.54004 16.25 8.33984 16.25 8.125C16.25 3.65234 12.5977 0 8.125 0ZM8.125 3.75C7.77832 3.75 7.5 4.02832 7.5 4.375V7.5H5.625C5.27832 7.5 5 7.77832 5 8.125C5 8.47168 5.27832 8.75 5.625 8.75H8.125C8.47168 8.75 8.75 8.47168 8.75 8.125V4.375C8.75 4.02832 8.47168 3.75 8.125 3.75Z" fill="var(--fill-0, #2E3436)"/>
<path id="Vector_2" d="M11.0938 10.0879C10.4785 10.0879 10 10.5615 10 11.1719V18.916C10 19.5264 10.4785 20 11.0938 20H18.9062C19.5215 20 20 19.5264 20 18.916V11.1719C20 10.5615 19.5215 10.0879 18.9062 10.0879H11.0938ZM13.75 11.25H16.25V14.375C16.25 14.375 16.25 15 15.625 15H14.375C13.75 15 13.75 14.375 13.75 14.375V11.25ZM14.375 16.25H15.625C15.9717 16.25 16.25 16.5283 16.25 16.875V18.125C16.25 18.4717 15.9717 18.75 15.625 18.75H14.375C14.0283 18.75 13.75 18.4717 13.75 18.125V16.875C13.75 16.5283 14.0283 16.25 14.375 16.25Z" fill="var(--fill-0, #FF7800)"/>
</g>
</svg>
