<svg preserveAspectRatio="none" width="100%" height="100%" overflow="visible" style="display: block;" viewBox="0 0 56 56" fill="none" xmlns="http://www.w3.org/2000/svg">
<g id="Object [Vectorized]" clip-path="url(#clip0_1396_21790)">
<path id="Vector" d="M12.3526 11.5047C13.215 11.8498 13.1978 11.8489 14.0858 11.6614C13.8577 12.3318 13.8144 12.5808 13.7166 13.2867L13.7274 13.947L13.8235 15.3461C13.7738 15.8144 13.7259 16.0801 13.8138 16.55C13.817 17.234 13.8947 17.6201 14.3908 18.1217C14.4702 18.2014 14.5511 18.2796 14.6335 18.3562L14.6759 18.5173C16.077 19.2922 17.7205 19.4844 19.2589 19.0531C19.7208 18.9217 20.0014 18.7916 20.4149 18.5369C20.8028 19.3319 20.2303 23.4682 20.6988 24.5416L20.8529 24.4827C21.3062 24.5861 22.973 24.5816 23.3984 24.4566C23.3971 24.9447 23.3638 26.2775 23.4175 26.698C23.4992 27.6167 23.1407 27.7448 22.6971 28.5575C22.8822 29.261 23.6465 29.9799 24.2505 30.3343C24.3007 30.364 24.352 30.3917 24.4045 30.4171C24.5886 30.5614 24.6567 30.6485 24.885 30.649C25.0908 30.4146 25.0467 29.7017 25.0537 29.3441C25.0861 29.7597 25.0357 30.4431 25.1893 30.7256C25.4417 30.9001 25.5532 30.8879 25.9056 30.887C28.1877 31.3885 29.3546 31.2914 31.6062 30.5847C32.344 30.7707 33.1822 30.6831 33.9336 30.6029C33.9307 31.1565 33.9574 32.1711 33.9153 32.6867C33.9695 33.7538 33.8361 33.7475 33.1737 34.6631C33.4775 35.6903 34.8054 36.7706 35.8258 36.9179L35.8793 36.9357C37.1049 37.57 39.7498 37.4721 41.0624 37.0314C41.1515 37.0014 41.2394 36.9675 41.3256 36.9298L41.5651 36.8038C41.5205 36.5585 41.5241 36.3159 41.5283 36.0676C41.5581 34.2943 41.5074 32.519 41.5719 30.7465C41.9443 30.496 42.0355 30.2856 42.2649 29.9028C42.3117 29.4392 42.3151 29.2762 42.2744 28.8125L42.2887 28.7347C42.6902 28.5066 42.8422 28.2798 43.1236 27.9256L43.2079 27.9553C43.3136 28.8147 43.1764 30.1619 43.3252 30.8883C44.7473 31.6996 46.162 32.5242 47.5692 33.3619C48.0961 33.6751 49.283 34.4282 49.7609 34.6488C49.7368 35.4132 49.7295 36.1781 49.7387 36.9428C48.5894 37.2517 46.3115 38.845 45.1619 39.4631C44.8215 39.6462 44.23 40.0585 43.8775 40.1585C43.8474 39.4197 43.839 38.8123 43.8581 38.0735C43.2906 38.4914 42.5137 38.4225 41.9794 37.9797C41.9927 38.5589 41.9948 40.8434 41.9385 41.3844L41.9364 42.3923L41.2974 42.7561L41.1311 42.8237C40.5923 42.7607 36.5257 40.2147 35.7068 39.7515C35.4178 39.5722 35.1603 39.4293 34.8607 39.2686C34.3708 38.9139 33.1831 38.2712 32.6164 37.9424C32.3189 37.749 32.1904 37.6537 31.8569 37.5401L31.7353 37.6588C31.2631 38.8945 30.3036 40.0777 28.9214 40.244C27.7496 40.8529 26.2881 40.0809 25.4781 39.1807L25.4794 39.1028C25.4762 38.4857 25.1247 37.3483 25.0586 36.6329C24.9941 35.936 25.1836 34.1335 25.042 33.6236C24.8486 33.3583 24.7489 33.3356 24.4517 33.2049C23.8025 32.7384 22.8053 32.1978 22.0905 31.8096C21.7752 31.5819 21.1061 31.2226 20.7441 31.0165C18.7378 29.8221 16.7253 28.6386 14.7065 27.4659C14.1099 27.092 13.4658 26.7418 12.8501 26.396L12.4492 26.1603C10.6084 25.0034 8.40766 23.7661 6.50754 22.6892C6.01942 22.3277 5.23099 21.9356 4.68162 21.6815C4.60002 21.3091 4.65552 21.1354 4.80907 20.8136C4.98027 20.4821 5.15435 20.1522 5.33121 19.8237C5.67031 19.7847 5.9767 19.5562 6.2717 19.3716C6.43829 19.3064 6.60158 19.2329 6.76095 19.1513C7.78531 18.6312 8.85081 17.9515 9.82949 17.3401C10.5715 16.8765 12.2097 16.2702 12.473 15.4744C12.3769 14.9324 12.3652 12.153 12.3526 11.5047Z" fill="var(--fill-0, #7D7CFA)"/>
<path id="Vector_2" d="M4.80907 20.8136C5.98906 21.1664 7.16791 22.0455 8.24559 22.6671C14.9836 26.5533 21.6762 30.5212 28.3943 34.4435L37.3769 39.7025C37.9279 40.0261 40.7423 41.6313 41.0515 41.8863C41.1303 42.1777 41.2062 42.4684 41.2974 42.7561L41.131 42.8237C40.5923 42.7607 36.5257 40.2147 35.7068 39.7516C35.4178 39.5722 35.1603 39.4293 34.8607 39.2686C34.3708 38.9139 33.1831 38.2712 32.6164 37.9424C32.3189 37.749 32.1904 37.6537 31.8569 37.5402L31.7353 37.6588C31.2631 38.8946 30.3036 40.0778 28.9214 40.244C27.7496 40.8529 26.2881 40.0809 25.4781 39.1807L25.4794 39.1028C25.4762 38.4857 25.1247 37.3483 25.0586 36.6329C24.9941 35.9361 25.1836 34.1335 25.0419 33.6237C24.8486 33.3583 24.7489 33.3357 24.4517 33.2049C23.8025 32.7384 22.8052 32.1978 22.0905 31.8096C21.7752 31.582 21.1061 31.2226 20.7441 31.0166C18.7378 29.8222 16.7253 28.6386 14.7065 27.4659C14.1099 27.092 13.4658 26.7419 12.8501 26.396L12.4492 26.1603C10.6084 25.0034 8.40766 23.7661 6.50754 22.6892C6.01941 22.3277 5.23099 21.9356 4.68162 21.6815C4.60002 21.3091 4.65552 21.1354 4.80907 20.8136Z" fill="var(--fill-0, #403DAE)"/>
<path id="Vector_3" d="M28.9219 40.244L29.0211 40.1005C29.453 39.9543 29.9435 39.6962 30.3547 39.4469C30.7554 39.1627 30.3941 38.1157 30.4411 37.7036C30.6 36.3087 29.588 36.5848 28.9713 35.9394C29.4381 36.0327 31.5602 37.1805 31.7358 37.6588C31.2636 38.8945 30.3041 40.0777 28.9219 40.244Z" fill="var(--fill-0, #26217A)"/>
<path id="Vector_4" d="M14.6754 18.5173C16.0765 19.2923 17.72 19.4844 19.2583 19.0531C19.7202 18.9217 20.0009 18.7916 20.4143 18.5369C20.8022 19.3319 20.2297 23.4682 20.6982 24.5416C18.8485 25.3134 16.2764 25.29 14.4323 24.5066C14.966 23.5414 14.3385 19.8314 14.6754 18.5173Z" fill="var(--fill-0, #D0D4ED)"/>
<path id="Vector_5" d="M12.3542 11.5047C13.2166 11.8498 13.1994 11.8489 14.0873 11.6614C13.8592 12.3318 13.816 12.5808 13.7182 13.2867L13.729 13.947L13.8251 15.3461C13.7754 15.8144 13.7275 16.0801 13.8154 16.55C13.8186 17.234 13.8963 17.6201 14.3923 18.1217C14.4718 18.2014 14.5527 18.2796 14.6351 18.3562L14.6775 18.5173C14.3407 19.8314 14.9682 23.5414 14.4345 24.5066C13.8492 24.2763 13.497 24.0216 13.0152 23.6433C13.2409 23.0351 13.0313 21.2231 12.9168 20.517C12.826 19.9943 12.8659 16.6191 12.8654 15.9004C12.688 15.5527 12.7877 15.6281 12.4746 15.4744C12.3785 14.9324 12.3668 12.153 12.3542 11.5047Z" fill="var(--fill-0, #F1F1F5)"/>
<path id="Vector_6" d="M12.3542 11.5047C13.2166 11.8498 13.1994 11.8489 14.0873 11.6614C13.8592 12.3318 13.816 12.5808 13.7182 13.2867C12.8866 13.5864 12.8191 15.1477 12.8654 15.9004C12.688 15.5527 12.7877 15.6281 12.4746 15.4744C12.3785 14.9324 12.3668 12.153 12.3542 11.5047Z" fill="var(--fill-0, #C1C3E0)"/>
<path id="Vector_7" d="M42.2888 28.7347C42.6903 28.5066 42.8423 28.2798 43.1237 27.9256L43.208 27.9553C43.3137 28.8147 43.1765 30.1619 43.3253 30.8883C43.3195 31.5155 43.278 32.6594 43.3294 33.242C43.3723 33.4995 43.3838 33.7418 43.5305 33.9468C43.1629 34.3217 43.1599 35.1642 43.5114 35.541C42.9369 36.1297 42.3492 36.5379 41.5652 36.8038C41.5206 36.5585 41.5242 36.3159 41.5284 36.0675C41.5582 34.2943 41.5075 32.519 41.572 30.7465C41.9444 30.496 42.0356 30.2856 42.265 29.9028C42.3118 29.4392 42.3152 29.2762 42.2745 28.8125L42.2888 28.7347Z" fill="var(--fill-0, #B1B5E8)"/>
<path id="Vector_8" d="M12.9152 20.517C13.0297 21.2231 13.2392 23.0351 13.0136 23.6434C12.6289 23.2074 12.4692 22.848 12.2031 22.334C12.747 21.7956 12.9268 21.3647 12.8734 20.6169L12.9152 20.517Z" fill="var(--fill-0, #C1C3E0)"/>
<path id="Vector_9" d="M41.9809 37.9797C42.3185 37.6635 42.4664 37.6088 42.8885 37.4095C43.2795 37.6005 43.6034 37.7121 43.8596 38.0735C43.2921 38.4914 42.5151 38.4225 41.9809 37.9797Z" fill="var(--fill-0, #F1F1F5)"/>
<path id="Vector_10" d="M41.0521 41.8863C41.2501 41.7971 41.7282 41.5048 41.9391 41.3844L41.9369 42.3923L41.2979 42.7561C41.2068 42.4684 41.1308 42.1777 41.0521 41.8863Z" fill="var(--fill-0, #5554D6)"/>
<path id="Vector_11" d="M33.1746 34.6631C32.8613 34.1635 33.5336 33.0262 33.9162 32.6867C33.9704 33.7538 33.8369 33.7475 33.1746 34.6631Z" fill="var(--fill-0, #5554D6)"/>
<path id="Vector_12" d="M23.4178 26.698C23.4995 27.6167 23.141 27.7448 22.6974 28.5575C22.388 27.9026 22.8727 27.0684 23.4178 26.698Z" fill="var(--fill-0, #5554D6)"/>
<path id="Vector_13" d="M12.8746 20.6169C12.928 21.3647 12.7482 21.7956 12.2043 22.334C11.9058 21.7113 12.4442 21.0041 12.8746 20.6169Z" fill="var(--fill-0, #5554D6)"/>
<path id="Vector_14" d="M43.531 33.9468C43.6156 34.1274 43.8035 34.5051 43.8614 34.675C43.8028 35.0955 43.7788 35.203 43.5119 35.541C43.1604 35.1642 43.1634 34.3217 43.531 33.9468Z" fill="var(--fill-0, #F6F6F9)"/>
<path id="Vector_15" d="M43.3299 33.242L43.4095 33.0218L43.5497 33.0118C43.8627 33.385 43.9809 34.1901 43.8614 34.675C43.8035 34.5051 43.6155 34.1274 43.531 33.9468C43.3842 33.7418 43.3727 33.4995 43.3299 33.242Z" fill="var(--fill-0, #010147)"/>
<path id="Vector_16" d="M4.68166 21.6815C5.23102 21.9356 6.01945 22.3277 6.50757 22.6892C8.40769 23.7661 10.6085 25.0034 12.4493 26.1603L12.8501 26.396C12.8524 26.6805 12.8522 26.9061 12.8847 27.19C13.0132 27.4144 13.0094 27.7406 13.0382 28.0156C13.3476 30.9722 12.8313 32.4388 15.4277 34.5118C14.286 34.6182 13.0694 34.5281 11.9154 34.5286C10.5452 34.5293 9.16045 34.5367 7.79134 34.5448C7.26103 34.5479 5.5576 34.5073 5.13481 34.633C4.35151 33.3956 4.59336 30.4189 4.59727 28.8925C4.60345 26.5158 4.57544 24.0496 4.68166 21.6815Z" fill="var(--fill-0, #D4D7F4)"/>
<path id="Vector_17" d="M6.50759 22.6892C8.40771 23.7661 10.6085 25.0034 12.4493 26.1603L12.8501 26.396C12.8524 26.6805 12.8522 26.9061 12.8847 27.19C12.8885 27.6776 12.9381 27.9776 12.7284 28.4107C12.9413 28.4936 12.8666 28.446 13.012 28.648C12.8763 28.9828 7.2379 32.2532 6.43599 32.7765C6.42094 31.7087 6.31237 23.109 6.50759 22.6892Z" fill="var(--fill-0, #F4EEFF)"/>
<path id="Vector_18" d="M12.4501 26.1603L12.851 26.396C12.8532 26.6805 12.8531 26.9061 12.8855 27.19C12.8893 27.6776 12.9389 27.9776 12.7292 28.4107C12.1149 28.033 12.3902 26.8397 12.4501 26.1603Z" fill="var(--fill-0, #C1C3E0)"/>
<path id="Vector_19" d="M12.9752 31.4158C13.2288 31.599 13.0748 31.9086 13.2364 32.3064C13.4218 32.7625 13.6458 33.1053 13.8999 33.5198L10.4053 33.5257C10.1318 33.5352 9.9545 33.5574 9.69143 33.4646L9.67882 33.3378C10.4775 32.9728 12.0938 31.9094 12.9752 31.4158Z" fill="var(--fill-0, #F6F6F9)"/>
<path id="Vector_20" d="M33.2456 1.04625L34.1512 0.652226C35.0295 1.59528 35.081 2.2076 35.5412 3.40393L37.3501 8.16865C37.7635 9.24296 38.2059 10.3224 38.5923 11.4103C38.7424 11.8329 39.2067 12.8244 39.2882 13.2038C38.8448 13.7006 38.8932 13.6431 38.3558 14.0055C37.6353 14.2695 36.6694 13.3273 36.0548 13.0609C34.6623 12.4574 31.0072 9.71151 29.7465 9.48844C29.3886 9.25611 28.0828 8.43123 28.3926 7.93895C29.2866 6.51817 32.124 1.85064 33.2456 1.04625Z" fill="var(--fill-0, #F68209)"/>
<path id="Vector_21" d="M33.2448 1.04625L34.1504 0.652226C35.0287 1.59528 35.0803 2.2076 35.5404 3.40393L37.3493 8.16865C37.7627 9.24296 38.2051 10.3224 38.5915 11.4103C38.7417 11.8329 39.206 12.8244 39.2875 13.2038C38.8441 13.7006 38.8924 13.6431 38.355 14.0055C38.2172 13.2316 36.9505 9.91262 36.5828 9.11851C35.5978 6.99123 34.5252 2.77841 33.2448 1.04625Z" fill="var(--fill-0, #D0480D)"/>
<path id="Vector_22" d="M32.9323 4.71294C34.267 5.08979 33.6958 7.38836 33.778 8.6259C33.5118 8.53535 33.4732 8.51927 33.2503 8.34739C32.8853 7.7426 32.9481 5.53827 32.9323 4.71294Z" fill="var(--fill-0, #F6F6F9)"/>
<path id="Vector_23" d="M33.0577 9.02644C33.6815 9.2025 33.7293 9.47241 33.7924 10.0629C33.5032 9.95825 33.442 9.94043 33.1881 9.75396C33.0132 9.49076 33.0447 9.34513 33.0577 9.02644Z" fill="var(--fill-0, #F6F6F9)"/>
<path id="Vector_24" d="M24.3659 18.1471C24.5418 17.936 24.7777 17.6676 24.9973 17.4861C26.639 16.1287 31.4442 16.0697 31.8148 18.7787C31.8331 18.9124 31.8272 19.2277 31.8222 19.382C31.8274 19.999 31.8759 21.225 31.7214 21.7643C29.7474 23.9017 26.5009 23.6075 24.4271 21.7595C24.3299 21.2666 24.35 20.0334 24.3455 19.4737L24.3659 18.1471Z" fill="var(--fill-0, #7D7CFA)"/>
<path id="Vector_25" d="M31.8222 19.3821C31.8274 19.9991 31.8759 21.225 31.7214 21.7643C29.7474 23.9017 26.5009 23.6076 24.4271 21.7596C24.3299 21.2666 24.35 20.0334 24.3455 19.4737C26.2853 21.441 30.1124 21.6906 31.8222 19.3821Z" fill="var(--fill-0, #4440B3)"/>
<path id="Vector_26" d="M41.5721 30.7466C41.5075 32.5191 41.5582 34.2943 41.5284 36.0676C41.5242 36.316 41.5207 36.5585 41.5652 36.8038L41.3257 36.9298C41.2395 36.9675 41.1516 37.0014 41.0626 37.0314C39.7499 37.4722 37.105 37.57 35.8794 36.9357L35.8259 36.9179C35.5464 36.3316 35.6066 31.607 35.7312 30.8632C36.0312 31.0069 36.338 31.1354 36.6507 31.2481C38.4834 31.9073 39.8871 31.5606 41.5721 30.7466Z" fill="var(--fill-0, #D0D3ED)"/>
<path id="Vector_27" d="M35.8802 36.9357C36.5782 36.062 40.5761 36.1253 41.3265 36.9298C41.2403 36.9675 41.1524 37.0014 41.0633 37.0314C39.7507 37.4721 37.1058 37.57 35.8802 36.9357Z" fill="var(--fill-0, #F68209)"/>
<path id="Vector_28" d="M21.3822 13.2002C21.3871 14.0403 21.4157 14.7202 21.2882 15.5583C21.3197 15.8083 21.3558 16.1877 21.4032 16.4236L21.3848 16.4815C21.5839 17.4079 21.1052 18.0098 20.4149 18.5369C20.0014 18.7916 19.7208 18.9217 19.2589 19.0531C17.7205 19.4844 16.077 19.2923 14.6759 18.5173L14.6335 18.3562C14.5511 18.2797 14.4702 18.2014 14.3908 18.1217C13.8947 17.6202 13.817 17.234 13.8138 16.55C13.7259 16.0801 13.7738 15.8144 13.8235 15.3461L13.7274 13.947C13.7708 13.7657 13.7806 13.7523 13.8751 13.5903C14.1996 13.6073 15.2155 14.4387 15.6802 14.568C17.7455 15.1428 19.9395 14.9151 21.3822 13.2002Z" fill="var(--fill-0, #4541B4)"/>
<path id="Vector_29" d="M21.385 16.4815C21.5841 17.4079 21.1054 18.0098 20.4151 18.5369C20.0016 18.7916 19.721 18.9217 19.2591 19.0531C17.7208 19.4844 16.0773 19.2923 14.6761 18.5173L14.6337 18.3562L14.6482 18.159C14.6589 18.1279 14.714 17.4623 14.7474 17.2803C14.8483 17.2028 16.8024 17.5207 17.1641 17.5474C18.7795 17.6669 20.0045 17.3225 21.385 16.4815Z" fill="var(--fill-0, #7D7CFA)"/>
<path id="Vector_30" d="M13.8242 15.3461C14.8291 17.2947 18.5145 17.5201 20.1914 16.4964C20.5189 16.2965 21.1247 15.9203 21.289 15.5582C21.3205 15.8083 21.3566 16.1877 21.4039 16.4235L21.3855 16.4815C20.005 17.3225 18.78 17.6669 17.1646 17.5474C16.8029 17.5206 14.8488 17.2028 14.7479 17.2803C14.7145 17.4623 14.6594 18.1279 14.6487 18.159L14.6342 18.3562C14.5518 18.2796 14.4709 18.2014 14.3915 18.1217C13.8954 17.6201 13.8178 17.234 13.8145 16.55C13.7266 16.0801 13.7745 15.8144 13.8242 15.3461Z" fill="var(--fill-0, #B1B5E8)"/>
<path id="Vector_31" d="M13.8142 16.55C14.0574 16.6553 14.3691 16.7793 14.6012 16.8927C14.602 17.2237 14.5828 17.859 14.6484 18.159L14.6339 18.3562C14.5515 18.2796 14.4706 18.2014 14.3912 18.1217C13.8951 17.6201 13.8175 17.234 13.8142 16.55Z" fill="var(--fill-0, #C1C3E0)"/>
<path id="Vector_32" d="M34.7795 25.585C37.1601 27.6615 39.8821 27.7387 42.2638 25.6752C42.2674 26.4288 42.3021 27.2691 42.1844 28.004L42.2887 28.7347L42.2745 28.8125C42.3152 29.2762 42.3118 29.4392 42.265 29.9028C42.0356 30.2856 41.9443 30.496 41.572 30.7465C39.887 31.5606 38.4833 31.9072 36.6506 31.2481C36.3379 31.1354 36.0311 31.0068 35.7311 30.8631L35.679 30.652C35.6441 30.3292 35.6595 29.6817 35.6573 29.3345C35.3299 29.0476 35.2087 29.0301 34.784 28.9139C34.7642 28.4084 34.8266 27.9711 34.7893 27.343C34.811 26.8164 34.785 26.1245 34.7795 25.585Z" fill="var(--fill-0, #4541B4)"/>
<path id="Vector_33" d="M42.275 28.8125C42.3157 29.2762 42.3123 29.4392 42.2655 29.9028C42.0361 30.2856 41.9448 30.496 41.5725 30.7465C39.8875 31.5606 38.4838 31.9072 36.6511 31.2481C36.3384 31.1354 36.0316 31.0068 35.7316 30.8631L35.6795 30.652C35.6446 30.3292 35.6599 29.6817 35.6578 29.3345C37.469 30.2374 40.5886 29.9204 42.275 28.8125Z" fill="var(--fill-0, #7D7CFA)"/>
<path id="Vector_34" d="M34.7887 27.343C35.2935 29.3402 38.3975 29.6497 40.064 29.1707C40.9321 28.921 41.4908 28.6026 42.1839 28.004L42.2882 28.7347L42.274 28.8125C40.5876 29.9204 37.468 30.2374 35.6568 29.3346C35.3294 29.0476 35.2081 29.0301 34.7835 28.9139C34.7637 28.4084 34.8261 27.9711 34.7887 27.343Z" fill="var(--fill-0, #B1B5E8)"/>
<path id="Vector_35" d="M14.7073 27.4659C16.7261 28.6386 18.7386 29.8222 20.7449 31.0165C20.3772 31.497 20.0206 33.3839 19.5631 34.0521C19.3463 34.3688 18.8224 34.8435 18.7912 35.052C18.4353 35.2598 17.7785 35.3476 17.3943 35.2343C14.7039 34.4405 14.4854 30.8941 14.602 28.5514C14.6227 28.1353 14.6206 27.8628 14.7073 27.4659Z" fill="var(--fill-0, #D2D6EE)"/>
<path id="Vector_36" d="M25.2449 26.922C25.4264 26.8317 25.61 26.7458 25.7954 26.6645C27.3947 25.9709 28.8297 26.042 30.4174 26.6854C31.1631 27.0684 31.3385 27.1849 31.8218 27.9137C31.8293 28.168 31.8586 28.6993 31.8313 28.9279L31.8444 30.3739L31.6072 30.5847C29.3557 31.2914 28.1887 31.3885 25.9067 30.887C25.5543 30.888 25.4428 30.9001 25.1904 30.7256C25.0367 30.4431 25.0871 29.7597 25.0548 29.3441C25.0598 28.7796 25.1073 27.6688 24.9826 27.1672L25.2449 26.922Z" fill="var(--fill-0, #5554D6)"/>
<path id="Vector_37" d="M31.8314 28.9279L31.8444 30.3739L31.6073 30.5847C29.3557 31.2914 28.1888 31.3885 25.9068 30.887L25.8733 30.7001C26.1321 30.3573 26.7773 30.7046 27.173 30.7326C28.9929 30.861 30.7291 30.4499 31.8314 28.9279Z" fill="var(--fill-0, #26217A)"/>
<path id="Vector_38" d="M35.7064 39.7515C36.5253 40.2147 40.5919 42.7607 41.1307 42.8237L41.297 42.7561L41.9359 42.3923C41.9955 43.5335 42.121 44.4573 41.2986 45.3692C40.4568 46.3026 39.0132 46.6782 37.8143 46.4598C36.9933 46.2874 36.3304 45.9252 35.9059 45.1807C35.7644 43.4886 35.4431 41.4828 35.7064 39.7515Z" fill="var(--fill-0, #D0480D)"/>
<path id="Vector_39" d="M14.0861 11.6614C16.201 9.88397 21.3944 9.72873 21.3826 13.2001C19.9399 14.915 17.7459 15.1428 15.6806 14.568C15.2158 14.4386 14.2 13.6073 13.8754 13.5903C13.781 13.7523 13.7711 13.7657 13.7278 13.947L13.717 13.2867C13.8148 12.5808 13.858 12.3318 14.0861 11.6614Z" fill="var(--fill-0, #7D7CFA)"/>
<path id="Vector_40" d="M34.7929 24.4844C35.6383 23.2447 36.5996 22.8155 38.0846 22.731C39.6648 22.6411 41.2556 22.9261 42.2398 24.3196C42.2484 24.7336 42.2742 25.2715 42.2638 25.6753C39.8821 27.7387 37.1601 27.6615 34.7795 25.585L34.7929 24.4844Z" fill="var(--fill-0, #7D7CFA)"/>
<path id="Vector_41" d="M41.9393 41.3844C41.9955 40.8435 41.9935 38.5589 41.9802 37.9797C42.5144 38.4225 43.2913 38.4915 43.8589 38.0735C43.8397 38.8123 43.8481 39.4197 43.8783 40.1585C43.8178 40.63 43.8249 40.787 43.8585 41.2654L43.7045 41.3526L43.5836 41.2341C43.5919 40.5501 43.7653 38.8889 43.5196 38.3612L43.4119 38.2995C42.5403 38.7256 43.222 44.8685 42.9241 45.9888C42.9149 46.0238 42.9125 47.4471 42.9164 47.474C43.1418 49.0385 42.598 54.5232 43.0127 55.7418C43.5418 56.2599 48.2414 55.6376 48.8374 55.9589C47.1545 55.9781 43.3727 56.2979 42.0136 55.608C41.9762 52.5018 42.0377 49.1501 41.8959 46.0713C41.7302 46.2291 41.554 46.3999 41.3811 46.5386C40.1788 47.5036 38.3635 47.9447 37.2302 46.6281C37.1879 46.5789 37.1779 46.5584 37.158 46.4976L37.222 46.4373L37.5142 46.5815C37.5937 46.5509 37.7474 46.4977 37.8154 46.4598C39.0144 46.6782 40.4579 46.3026 41.2998 45.3692C42.1221 44.4573 41.9966 43.5336 41.9371 42.3923L41.9393 41.3844Z" fill="var(--fill-0, #C1C3E0)"/>
<path id="Vector_42" d="M31.7209 21.7643C31.7657 22.0722 31.8097 22.3351 31.8725 22.6397L31.8644 22.7073C31.8924 23.1276 31.8754 23.2882 31.8252 23.7099C31.5165 24.2153 31.3648 24.4054 30.8664 24.7283C31.0218 25.1274 31.0683 26.3502 30.7368 26.6688L30.4164 26.6854C28.8287 26.042 27.3937 25.9709 25.7944 26.6645C25.6089 26.7458 25.4254 26.8317 25.2439 26.922C25.006 26.3246 24.982 25.3094 25.2506 24.7137L25.0339 24.5664L25.067 24.3668C25.0504 23.2241 25.2127 23.3681 24.3495 22.6455C24.3431 22.3787 24.3946 22.0316 24.4265 21.7595C26.5003 23.6075 29.7468 23.9017 31.7209 21.7643Z" fill="var(--fill-0, #7D7CFA)"/>
<path id="Vector_43" d="M25.2524 24.7137C26.9724 25.6008 29.159 25.7047 30.8682 24.7283C31.0235 25.1274 31.0701 26.3502 30.7385 26.6688L30.4181 26.6854C28.8304 26.042 27.3955 25.9709 25.7962 26.6645C25.6107 26.7458 25.4271 26.8317 25.2457 26.922C25.0077 26.3246 24.9838 25.3094 25.2524 24.7137Z" fill="var(--fill-0, #C1C3E0)"/>
<path id="Vector_44" d="M31.7209 21.7643C31.7657 22.0722 31.8097 22.3351 31.8725 22.6397L31.8644 22.7073C31.3938 22.8902 31.0695 23.0952 30.6438 23.2605C28.6126 24.0491 27.1418 23.8995 25.1186 23.1691C25.1272 23.495 25.1785 24.0882 25.067 24.3668C25.0504 23.2241 25.2127 23.3681 24.3495 22.6455C24.3431 22.3787 24.3946 22.0316 24.4265 21.7595C26.5003 23.6075 29.7468 23.9017 31.7209 21.7643Z" fill="var(--fill-0, #B1B5E8)"/>
<path id="Vector_45" d="M49.7619 34.6488C49.7574 34.4053 49.7122 33.7172 49.8049 33.5406C50.4329 33.6284 50.3426 34.087 50.8934 33.8019L50.912 33.8855C50.8977 33.9065 50.7522 34.119 50.7522 34.119C50.8389 39.1374 50.5387 44.1515 50.7526 49.1659C50.7682 49.5319 50.7534 49.9415 50.7484 50.309C50.4541 50.155 50.0288 49.9486 49.7632 49.7669C49.6783 45.8854 49.9162 41.6723 49.7257 37.8384C49.7474 37.6754 49.7385 37.1354 49.7397 36.9428C49.7305 36.1781 49.7379 35.4132 49.7619 34.6488Z" fill="var(--fill-0, #B1B5E8)"/>
<path id="Vector_46" d="M21.4032 16.4235C21.7277 16.2335 22.0043 15.901 22.2655 15.6212C22.2461 16.4382 22.0695 18.2022 22.51 18.7306C22.1773 19.0867 22.3907 20.0668 22.2882 20.4627C22.2895 20.7915 22.2942 21.1203 22.3022 21.4491C22.1541 21.7378 22.0763 23.3022 22.2011 23.5722C21.8501 23.9535 21.3115 24.2508 20.8529 24.4827L20.6988 24.5416C20.2303 23.4682 20.8028 19.3319 20.4149 18.5369C21.1052 18.0097 21.5839 17.4079 21.3848 16.4815L21.4032 16.4235Z" fill="var(--fill-0, #B1B5E8)"/>
<path id="Vector_47" d="M32.7539 21.5154C32.7895 22.1562 32.7493 24.468 32.9539 24.8338C32.8255 25.3584 32.853 26.7516 32.8543 27.3419C32.8877 27.4767 32.9474 27.7787 33.0184 27.8784C32.7973 28.3377 32.7401 28.9368 33.0175 29.3853C32.8059 29.697 32.1701 30.1887 31.8436 30.3739L31.8306 28.9279C31.8578 28.6993 31.8286 28.168 31.8211 27.9137C31.3378 27.1849 31.1624 27.0684 30.4167 26.6854L30.7371 26.6688C31.0686 26.3502 31.0221 25.1274 30.8667 24.7283C31.3651 24.4055 31.5168 24.2153 31.8255 23.71C31.8756 23.2882 31.8927 23.1276 31.8647 22.7073L31.8728 22.6398C32.3208 22.346 32.503 21.9854 32.7539 21.5154Z" fill="var(--fill-0, #B1B5E8)"/>
<path id="Vector_48" d="M22.2894 20.4627C22.3919 20.0668 22.1785 19.0868 22.5112 18.7306C23.0519 19.0499 23.3858 19.2218 23.9585 19.4775C23.0083 21.2145 23.4223 22.494 23.3996 24.4566C22.9742 24.5816 21.3074 24.5861 20.8542 24.4827C21.3127 24.2508 21.8513 23.9535 22.2023 23.5722C22.0776 23.3022 22.1553 21.7378 22.3034 21.4491C22.2954 21.1203 22.2907 20.7915 22.2894 20.4627Z" fill="var(--fill-0, #6D6DF3)"/>
<path id="Vector_49" d="M22.3039 21.449C22.4788 21.6698 22.8422 22.1588 23.0399 22.318C22.8345 22.8804 22.6298 23.1541 22.2029 23.5722C22.0781 23.3022 22.1559 21.7377 22.3039 21.449Z" fill="var(--fill-0, #F1F1F5)"/>
<path id="Vector_50" d="M22.2882 20.4627C22.7595 20.7843 22.9561 21.5449 23.145 22.0919L23.0382 22.318C22.8404 22.1588 22.4771 21.6698 22.3022 21.4491C22.2942 21.1203 22.2895 20.7915 22.2882 20.4627Z" fill="var(--fill-0, #26217A)"/>
<path id="Vector_51" d="M31.737 37.6588L31.8587 37.5401C32.1922 37.6536 32.3207 37.749 32.6182 37.9423C32.6094 37.9531 32.6006 37.9638 32.5918 37.9745C31.7539 39.6975 30.7414 41.0734 28.7052 41.3154C27.8672 41.4151 26.5845 41.1326 26.3156 40.2254C25.9367 39.9019 25.6788 39.8107 25.4531 39.3894L25.4798 39.1807C26.2898 40.0809 27.7514 40.8529 28.9231 40.244C30.3054 40.0777 31.2648 38.8945 31.737 37.6588Z" fill="var(--fill-0, #C2C7EA)"/>
<path id="Vector_52" d="M43.8786 40.1585C44.2311 40.0585 44.8226 39.6462 45.163 39.4631C46.3125 38.845 48.5905 37.2517 49.7398 36.9428C49.7385 37.1355 49.7475 37.6754 49.7258 37.8385L43.8589 41.2654C43.8253 40.787 43.8182 40.63 43.8786 40.1585Z" fill="var(--fill-0, #5554D6)"/>
<path id="Vector_53" d="M20.7453 31.0165C21.1073 31.2226 21.7764 31.5819 22.0917 31.8096C21.3741 33.4892 20.737 34.2792 19.0009 34.9728C18.9318 35.001 18.862 35.0273 18.7917 35.0519C18.8228 34.8435 19.3468 34.3688 19.5636 34.0521C20.0211 33.3839 20.3777 31.497 20.7453 31.0165Z" fill="var(--fill-0, #B1B5E8)"/>
<path id="Vector_54" d="M34.8612 39.2686C35.1608 39.4293 35.4183 39.5722 35.7073 39.7516C35.444 41.4828 35.7653 43.4887 35.9068 45.1807C34.4211 44.0655 34.6725 40.9697 34.8612 39.2686Z" fill="var(--fill-0, #EEBC90)"/>
<path id="Vector_55" d="M32.8555 27.3419L32.9586 27.1291L33.111 27.1177C33.19 27.2141 33.8452 28.3826 33.887 28.4951C33.9215 29.1971 33.9375 29.9 33.9351 30.603C33.1837 30.6831 32.3454 30.7707 31.6076 30.5847L31.8448 30.3739C32.1713 30.1887 32.807 29.697 33.0187 29.3853C32.7413 28.9368 32.7985 28.3377 33.0195 27.8784C32.9486 27.7787 32.8889 27.4767 32.8555 27.3419Z" fill="var(--fill-0, #5554D6)"/>
<path id="Vector_56" d="M33.0196 27.8784C33.2152 28.1514 33.4169 28.3645 33.4165 28.6966C33.353 29.005 33.2141 29.1403 33.0187 29.3853C32.7413 28.9368 32.7985 28.3376 33.0196 27.8784Z" fill="var(--fill-0, #F1F1F5)"/>
<path id="Vector_57" d="M24.452 33.2049C24.7491 33.3357 24.8488 33.3583 25.0422 33.6236C25.1838 34.1335 24.9944 35.936 25.0588 36.6329C25.125 37.3483 25.4765 38.4857 25.4797 39.1028C24.4456 38.4669 24.31 37.1176 24.3544 36.0079C24.3887 35.1522 24.2807 34.0172 24.452 33.2049Z" fill="var(--fill-0, #B1B5E8)"/>
<path id="Vector_58" d="M32.9536 24.8338C33.3969 25.0768 34.0477 25.4557 34.4918 25.6459C33.8223 26.6317 33.8284 27.2762 33.8855 28.4951C33.8438 28.3825 33.1885 27.2141 33.1095 27.1177L32.9571 27.1291L32.854 27.3419C32.8527 26.7515 32.8252 25.3584 32.9536 24.8338Z" fill="var(--fill-0, #6D6DF3)"/>
<path id="Vector_59" d="M24.4039 30.4171C24.3279 29.1296 24.0378 28.148 24.981 27.1672C25.1057 27.6688 25.0582 28.7796 25.0532 29.3441C25.0462 29.7017 25.0902 30.4146 24.8845 30.649C24.6561 30.6485 24.5881 30.5614 24.4039 30.4171Z" fill="var(--fill-0, #B1B5E8)"/>
<path id="Vector_60" d="M34.7847 28.9139C35.2093 29.0301 35.3306 29.0476 35.658 29.3345C35.6601 29.6817 35.6448 30.3292 35.6797 30.652C34.8147 30.0264 34.8026 30.0322 34.7847 28.9139Z" fill="var(--fill-0, #C1C3E0)"/>
<path id="Vector_61" d="M24.3497 22.6455C25.2128 23.368 25.0506 23.2241 25.0672 24.3668L25.034 24.5664C24.9431 24.3603 24.8375 24.2757 24.6922 24.1017C24.3112 23.6457 24.3508 23.2104 24.3497 22.6455Z" fill="var(--fill-0, #C1C3E0)"/>
<path id="Vector_62" d="M47.4017 28.7521C47.5532 28.7455 47.7048 28.7423 47.8565 28.7423C48.4361 28.7442 48.6134 28.8342 49.0157 29.2434C49.1147 29.5746 49.121 29.4379 48.9935 29.757C48.7128 30.0287 48.6202 30.0464 48.2426 30.1608C47.6639 30.1933 46.5509 30.0621 46.6603 29.2578C46.8407 28.9674 47.0901 28.8936 47.4017 28.7521Z" fill="var(--fill-0, #F6F6F9)"/>
<path id="Vector_63" d="M51.7936 26.2916C52.4241 26.2643 52.8441 26.2598 53.2268 26.8287C53.3089 27.4941 52.8246 27.5851 52.2937 27.7005C51.7339 27.6909 51.2829 27.6059 50.9079 27.1739C50.8266 26.8601 50.8154 26.9913 50.9647 26.682C51.2373 26.4451 51.4493 26.4024 51.7936 26.2916Z" fill="var(--fill-0, #F6F6F9)"/>
<path id="Vector_64" d="M56.2403 23.8335C56.7139 23.8198 57.2316 23.9164 57.4437 24.3936C57.4118 25.1104 56.9904 25.1252 56.3901 25.2204C55.8327 25.1782 55.3314 25.2036 55.092 24.6019C55.1707 23.9356 55.6871 23.9205 56.2403 23.8335Z" fill="var(--fill-0, #F6F6F9)"/>
<path id="Vector_65" d="M60.2631 21.3623C60.8731 21.2933 61.849 21.4729 61.62 22.3034C61.418 22.5467 61.2697 22.5686 60.9698 22.6639C60.3214 22.6901 59.6456 22.7843 59.2605 22.1072C59.2517 21.5341 59.8121 21.459 60.2631 21.3623Z" fill="var(--fill-0, #F6F6F9)"/>
<path id="Vector_66" d="M5.3316 19.8237C5.52403 19.3599 5.92968 18.255 6.25834 17.9318L6.36874 17.9866C6.46904 18.4148 6.34464 18.9275 6.27209 19.3716C5.97709 19.5562 5.6707 19.7847 5.3316 19.8237Z" fill="var(--fill-0, #C1C3E0)" fill-opacity="0.976471"/>
</g>
<defs>
<clipPath id="clip0_1396_21790">
<rect width="56" height="56" fill="white"/>
</clipPath>
</defs>
</svg>
