<svg width="381" height="961" viewBox="0 0 381 961" fill="none" xmlns="http://www.w3.org/2000/svg">
<path d="M290.5 449.999C290.18 440.33 287.641 427.934 285.5 418.499C280.814 395.522 257.132 404.103 244.5 409.499C206.482 423.899 196.633 460.829 196.461 477.494C197.032 518.179 208.014 560.924 216.751 600.584C218.388 608.019 221.365 616.074 222.899 623.104C227.165 625.434 231.748 627.134 236.503 628.149C253.616 631.689 269.622 625.559 283.816 616.289L284.105 614.524L285.703 613.749C286.085 606.584 286.833 599.304 287.772 592.204C292.063 559.729 295.879 527.094 294.11 494.274C293.926 485.374 292.448 476.469 292.023 467.61C291.759 462.115 290.644 455.553 290.5 449.999Z" fill="#CFC1D9"/>
<path d="M136.7 270.445C152.672 275.951 170.547 273.29 176.624 255.304C177.343 253.151 177.983 250.973 178.543 248.773C180.618 258.222 182.681 266.359 191.562 272.032C198.69 276.587 208.694 278.462 217.039 279.008C219.509 279.17 226.151 278.751 228.043 279.179C242.853 282.527 261.216 289.823 268.321 303.927C260.295 324.174 259.758 336.756 266.427 357.558C267.303 360.289 267.566 366.233 268.554 368.331C256.997 384.282 221.613 396.749 202.518 399.449C177.787 402.947 144.61 401.668 131.016 377.181C129.142 357.803 135.777 344.726 136.369 325.992C136.623 317.922 134.217 309.194 132.934 301.247C131.935 295.06 131.786 283.676 132.814 277.4C132.5 275.999 132.423 268.312 133 266.999C133.497 265.869 135.5 269.499 136.7 270.445Z" fill="#CFC1D9"/>
<path d="M175.993 347.345C177.46 352.04 177.547 359.224 175.65 363.893L175.322 363.67C174.643 361.735 175.476 349.782 175.993 347.345Z" fill="#C1AEA9"/>
<path d="M285 229.411C283.952 229.013 282.832 229.671 282.148 229.411C283.881 238.302 284.651 247.783 285.965 256.8C288.778 276.117 291.025 291.262 299 309.162L345 298.999C344 281.999 343.253 276.462 341.618 259.999C339.955 243.245 334.251 233.667 334.938 217.048L334.676 217.152C331.651 218.381 326.478 221.653 323.384 222.651C311.197 226.579 297.653 227.249 285 229.411Z" fill="#CEDAB9"/>
<path d="M352 325.499L303 338.999L302.5 325.499L300.5 314.499L298.5 308.499L345 297.499L346 308.499L349.5 317.999L352 325.499Z" fill="#FCEDBE"/>
<path d="M375.585 490.396C373.272 482.996 373.47 473.172 370.814 466.275C368.458 460.16 363.347 455.964 360.514 450.325L357 449.499C337.419 442.896 334.181 453.396 328.222 452.272C327.802 458.451 323.44 464.174 323.072 471.412C322.458 483.456 325.949 493.861 327.158 505.671C327.926 512.446 324 531.999 327.315 533.221C333.5 533.221 333.957 501.014 336 500.999L332.12 536.405C332.042 537.112 332.216 537.824 332.611 538.416C333.417 539.625 335.022 540.134 336.113 539.174C342.905 533.195 340.043 515.287 346 501.999C345.679 503.694 340.705 543.338 342.5 544.999C352.705 544.999 353.528 504.639 355 501.999C357 523.499 351.429 542.401 353.639 543.011C363.451 542.721 368 508.999 362.5 483.499C366.5 493.999 372.639 506.401 378.474 503.546C381.243 499.831 376.949 494.761 375.585 490.396Z" fill="#CEDAB9"/>
<path d="M339.314 460.674C340.292 461.691 340.039 464.674 340.387 466.184C342.021 473.282 345.46 480.53 353 482.785C355.077 483.405 357.715 483.975 359.6 485.065C346.231 486.555 338.15 472.775 339.314 460.674Z" fill="#CAD2B5"/>
<mask id="mask0_1456_3850" style="mask-type:alpha" maskUnits="userSpaceOnUse" x="321" y="479" width="60" height="69">
<path d="M366.5 503.499H323.5L321.5 518.999L323.5 532.999L327.5 543.499L338.5 547.999H348.5L357 544.999L363.5 535.999L366.5 508.999L381 506.999V497.499L377 479.999L365 492.499L366.5 503.499Z" fill="#CFC1D9"/>
</mask>
<g mask="url(#mask0_1456_3850)">
<path d="M375.585 490.396C373.272 482.996 373.47 473.172 370.814 466.275C368.458 460.16 363.347 455.964 360.514 450.325L357 449.499C337.419 442.896 334.181 453.396 328.222 452.272C327.802 458.451 323.44 464.174 323.072 471.412C322.458 483.456 325.949 493.861 327.158 505.671C327.926 512.446 324 531.999 327.315 533.221C333.5 533.221 333.957 501.014 336 500.999L332.12 536.405C332.042 537.112 332.216 537.824 332.611 538.416C333.417 539.625 335.022 540.134 336.113 539.174C342.905 533.195 340.043 515.287 346 501.999C345.679 503.694 340.705 543.338 342.5 544.999C352.705 544.999 353.528 504.639 355 501.999C357 523.499 351.429 542.401 353.639 543.011C363.451 542.721 368 508.999 362.5 483.499C366.5 493.999 372.639 506.401 378.474 503.546C381.243 499.831 376.949 494.761 375.585 490.396Z" fill="#CFC1D9"/>
<path d="M339.314 460.674C340.292 461.691 340.039 464.674 340.387 466.184C342.021 473.282 345.46 480.53 353 482.785C355.077 483.405 357.715 483.975 359.6 485.065C346.231 486.555 338.15 472.775 339.314 460.674Z" fill="#CFC1D9"/>
</g>
<path d="M351.5 325.499L302.5 338.999V348.499L303.5 360.999L306 371.999L308.5 382.499L315 401.499L320.5 418.499L323 430.499L328 427.499L335.5 424.999L342.5 423.499H348.5L357 425.999V412.499L358 359.999L356.5 344.999L354.5 334.999L351.5 325.499Z" fill="#FBC7A3"/>
<path d="M322.895 430.766C333.159 424.512 345.625 421.844 357.093 427C357.4 434.17 358.234 443.657 360.146 450.588C338.947 443.985 333.355 454.624 326.904 453.499C326.337 447.123 324.748 436.952 322.895 430.766Z" fill="#FCEDBE"/>
<path d="M322.5 428.499C335.404 422.663 342.68 420.45 357 424.499L357.087 427C345.619 421.844 333.153 424.512 322.888 430.766L322.5 428.499Z" fill="#FEBD21"/>
<path d="M327 453.499C340.071 446.942 345.416 444.449 359.922 448.999L361.004 451.499C349.388 445.706 337.897 448.971 327.5 455.999L327 453.499Z" fill="#FEBD21"/>
<path d="M131.014 377.182C144.608 401.668 177.785 402.947 202.516 399.45C221.611 396.749 256.995 384.282 268.552 368.332L269.07 370.479C271.13 377.074 273.551 383.401 275.967 389.871L276.728 391.871C280.265 399.871 284.37 412.17 286.151 420.878C287.084 423.328 287.494 425.974 287.601 428.593C278.043 411.193 276.594 400.865 253.429 407.859C229.839 414.98 214.539 427.884 204.017 450.001C201.218 456.438 196.14 470.626 196.461 477.494L195.345 477.709C195.14 478.544 195.369 481.249 195 481.999C185.774 485.429 175.833 478.722 170.5 471.999L166.262 465.693C163.267 462.312 160.422 454.045 158.059 449.878C151.176 437.74 144.545 425.92 136.342 414.58C134.045 412.218 129.147 405.732 126.898 402.877L127.244 401.115C127.871 394.239 129.346 386.55 130.509 379.665L131.014 377.182Z" fill="#FCEDBE"/>
<path d="M268.113 403.685C272.394 400.017 274.291 396.84 276.731 391.871C280.268 399.871 284.373 412.17 286.154 420.878L285.978 421.044C284.91 420.705 284.72 419.424 284.203 418.321C280.931 411.337 275.121 406.747 268.113 403.685Z" fill="#FCEDBE"/>
<path d="M126.899 402.876C129.147 405.731 134.046 412.217 136.343 414.58C144.545 425.919 151.176 437.74 158.059 449.877C160.423 454.045 163.267 462.312 166.263 465.693C172.132 474.324 177.818 479.009 188.369 481.049C190.544 481.469 192.742 481.759 194.952 481.919C195.975 506.214 199.777 528.574 204.138 552.424C204.532 554.579 202.49 564.794 201.972 567.849L197.032 596.874C196.108 602.579 195.582 610.814 194.633 615.789C177.501 624.759 158.489 629.459 140.117 621.059C137.562 619.894 136.22 618.594 134.017 617.384C130.414 597.609 123.729 578.869 120.385 559.009C118.867 550.904 117.817 542.749 116.759 534.579C111.972 497.594 115.651 460.3 122.767 423.865C124.134 416.867 125.937 409.952 126.899 402.876Z" fill="#CFC1D9"/>
<path d="M291.803 676.179C292.663 678.789 294.5 680.999 296 687.999C296.181 688.544 296.446 690.499 296.5 690.999L297.358 695.499C297.313 697.859 298.906 703.484 299.407 706.754C301.252 718.894 301.518 731.229 300.197 743.439C297.115 773.144 287.471 803.904 284.081 833.789C283.312 840.569 281.667 848.769 281.529 855.529L281.473 857.064C267.898 861.694 260.72 863.024 248.039 855.574L248.03 853.499C248.624 850.449 248.81 844.359 248.989 841.109C250.19 819.679 248.996 798.189 245.432 777.024C242.932 762.879 240.164 753.539 238.914 738.764C237.53 722.399 241.37 705.269 240.275 690.364C240.958 690.899 241.577 691.509 242.361 691.769C254.465 699.334 271.003 694.054 281.674 686.379C285.618 683.539 288.584 679.754 291.803 676.179Z" fill="#CEDAB9"/>
<path d="M193.53 675.359C197.716 691.509 201.078 707.939 201.525 724.549C201.986 741.659 197.095 756.679 192.48 772.824C188.045 791.229 186.188 812.054 185.353 830.959C185.29 832.874 185.05 837.789 185.24 839.394L185.019 840.729C174.806 845.399 165.903 847.234 155.251 843.254C153.933 842.769 152.635 842.234 151.359 841.649L151.242 840.164C151.667 835.744 151.075 825.514 150.884 820.919C149.703 792.519 144.324 764.514 141.006 736.254C138.73 716.864 139.996 705.849 140.581 686.934C142.75 687.234 145.927 690.339 148.297 690.889C167.431 695.349 180.649 688.084 193.53 675.359Z" fill="#CEDAB9"/>
<path d="M146.547 867.694C153.356 867.834 157.271 871.314 163.315 872.964C163.824 873.104 168.856 872.564 169.924 872.614C179.964 873.114 179.64 870.809 186.068 864.944C186.302 878.449 197.278 893.889 188.165 906.274C183.504 912.604 168.421 910.724 161.622 911.374C140.141 913.429 140.423 931.119 117.041 929.339C110.957 933.069 106.828 935.834 99.1658 934.429C93.7978 933.449 91.8643 928.084 96.4363 925.079C97.2768 925.129 97.0323 925.104 97.8843 924.649L100.505 923.624C102.604 922.679 107.807 919.794 109.412 918.254L108.992 917.919C106.84 918.384 94.9938 923.624 92.9698 925.484C92.6048 926.109 92.9473 929.799 90.9398 931.484L89.9308 931.234C88.7043 930.239 88.1858 929.974 87.8423 928.389C88.0878 924.004 93.5103 920.194 97.0678 918.049C98.8718 916.964 101.82 917.444 102.812 916.064L101.602 915.454C95.2583 915.099 89.3233 923.069 85.3433 926.614L84.6958 926.309C84.6753 923.804 84.4408 924.739 85.6853 922.544L83.9888 922.379C83.1538 922.024 82.8068 921.094 83.1918 920.269C85.7698 914.749 90.0988 912.649 94.9938 909.954C94.1878 909.764 87.8423 913.499 86.2868 912.384C86.9203 908.724 91.0173 908.399 93.8448 906.739C99.1983 903.599 108.547 900.609 113.205 897.019C122.795 889.624 139.608 877.159 146.547 867.694Z" fill="#CEDAB9"/>
<path d="M96.4336 925.079C97.2741 925.129 97.0296 925.104 97.8816 924.649C100.041 925.834 102.42 927.244 104.575 925.244L105.436 925.794C103.168 928.774 98.9406 926.449 96.4336 925.079Z" fill="#A6BEAD"/>
<path d="M284.109 614.524L285.706 613.749C285.631 618.119 285.472 622.739 285.658 627.089C286.346 638.434 288.279 653.124 290.112 664.429C291.214 671.229 290.5 667.499 291 669.999C291.197 670.499 291.803 672.999 291.803 676.179C288.584 679.754 285.618 683.539 281.674 686.379C271.003 694.054 254.465 699.334 242.361 691.769C241.577 691.509 240.958 690.899 240.275 690.364C239.759 687.789 238.155 679.559 238.717 677.409L237.5 674.999L236.506 671.999C232.285 665.024 231.191 660.274 229.906 652.249C228.953 651.754 228.993 651.794 228.352 650.934C225.298 644.919 223.831 630.254 222.902 623.104C227.169 625.434 231.751 627.134 236.506 628.149C253.619 631.689 269.625 625.559 283.819 616.289L284.109 614.524Z" fill="#FBC7A3"/>
<path d="M242.843 682.899C243.802 685.029 245.664 688.694 245.328 690.944C244.269 689.244 242.843 685.479 242.023 683.494L242.843 682.899Z" fill="#FCC1BD"/>
<path d="M194.636 615.789C193.959 624.169 194.703 630.854 194.35 638.954C193.995 647.104 191.306 656.424 191.209 664.609C191.179 667.099 192.802 671.414 193.439 674.029L193.533 675.359C180.652 688.084 167.434 695.349 148.3 690.889C145.93 690.339 142.753 687.234 140.584 686.934C141.097 682.104 139.969 676.559 141.028 671.389C138.7 664.054 134.502 649.984 134.331 642.654C134.125 633.879 134.857 626.529 134.02 617.384C136.222 618.594 137.564 619.894 140.12 621.059C158.492 629.459 177.504 624.759 194.636 615.789Z" fill="#FBC7A3"/>
<path d="M262.127 887.574C258.534 884.509 247.251 884.294 242.61 884.929C237.458 897.034 227.781 910.719 218.877 920.474C216.503 923.074 212.148 925.434 209.8 928.074C207.171 931.029 205.542 935.769 203.293 938.879C202.516 939.954 198.831 942.824 197.611 943.879L196.426 944.769C190.152 952.854 204.888 960.549 209.478 950.294C210.132 948.834 212.153 946.174 212.828 944.529C214.944 939.379 217.722 939.389 221.907 936.484C219.505 939.229 202.492 957.359 215.211 957.659C216.468 957.689 218.156 956.364 218.824 955.349C223.212 947.904 221.76 944.164 230.181 939.639C223.841 946.524 225.545 946.509 221.523 953.094C226.007 953.724 225.79 954.579 230.447 953.589C230.56 950.524 233.85 943.454 236.861 942.769C236.553 944.069 233.29 949.624 232.135 952.669C233.902 952.524 236.398 952.104 237.945 952.769L238.235 953.134L239.805 954.444C239.821 954.134 239.854 953.829 239.903 953.519C240.834 947.599 244.29 944.674 248.717 941.419C246.849 945.134 243.975 947.084 241.787 951.759L241.245 952.609C241.39 953.879 241.612 954.119 242.311 955.204C247.308 958.339 248.473 953.404 252.075 951.259C255.403 949.274 257.643 950.189 261.091 947.299C266.14 943.704 268.051 934.264 272.509 930.539C279.72 924.519 286.758 923.219 286.502 911.724C286.464 909.984 286.279 905.944 285.753 904.294C284.963 901.824 283.034 891.629 281.799 890.344L281.636 885.334L277.419 887.254C272.256 887.939 266.47 889.709 262.127 887.574Z" fill="#CEDAB9"/>
<path d="M197.611 943.879C200.886 942.789 201.953 943.149 205.349 943.769L206.486 944.569C206.225 949.489 198.437 945.264 196.426 944.769L197.611 943.879Z" fill="#CAD2B5"/>
<path d="M205.349 943.769L206.134 943.484C207.078 944.914 206.808 944.459 206.784 946.394C204.586 949.809 198.367 947.104 196.426 944.769C198.437 945.264 206.225 949.489 206.486 944.569L205.349 943.769Z" fill="#A6BEAD"/>
<path d="M241.246 952.609L241.788 951.759C243.26 951.994 245.136 952.109 246.224 953.004C244.542 953.364 242.951 952.924 241.246 952.609Z" fill="#A6BEAD"/>
<path d="M232.135 952.669C233.902 952.524 236.399 952.104 237.946 952.769L238.235 953.134L239.805 954.444C238.77 957.869 232.203 960.074 231.883 953.269L232.135 952.669Z" fill="#CAD2B5"/>
<path d="M232.135 952.669C233.902 952.524 236.399 952.104 237.946 952.769L238.235 953.134C236.382 953.754 233.888 953.404 231.883 953.269L232.135 952.669Z" fill="#8AA097"/>
<path d="M221.523 953.094C226.007 953.724 225.79 954.579 230.447 953.589C230.215 954.849 229.992 955.329 229.507 956.484C225.689 960.134 221.707 958.854 221.523 953.094Z" fill="#CAD2B5"/>
<path d="M169.35 77.3626C170.946 88.4711 175.867 104.067 180.253 114.531C180.867 116.233 184.685 119.126 195.047 117.084C197.811 117.091 200.309 116.159 202.96 115.359C206.329 113.804 211.233 112.066 214.787 110.684C225.054 105.553 230.631 103.891 235.926 93.3296L237.309 94.0456C237.737 92.4666 238.206 89.8531 239.394 88.9141C243.605 89.2116 242.933 89.2336 247.112 88.7811C250.224 87.3601 256.844 82.8663 258.428 76.2586C261.026 71.2731 260.157 65.8776 260.966 60.6216C262.965 47.6386 263.311 31.4916 255.905 20.0298C235.299 -11.8639 179.102 -4.38274 171.65 34.7616C169.657 45.2266 168.302 51.2111 170.701 62.0411C171.241 64.8081 168.741 73.7446 169.35 77.3626Z" fill="#FCD7BC"/>
<path d="M249.922 59.0259C259.597 56.1759 259.781 67.1994 257.931 73.6324C254.617 70.5884 256.895 63.8264 252.334 61.9559C250.841 62.3514 250.582 62.9354 249.706 64.1654L248.855 63.3869C249.708 62.2429 250.195 61.7035 250.666 60.3195L249.922 59.0259Z" fill="#FBC7A3"/>
<path d="M247.217 67.3286C250.156 70.4981 252.699 74.3776 249.251 78.2841C247.866 78.9156 245.664 80.0491 244.246 79.6496C247.504 72.8906 244.87 72.0476 247.217 67.3286Z" fill="#FBC7A3"/>
<path d="M248.854 63.387L249.704 64.1655C248.777 66.2545 247.626 65.622 247.217 67.3285C244.869 72.0475 247.503 72.8905 244.246 79.6495C245.663 80.049 247.865 78.9155 249.25 78.284C247.637 80.2085 245.335 81.9685 242.813 80.9105L242.367 79.681C242.546 78.028 243.92 76.609 244.979 75.267L244.526 69.987C246.052 67.3425 246.926 65.774 248.854 63.387Z" fill="#FCC1BD"/>
<path d="M95.1867 315.729C101.54 321.996 105.348 322.289 113.094 326.254C119.344 329.453 126.407 334.929 134.018 334.977C133.425 338.749 129.917 358.71 128.769 361.437C120.755 380.484 101.498 399.476 89.5932 416.99L88.4227 418.46C83.8462 424.674 80.2022 429.192 76.8287 436.182C76.1602 435.846 71.3302 431.708 69.8877 430.65C64.3792 426.676 58.7597 422.859 53.0352 419.203C55.2767 413.76 60.1272 407.179 62.5767 400.752L63.1877 399.108C66.6337 391.066 71.1297 380.568 73.5947 372.266C80.2167 349.958 81.8337 335.75 95.1867 315.729Z" fill="#FBC7A3"/>
<path d="M62.5767 400.752C73.3742 403.599 82.2437 408.897 88.4227 418.459C83.8462 424.673 80.2022 429.192 76.8287 436.182C76.1602 435.846 71.3302 431.708 69.8877 430.65C64.3792 426.676 58.7597 422.859 53.0352 419.203C55.2767 413.76 60.1272 407.179 62.5767 400.752Z" fill="#FCEDBE"/>
<path d="M63.1891 399.108C74.6101 402.848 82.0426 407.026 89.5946 416.99L88.4241 418.459C82.2451 408.897 73.3756 403.599 62.5781 400.752L63.1891 399.108Z" fill="#FEBD21"/>
<path d="M77 435.499L76.5 436.499C74.1 433.699 59.8333 423.666 53 418.999L53.5 417.999C66.7 425.199 74.6667 432.666 77 435.499Z" fill="#FEBD21"/>
<path d="M53.0351 419.204C58.7596 422.859 64.3791 426.676 69.8876 430.65C71.3301 431.709 76.16 435.846 76.8286 436.183C75.0295 442.97 74.7821 450.873 72.2426 457.112C68.2936 466.815 61.8921 475.864 55.8366 484.334C52.8451 488.519 42.8901 509.889 37.2451 508.364C35.5 505.999 48.5 487.499 48.5 480.499C47.2545 480.974 38.0616 499.429 37.2451 500.499L34.6641 505.469C32.6056 508.779 28.3891 515.964 23.7276 515.124C22.5576 514.364 22.2181 514.279 22.2181 513.499V511.539C22.8261 509.304 26.0146 504.274 27.3176 502.049C32.0276 494.004 38.5551 483.344 40.5446 474.249C33.7776 481.944 25.1921 504.079 17.0891 512.084C16.0961 513.064 15.0521 513.104 13.8269 512.924C13.1665 512.139 12.5921 511.684 12.804 510.569C14.0516 503.979 31.4091 477.904 30.5531 472.534L29.8626 472.455C24.7151 476.624 14.2181 503.569 8.4403 504.029C5.8907 502.649 6.449 499.769 7.49475 497.454C14.8701 481.119 24.6526 465.944 29.5406 448.543C29.9636 447.037 30 446.999 30 446.999C30 446.999 30.5 445.999 29.7216 445.821C25.8636 446.053 19.4376 454.246 14.7406 455.436C11.2773 456.314 6.92091 457.066 5.41016 452.791C6.04441 449.364 10.2368 449.31 14.0086 446.568C20.8431 441.419 23.5516 434.625 30.2956 429.184C34.8146 425.539 50.6641 421.96 53.0351 419.204Z" fill="#CEDAB9"/>
<path d="M108.775 211.923C113.208 214.205 117.992 216.789 122.49 218.862C119.876 232.699 120.828 250.757 129.041 262.76C129.823 263.881 130.649 264.97 131.517 266.025C131.791 275.408 129.778 284.655 130.525 294.474C131.691 309.811 136.302 319.134 134.018 334.978C126.408 334.93 119.344 329.453 113.094 326.254C105.348 322.289 101.541 321.996 95.1875 315.73C96.929 310.278 99.361 307.642 101.225 299.959C101.572 298.483 101.557 296.296 101.605 294.715C101.153 282.493 101.905 269.45 103.715 257.333C105.057 248.352 108.208 239.672 109.464 230.887C110.181 225.872 109.221 217.189 108.775 211.923Z" fill="#CEDAB9"/>
<path d="M153.042 152.279C151.685 154.731 147.691 157.717 145.818 160.21C137.459 171.333 131.168 183.868 127.244 197.217C126.597 199.393 125.507 202.563 125.623 204.7C125.2 207.541 122.981 216.2 122.933 217.797L122.49 218.862C117.992 216.789 113.208 214.205 108.775 211.923L108.473 210.648C108.477 193.467 112.021 175.631 124.884 163.228C132.754 155.639 142.496 153.463 153.042 152.279Z" fill="#CFC1D9"/>
<path d="M108.473 210.647C111.51 211.424 119.122 216.094 122.933 217.797L122.49 218.861C117.992 216.788 113.208 214.205 108.775 211.922L108.473 210.647Z" fill="#D87189"/>
<path d="M239.395 88.914C238.206 89.853 237.737 92.4665 237.309 94.0455L235.926 93.3295C230.631 103.891 225.055 105.553 214.787 110.684C211.233 112.066 206.33 113.804 202.96 115.359C200.31 116.159 197.811 117.091 195.048 117.084L192 117.499V135.385L190.626 135.843C184.977 139.317 179.594 141.44 174.389 144.523C170.871 149.702 170.125 150.861 168.926 156.969L169.447 158.101C174.742 167.567 188.086 163.566 188.891 180.679C189.2 187.265 189.23 189.667 187.351 196.497C192.16 187.04 200.482 171.527 211.294 168.911C219.413 166.947 228.135 166.429 237.011 164.005L240.58 162.175C241.019 162.075 243.086 161.151 243.633 160.918L245.025 160.793C257.554 157.69 264.229 151.972 274.697 144.779C266.114 140.103 258.374 135.594 251.023 129.051C247.598 118.493 246.608 111.146 246.427 99.915C246.365 96.034 248.593 91.3355 247.112 88.781C242.933 89.2335 243.606 89.2115 239.395 88.914Z" fill="#FCEDBF"/>
<path d="M235.928 93.3296L237.311 94.0456C235.197 101.511 227.723 106.105 221.521 109.587C210.89 115.557 206.108 117.117 194.281 118.584L195.05 117.084C197.813 117.091 200.312 116.159 202.962 115.359C206.332 113.804 211.235 112.066 214.789 110.684C225.057 105.553 230.633 103.891 235.928 93.3296Z" fill="#D87189"/>
<path d="M334.937 217.048L335.031 214.928C332.317 194.561 320.201 153.826 293.445 153.826C285.905 155.408 281.707 155.683 277.155 162.836C265.938 180.467 268.262 211.378 279.5 228.499C279.5 225.499 280 223.999 278.965 222.331C280.369 223.204 281.958 228.389 282 229.999C293.094 230.603 318.886 227.887 334.937 217.048Z" fill="#CFC1D9"/>
<path d="M127.954 204.301C123.75 217.576 122.658 225.397 123.496 240.395C124.582 247.276 125.652 252.189 127.306 256.159C128.951 260.104 131.187 263.15 134.666 266.253L133.335 267.745C129.657 264.465 127.232 261.18 125.461 256.929C123.704 252.713 122.604 247.582 121.513 240.654L121.505 240.605L121.502 240.555C120.645 225.283 121.765 217.218 126.047 203.697L127.954 204.301Z" fill="#D87189"/>
<path d="M127.65 205.366C128.457 200.945 128.638 196.414 130.207 192.105C134.483 180.37 140.559 169.151 148.153 159.23C149.498 157.473 152.97 153.342 155.414 154.117C157.5 153.499 168.651 146.968 170.5 147.499C171 149.499 167 155.999 167.354 157.395C171.642 164.742 175.874 165.479 183.426 169.269C193.12 186.872 182.839 205.231 180.19 223.082C176.622 247.131 179.663 274.453 145.675 271.357C142.179 271.043 134.983 270.306 134 265.999L133.5 264.999L132.5 263.999C127.46 260.585 125.278 251.77 124.116 246.086C121.362 232.6 123.46 218.346 127.65 205.366Z" fill="#FCC1BD"/>
<path d="M291.5 153.499L275 145.499L266.5 150.999L260 155.499L250 159.999L244 161.499L235 164.999L219 167.999L210 170.499L204 173.999L196.5 181.999L188.5 196.499L184 209.499L180.5 225.999L180 243.999L181 254.499L184 263.499L190 270.499L201 275.499L214 277.999L225.5 278.499L236 276.999L246.5 273.499L256 267.499L261.5 261.499L270 247.999L278.5 227.499L272.5 214.999L269.5 199.499L269 187.499L272 171.499L277.5 160.499L282 156.499L289.5 153.999L291.5 153.499Z" fill="#FCC1BD"/>
<path d="M174.392 144.522L172.133 145.581C166.406 148.03 160.782 150.108 154.948 152.282C154.015 152.404 153.991 152.401 153.075 152.283L153.045 152.279C151.688 154.731 147.694 157.717 145.821 160.21C137.462 171.333 131.171 183.868 127.247 197.217C126.6 199.393 125.51 202.562 125.626 204.699L127.652 205.365C128.459 200.944 128.64 196.413 130.209 192.104C134.485 180.37 140.561 169.15 148.155 159.229C149.5 157.473 152.972 153.341 155.416 154.116C158 153.499 168.55 147.999 170 147.999C170.5 149.499 167 155.499 167.356 157.395C171.644 164.742 175.876 165.479 183.428 169.268C193.122 186.872 182.841 205.231 180.192 223.081C176.624 247.131 179.665 274.452 145.677 271.356C142.181 271.043 135.056 269.94 134.073 265.634L133 267.499C133.468 268.237 134.863 269.86 136.702 270.445C152.673 275.951 170.549 273.29 176.625 255.304C177.344 253.151 177.985 250.973 178.545 248.773C180.619 258.222 182.683 266.359 191.563 272.032C198.691 276.587 208.696 278.462 217.04 279.008C219.51 279.17 226.153 278.751 228.045 279.179L231.509 278.691C253.495 274.363 263.178 264.615 272.292 244.251C273.958 240.529 277.242 231.391 279.394 228.506L279.328 227.472C268.09 210.351 265.94 180.467 277.157 162.836C281.709 155.683 285.907 155.408 293.447 153.826L276 145.499L274.5 146.499L290 153.499C288.181 153.452 284.205 153.721 282.853 155.178L281.163 156.184C263.469 171.699 265.694 209.587 277.818 227.676C270.563 245.697 263.094 265.647 244.017 273.956C228.579 281.161 189.963 279.153 183.317 260.455C174.617 235.98 185.428 183.422 210.461 170.691C213.48 169.156 231.509 167.127 237.767 165.124L237.014 164.004C228.138 166.429 219.416 166.946 211.297 168.911C200.485 171.527 192.163 187.039 187.354 196.497C189.233 189.667 189.203 187.264 188.894 180.679C188.089 163.566 174.745 167.567 169.45 158.1L168.929 156.969C170.128 150.86 170.874 149.702 174.392 144.522Z" fill="#D87189"/>
<path d="M274.699 144.779L276.237 145.65C274.64 146.481 268.952 150.114 263.94 153.514C258.426 157.254 252.271 161.091 245.63 161.636L245.027 160.793C257.556 157.69 264.231 151.972 274.699 144.779Z" fill="#D87189"/>
<path d="M245.026 160.793L245.629 161.636C242.67 163.137 240.878 164.006 237.765 165.124L237.012 164.004L240.581 162.175C241.02 162.075 243.087 161.15 243.634 160.918L245.026 160.793Z" fill="#D87189"/>
<path d="M237.655 430.401C232.632 435.452 230.064 442.463 229.774 444.968L228.854 448.499C226.657 466.439 229.33 471.944 229.871 481.483C229.902 482.167 229.933 482.84 229.964 483.501C230.864 502.614 231.207 532.532 250.337 532.988C256.563 533.137 264.512 531.779 268.271 527.642C271.937 523.607 277.281 518.35 279.383 490.63C280.342 477.972 281.363 459.609 280.873 449.581C280.3 437.882 278.577 431.209 272.273 426.834C269.427 424.858 266.318 422.945 262.163 423C251.97 423.135 244.048 423.973 237.655 430.401Z" fill="#FCEDBE"/>
<path d="M252 407.999L196.5 477.499C196.5 471.499 198.6 456.099 207 442.499C215.4 428.899 232 411.999 252 407.999Z" fill="#FCC1BD"/>
<path d="M279.393 228.507C282.048 232.547 284.725 261.226 286.415 269.145C280.002 279.692 274.876 292.024 268.852 302.719C268.51 301.976 268.138 301.249 267.735 300.537C260.759 288.307 244.369 282.22 231.508 278.692C253.494 274.364 263.177 264.615 272.291 244.251C273.957 240.53 277.241 231.391 279.393 228.507Z" fill="#CEDAB9"/>
<path d="M228.703 277.777L228.701 277.776C228.701 277.776 228.689 277.814 228.5 278.499C228.316 279.164 228.302 279.217 228.301 279.222L228.303 279.223L228.311 279.225L228.343 279.233C228.372 279.241 228.415 279.254 228.473 279.271C228.587 279.303 228.757 279.351 228.977 279.414C229.415 279.541 230.052 279.727 230.846 279.968C232.433 280.449 234.644 281.144 237.134 282.002C242.124 283.721 248.189 286.077 252.619 288.646C256.926 291.181 259.934 293.304 262.32 295.741C264.7 298.171 266.171 300.624 268 304.499L268.95 302.691C267.306 299.455 265.596 296.943 263.392 294.692C260.868 292.116 257.729 289.913 253.381 287.353L253.376 287.351L252.503 286.857C248.046 284.408 242.319 282.202 237.622 280.584C235.111 279.719 232.882 279.017 231.281 278.532C230.481 278.29 229.836 278.101 229.392 277.973C229.169 277.909 228.997 277.859 228.88 277.826C228.821 277.81 228.776 277.797 228.746 277.789L228.712 277.779C228.708 277.778 228.705 277.778 228.703 277.777Z" fill="#D87189"/>
<path d="M95 316.499C99.8 322.499 124 334.999 134 334.999C135.2 330.999 134.833 319.999 134 314.499L131 300.499L101.5 293.999L100.5 301.499L95 316.499Z" fill="#FCEDBF"/>
<path d="M248.027 853.499C258.149 861.559 270.256 859.779 281.526 855.529L281.47 857.064C267.895 861.694 260.717 863.024 248.036 855.574L248.027 853.499Z" fill="#DC817E"/>
<path d="M248.036 855.574C260.717 863.024 267.896 861.694 281.471 857.064C281.163 866.129 283.271 878.699 281.635 885.334L277.418 887.254C272.255 887.939 267.5 889.999 262.126 887.574C255.5 887.999 248.036 887.254 242.609 884.929C243.669 875.099 246.736 866.409 248.036 855.574Z" fill="#FCEDBE"/>
<path d="M242.83 884.055C246.331 885.276 252.495 886.783 259.511 887.289C266.531 887.796 274.322 887.293 281.13 884.57L281.872 886.428C274.68 889.305 266.554 889.803 259.366 889.284C252.173 888.765 245.837 887.222 242.172 885.943L242.83 884.055Z" fill="#DC817E"/>
<path d="M151.242 840.164C164.98 845.589 171.673 844.499 185.24 839.394L185.019 840.729C174.806 845.399 165.903 847.234 155.251 843.254C153.933 842.769 152.635 842.234 151.359 841.649L151.242 840.164Z" fill="#DC817E"/>
<path d="M185.021 840.729C184.912 846.504 186.677 861.239 186.068 864.944C183 869.499 179.5 871.999 169.924 872.614C168.856 872.564 166 872.964 163.315 872.964C157.271 871.314 153.5 870.999 146.547 867.694C146.78 866.164 148.636 860.364 149.13 858.574C150.881 852.219 151.15 848.169 151.361 841.649C152.637 842.234 153.936 842.769 155.253 843.254C165.906 847.234 174.809 845.399 185.021 840.729Z" fill="#FCEDBE"/>
<path d="M186.5 865.499C181.231 872.876 173.522 874.967 165.822 874.561C158.139 874.155 150.621 871.347 146.027 868.88L146.973 867.118C151.379 869.485 158.611 872.176 165.928 872.562C173.228 872.948 181.769 869.623 186.5 862.999V865.499Z" fill="#DC817E"/>
<mask id="mask1_1456_3850" style="mask-type:alpha" maskUnits="userSpaceOnUse" x="0" y="436" width="59" height="84">
<path d="M17.5 467.499L58.5 487.999L52 500.999L38 514.499L24 519.999L11 517.499L3.5 507.499V495.499L11 481.499V460.499L0 452.499L14 436.499L24 452.499L17.5 467.499Z" fill="#CFC1D9"/>
</mask>
<g mask="url(#mask1_1456_3850)">
<path d="M53.0351 419.204C58.7596 422.859 64.3791 426.676 69.8876 430.65C71.3301 431.709 76.16 435.846 76.8286 436.183C75.0295 442.97 74.7821 450.873 72.2426 457.112C68.2936 466.815 61.8921 475.864 55.8366 484.334C52.8451 488.519 42.8901 509.889 37.2451 508.364C35.5 505.999 48.5 487.499 48.5 480.499C47.2545 480.974 38.0616 499.429 37.2451 500.499L34.6641 505.469C32.6056 508.779 28.3891 515.964 23.7276 515.124C22.5576 514.364 22.2181 514.279 22.2181 513.499V511.539C22.8261 509.304 26.0146 504.274 27.3176 502.049C32.0276 494.004 38.5551 483.344 40.5446 474.249C33.7776 481.944 25.1921 504.079 17.0891 512.084C16.0961 513.064 15.0521 513.104 13.8269 512.924C13.1665 512.139 12.5921 511.684 12.804 510.569C14.0516 503.979 31.4091 477.904 30.5531 472.534L29.8626 472.455C24.7151 476.624 14.2181 503.569 8.4403 504.029C5.8907 502.649 6.449 499.769 7.49475 497.454C14.8701 481.119 24.6526 465.944 29.5406 448.543C29.9636 447.037 30 446.999 30 446.999C30 446.999 30.5 445.999 29.7216 445.821C25.8636 446.053 19.4376 454.246 14.7406 455.436C11.2773 456.314 6.92091 457.066 5.41016 452.791C6.04441 449.364 10.2368 449.31 14.0086 446.568C20.8431 441.419 23.5516 434.625 30.2956 429.184C34.8146 425.539 50.6641 421.96 53.0351 419.204Z" fill="#CFC1D9"/>
</g>
<path d="M301.091 326.475L299.12 315.638L297.157 309.75L296.585 308.401L295.874 306.749C290.539 294.128 288.369 283.409 286.501 271.151C283.473 276.2 280.722 281.65 278.002 287.152C275.263 292.693 272.548 298.292 269.633 303.523L269.667 303.59L268.888 305.067L268.842 305.185C264.851 315.252 262.751 323.341 262.453 331.461C262.155 339.58 263.655 347.803 266.97 358.142C267.441 359.61 267.738 361.893 268.029 363.931C268.179 364.976 268.328 365.977 268.5 366.843C268.675 367.726 268.858 368.389 269.05 368.796L269.35 369.432L269.246 369.534L269.624 371.1C271.671 377.649 274.077 383.935 276.493 390.405L277.223 392.324L277.237 392.356C280.791 400.394 284.906 412.721 286.71 421.505C287.615 423.916 288.03 426.48 288.166 428.994C289.614 436.312 290.87 444.203 291.09 450.855L291.091 450.863C291.161 453.592 291.471 456.581 291.802 459.607C292.13 462.616 292.48 465.667 292.613 468.452C292.824 472.849 293.297 477.259 293.743 481.717C294.188 486.152 294.606 490.628 294.7 495.11L294.779 496.653C296.354 529.055 292.577 561.258 288.354 593.224C287.418 600.3 286.674 607.548 286.294 614.675V614.849C286.218 619.238 286.064 623.613 286.247 627.918C286.932 639.216 288.86 653.87 290.69 665.159C291.24 668.546 291.343 669.352 291.368 669.623C291.388 669.83 291.37 669.686 291.379 669.733C291.398 669.833 291.441 670.043 291.561 670.642C291.831 671.436 292.37 673.879 292.391 676.891C292.58 677.439 292.818 677.986 293.108 678.612C293.417 679.279 293.786 680.045 294.171 680.938C294.949 682.747 295.802 685.11 296.566 688.674C296.678 689.062 296.793 689.709 296.877 690.253C296.968 690.842 297.044 691.431 297.077 691.725L297.951 696.304L297.949 696.408C297.929 697.447 298.283 699.316 298.746 701.465C299.194 703.54 299.73 705.818 299.986 707.493C301.844 719.717 302.111 732.138 300.781 744.432C299.234 759.345 296.041 774.514 292.823 789.644C289.601 804.794 286.353 819.907 284.665 834.792C284.279 838.198 283.67 841.983 283.149 845.695C282.625 849.432 282.187 853.123 282.119 856.439V856.447L282.118 856.455L282.049 858.392C281.935 862.781 282.361 867.948 282.64 872.945C282.918 877.95 283.05 882.837 282.229 886.317L282.264 887.36L282.378 890.886C282.545 891.141 282.685 891.434 282.803 891.711C282.993 892.16 283.184 892.709 283.372 893.311C283.749 894.518 284.137 896.015 284.506 897.528C285.258 900.613 285.915 903.687 286.296 904.879L286.297 904.88C286.6 905.828 286.783 907.36 286.898 908.784C287.017 910.242 287.073 911.708 287.093 912.592L287.1 913.143C287.107 915.864 286.704 918.069 285.956 919.93C285.156 921.92 283.983 923.464 282.588 924.798C281.207 926.118 279.594 927.246 277.931 928.39C276.251 929.544 274.501 930.727 272.741 932.196C271.75 933.024 270.862 934.205 270.001 935.631C269.14 937.057 268.345 938.657 267.504 940.311C265.871 943.521 264.039 947.005 261.3 948.975C259.436 950.531 257.871 951.074 256.39 951.474C254.925 951.871 253.696 952.104 252.179 953.009C251.396 953.475 250.722 954.106 250.041 954.807C249.393 955.476 248.682 956.273 247.938 956.878C247.165 957.505 246.244 958.026 245.092 958.099C243.946 958.172 242.728 957.793 241.37 956.941L241.182 956.822L241.061 956.636C240.805 956.239 240.568 955.887 240.38 955.535L240.354 955.623C240.021 956.723 239.268 957.668 238.372 958.349C237.475 959.03 236.365 959.5 235.237 959.58C234.092 959.661 232.901 959.336 231.983 958.391C231.39 957.781 230.964 956.963 230.716 955.949C230.534 956.555 230.318 957.052 230.021 957.762L229.94 957.953L229.79 958.097C227.757 960.04 225.404 960.93 223.38 960.14C221.583 959.438 220.498 957.594 220.195 955.086C219.918 955.619 219.615 956.172 219.276 956.747L219.264 956.768L219.25 956.79C218.831 957.426 218.141 958.099 217.395 958.611C216.671 959.107 215.721 959.571 214.778 959.549C213.089 959.509 211.736 959.173 210.761 958.481C209.742 957.759 209.248 956.73 209.148 955.587C209.052 954.486 209.318 953.285 209.761 952.093C209.785 952.027 209.812 951.962 209.838 951.895C208.576 954.519 206.647 956.079 204.506 956.739C202.309 957.416 199.974 957.122 198.039 956.202C196.11 955.285 194.491 953.7 193.816 951.694C193.127 949.643 193.477 947.301 195.227 945.046L195.309 944.94L195.416 944.859L196.587 943.979C197.209 943.444 198.459 942.441 199.565 941.512C200.147 941.023 200.705 940.542 201.162 940.121C201.638 939.682 201.945 939.361 202.073 939.183C203.144 937.703 204.071 935.828 205.109 933.845C206.123 931.908 207.237 929.88 208.644 928.3C209.9 926.887 211.667 925.574 213.324 924.346C215.029 923.082 216.622 921.903 217.729 920.69C226.334 911.264 235.647 898.155 240.842 886.43L241.26 885.233C241.817 880.372 242.848 875.782 243.887 871.126C244.933 866.437 245.991 861.672 246.627 856.398L246.61 852.515L246.87 852.688C247.268 849.513 247.426 844.771 247.582 841.944C248.778 820.588 247.588 799.172 244.036 778.08C241.556 764.051 238.763 754.566 237.509 739.739C236.809 731.463 237.431 723.01 238.08 714.828C238.73 706.634 239.404 698.728 238.871 691.384C238.608 690.068 238.086 687.393 237.693 684.765C237.494 683.429 237.326 682.09 237.244 680.939C237.179 680.025 237.162 679.134 237.263 678.448L236.198 676.34L236.165 676.273L236.142 676.203L235.182 673.307C231.002 666.373 229.846 661.542 228.59 653.789C228.356 653.662 228.144 653.54 227.959 653.384C227.659 653.131 227.429 652.808 227.142 652.422L227.091 652.353L227.052 652.277C225.445 649.112 224.297 643.793 223.435 638.496C222.572 633.199 221.97 627.745 221.511 624.195C220.753 620.727 219.638 616.998 218.496 613.172C217.357 609.357 216.193 605.449 215.365 601.689L213.706 594.226C210.736 580.973 207.604 567.395 204.769 553.689C204.781 553.946 204.781 554.224 204.77 554.509C204.749 555.033 204.696 555.646 204.623 556.312C204.476 557.647 204.239 559.242 203.975 560.85C203.453 564.026 202.797 567.445 202.549 568.906L197.609 597.923L197.61 597.924C197.153 600.743 196.794 604.197 196.427 607.602C196.067 610.944 195.696 614.249 195.222 616.772L194.94 639.856V639.872L194.939 639.888C194.759 644.037 193.985 648.473 193.26 652.823C192.53 657.205 191.847 661.507 191.8 665.511C191.787 666.593 192.143 668.164 192.628 669.892C193.032 671.332 193.534 672.909 193.868 674.165L194.001 674.682L194.021 674.765L194.114 676.099C198.296 692.244 201.667 708.725 202.116 725.412C202.582 742.703 197.637 757.886 193.039 773.969C188.63 792.276 186.777 813.018 185.943 831.892C185.911 832.872 185.836 834.547 185.792 836.209C185.747 837.9 185.74 839.451 185.824 840.167L185.831 840.225V842.908C185.783 845.437 186.049 849.44 186.316 853.522C186.581 857.562 186.846 861.682 186.775 864.339V864.342L186.701 866.903C186.89 870.094 187.643 873.415 188.557 876.838C189.465 880.241 190.548 883.792 191.317 887.268C192.863 894.251 193.26 901.372 188.562 907.757C187.228 909.568 185.197 910.73 182.914 911.489C180.628 912.25 178.001 912.637 175.363 912.841C172.721 913.045 170.019 913.069 167.579 913.083C165.115 913.097 162.952 913.102 161.308 913.259L161.309 913.26C150.906 914.255 145.823 918.989 140.263 923.464C137.48 925.704 134.555 927.891 130.812 929.39C127.125 930.866 122.7 931.648 116.883 931.246C113.987 933.024 111.407 934.646 108.622 935.641C105.701 936.683 102.575 937.035 98.5771 936.302C95.6094 935.76 93.4283 933.969 92.7109 931.705C92.6556 931.53 92.6101 931.354 92.5732 931.178C92.2679 931.894 91.8272 932.591 91.1729 933.141L90.7832 933.467L89.0645 933.041L88.8916 932.9C88.3475 932.459 87.787 932.051 87.3799 931.565C86.9172 931.013 86.6485 930.383 86.4551 929.49L86.4268 929.357L86.4346 929.223C86.4782 928.443 86.6601 927.692 86.9434 926.973C86.4769 927.435 86.0288 927.869 85.5996 928.251L85.1064 928.69L83.291 927.835L83.2861 927.207C83.281 926.576 83.2639 926.221 83.2578 925.88C83.2524 925.575 83.2543 925.265 83.3408 924.941C83.4063 924.697 83.5105 924.482 83.624 924.277L83.4834 924.264L83.3301 924.249L83.1885 924.189C81.8231 923.609 81.2573 922.065 81.876 920.737C83.1554 917.998 84.8525 916.048 86.79 914.477C86.7432 914.478 86.6966 914.482 86.6504 914.481C86.2265 914.475 85.723 914.394 85.2949 914.087L84.7852 913.721L84.8926 913.103C85.2862 910.83 86.7898 909.625 88.3779 908.811C89.1558 908.413 90.0057 908.083 90.7754 907.77C91.5678 907.449 92.2926 907.141 92.9297 906.766L93.4551 906.466C96.1388 904.963 99.6464 903.495 102.972 902.023C106.579 900.426 109.968 898.826 112.186 897.117C116.993 893.41 123.571 888.463 129.821 883.255C136.005 878.102 141.787 872.758 145.196 868.173L145.217 868.065L145.219 868.056L145.222 868.045C145.431 867.042 145.96 865.22 146.479 863.485C147.007 861.718 147.529 860.024 147.757 859.198C149.471 852.979 149.739 849.027 149.949 842.582L149.829 841.045L149.838 840.958C150.254 836.628 149.67 826.513 149.477 821.85C148.297 793.495 142.934 765.623 139.604 737.261C137.317 717.776 138.588 706.652 139.172 687.794V687.27L139.178 687.218C139.425 684.892 139.278 682.517 139.191 679.963C139.109 677.523 139.086 674.958 139.588 672.339C138.427 668.672 136.831 663.416 135.492 658.156C134.13 652.804 133.01 647.357 132.921 643.567C132.818 639.156 132.951 635.088 133.003 631.035C133.055 626.99 133.027 622.926 132.619 618.431C130.826 608.596 128.268 599.014 125.728 589.373C123.189 579.737 120.67 570.045 118.989 560.064C117.467 551.933 116.414 543.755 115.357 535.598C110.551 498.466 114.249 461.055 121.376 424.563C122.76 417.478 124.541 410.675 125.498 403.632L125.502 403.603L125.508 403.574L125.844 401.858C126.479 394.947 127.96 387.221 129.114 380.389L129.117 380.372L129.12 380.356L129.604 377.969V377.431C129.008 371.215 129.276 365.71 129.935 360.506C129.688 361.5 129.467 362.275 129.282 362.715C125.219 372.371 118.326 381.971 111.018 391.294C103.866 400.417 96.3427 409.249 90.4795 417.76L90.5244 417.805L88.8184 419.945L87.1436 422.204L87.1426 422.205C83.3487 427.307 80.2563 431.447 77.3633 437.419C76.4942 440.728 75.9963 444.296 75.3906 447.907C74.7857 451.514 74.074 455.147 72.7588 458.378C68.7584 468.208 62.286 477.351 56.2412 485.806C55.5342 486.795 54.3874 488.847 52.9268 491.448C51.4855 494.015 49.7727 497.051 47.9736 499.912C46.1806 502.764 44.2706 505.493 42.4248 507.423C41.5034 508.386 40.5578 509.193 39.6123 509.709C38.6669 510.225 37.6204 510.502 36.5752 510.22L36.2383 510.129L36.0312 509.848C35.7438 509.458 35.6757 509.002 35.6748 508.631C35.6739 508.248 35.7439 507.835 35.8486 507.42C36.0587 506.589 36.452 505.581 36.9453 504.478C37.9346 502.266 39.4154 499.477 40.9229 496.596C42.4404 493.695 43.9943 490.684 45.1689 487.967C45.1775 487.947 45.1859 487.927 45.1943 487.907C44.5483 489.086 43.8655 490.356 43.1855 491.635C41.9082 494.037 40.6477 496.452 39.6484 498.346C39.1503 499.29 38.7165 500.106 38.3809 500.721C38.1122 501.213 37.8675 501.641 37.7031 501.887L35.1426 506.82L35.125 506.854L35.1045 506.888C34.092 508.516 32.4723 511.227 30.5059 513.412C28.5939 515.536 26.0384 517.52 23.1406 516.998L22.9424 516.962L22.7734 516.852C22.6329 516.761 22.5041 516.679 22.3838 516.603C22.2655 516.529 22.1499 516.456 22.0459 516.389C21.8461 516.259 21.6303 516.113 21.4463 515.943C21.2457 515.758 21.0642 515.528 20.9473 515.225C20.8359 514.938 20.8086 514.65 20.8086 514.389V512.295L20.8438 512.166C21.1873 510.904 22.2072 508.976 23.2295 507.184C24.2623 505.375 25.4184 503.503 26.0449 502.434C29.802 496.016 34.6022 488.106 37.4082 480.674C36.8263 481.609 36.2298 482.611 35.623 483.669C33.7497 486.934 31.7995 490.652 29.791 494.411C25.8105 501.861 21.5656 509.553 17.3828 513.685C16.7539 514.306 16.0712 514.658 15.3359 514.808C14.6275 514.953 13.9238 514.898 13.2725 514.803L12.8975 514.748L12.6523 514.457C12.4009 514.158 11.9698 513.711 11.71 513.255C11.3903 512.693 11.2628 512.058 11.4121 511.272C11.5902 510.332 12.0372 509.118 12.6348 507.752C13.2397 506.369 14.0278 504.767 14.9268 503.031C16.7231 499.562 18.9932 495.499 21.1807 491.504C23.3757 487.495 25.4887 483.554 26.999 480.286C27.7545 478.651 28.3476 477.209 28.7246 476.026C28.8006 475.788 28.8636 475.565 28.9189 475.358C28.6661 475.677 28.3972 476.042 28.1123 476.451C27.3449 477.554 26.5063 478.922 25.6133 480.472C23.8225 483.578 21.864 487.321 19.8564 491.002C17.862 494.658 15.8233 498.247 13.9092 500.955C12.9533 502.308 12.0029 503.477 11.0801 504.334C10.1844 505.165 9.17788 505.831 8.11035 505.916L7.81543 505.939L7.55566 505.799C5.92824 504.918 5.27169 503.506 5.21094 502.023C5.15324 500.613 5.62692 499.145 6.1748 497.933C9.87114 489.746 14.1918 481.806 18.1465 473.844C22.1161 465.851 25.7504 457.772 28.1689 449.162C28.35 448.517 28.4629 448.134 28.5332 447.903C27.9826 448.104 27.3262 448.459 26.5625 448.973C25.394 449.758 24.1223 450.808 22.7764 451.928C21.448 453.033 20.0507 454.204 18.6895 455.17C17.3404 456.127 15.9355 456.951 14.5771 457.296C12.8512 457.733 10.7225 458.193 8.79688 457.927C7.81336 457.791 6.84416 457.461 6.00098 456.815C5.15257 456.165 4.49213 455.24 4.05859 454.014L3.96875 453.762L4.01758 453.499C4.42625 451.291 6.0261 450.228 7.68359 449.415C9.41193 448.567 11.2102 447.955 13 446.656C16.2999 444.169 18.6148 441.282 20.9912 438.258C23.355 435.249 25.7844 432.099 29.2588 429.296C30.5106 428.286 32.4674 427.334 34.6309 426.44C36.8184 425.537 39.3235 424.653 41.7305 423.808C44.1517 422.957 46.4667 422.146 48.3262 421.379C49.2551 420.995 50.0484 420.632 50.6709 420.289C51.0585 420.075 51.3469 419.882 51.5557 419.721L51.6963 419.441L52.6602 417.515L52.6953 417.533C53.8709 415.154 55.3775 412.617 56.834 410.071C58.5051 407.15 60.1252 404.19 61.2324 401.285L61.8408 399.649L61.8496 399.627L61.8594 399.604C65.3123 391.546 69.7816 381.107 72.2266 372.872C78.7995 350.729 80.4766 336.303 93.8701 316.178C94.3499 314.698 94.8784 313.423 95.4238 312.211L99.1133 302.149L100.158 294.314C99.8033 282.416 100.563 269.814 102.317 258.075C102.997 253.526 104.134 249.062 105.244 244.681C106.359 240.282 107.446 235.967 108.065 231.636C108.408 229.236 108.354 225.9 108.148 222.449C107.945 219.041 107.6 215.616 107.375 212.971L107.091 211.767L107.063 211.654V211.537C107.068 194.256 110.626 176.082 123.78 163.397C131.896 155.571 141.652 153.369 152.253 152.18L152.364 153.173L152.367 153.198V152.173H152.73L152.793 152.182C153.274 152.243 153.438 152.262 153.598 152.263C153.743 152.263 153.898 152.245 154.3 152.193C160.093 150.035 165.652 147.979 171.31 145.56L173.507 144.53C176.135 142.976 178.806 141.663 181.485 140.324C184.187 138.974 186.91 137.593 189.693 135.881L189.791 135.82L189.901 135.784L190.591 135.555V119.562C187.022 119.869 184.405 119.498 182.546 118.809C180.55 118.069 179.347 116.925 178.922 115.808L178.507 114.807C174.209 104.318 169.513 89.2625 167.951 78.3944C167.78 77.3528 167.836 76.0116 167.977 74.62C168.12 73.198 168.363 71.6284 168.604 70.1151C168.846 68.5888 169.084 67.1252 169.229 65.8681C169.379 64.5809 169.411 63.6512 169.312 63.1298C166.868 52.0895 168.267 45.9222 170.258 35.4648C174.08 15.3868 190.406 3.48572 208.279 0.659088C226.138 -2.16515 245.773 4.02825 256.336 20.3769C263.956 32.1711 263.549 48.6485 261.545 61.664C261.146 64.2539 261.173 66.758 260.955 69.5107C260.745 72.153 260.306 74.8636 258.962 77.496C258.09 81.0013 255.921 83.8985 253.622 86.08C251.672 87.9299 249.581 89.3097 247.983 90.1523C248.176 90.8166 248.228 91.5202 248.208 92.2148C248.182 93.1465 248.024 94.1382 247.841 95.1112C247.462 97.1253 246.99 99.0421 247.019 100.789C247.196 111.845 248.16 119.063 251.48 129.372C258.668 135.732 265.575 139.883 274.046 144.498L275.536 145.255L293.27 153.718C307.106 153.835 317.008 164.416 323.73 177.164C330.513 190.028 334.246 205.425 335.613 215.686L335.625 215.774L335.526 217.982C335.189 226.156 336.42 232.602 337.96 239.133C339.499 245.659 341.364 252.329 342.204 260.79C343.749 276.354 344.501 282.174 345.426 297.172L345.483 297.159L346.574 309.167L350.029 318.543L352.551 326.107L352.56 326.142L352.968 327.743L355.058 335.633L355.065 335.662L355.071 335.692L357.071 345.692L357.081 345.74L358.586 360.789L358.592 360.849L358.591 360.908L357.591 413.408V425.389L357.654 427.229L357.655 427.23L357.682 427.847C357.957 434.263 358.657 442.49 360.158 449.043L360.247 449.071L360.853 450.473L360.999 450.766C362.363 453.48 364.276 455.851 366.229 458.404C368.157 460.925 370.104 463.602 371.338 466.806C372.715 470.381 373.341 474.68 373.91 478.903C374.486 483.18 375.005 487.387 376.13 490.987C376.447 492.001 376.941 493.078 377.493 494.226C378.034 495.352 378.635 496.555 379.101 497.737C380.02 500.069 380.586 502.727 378.867 505.033L378.723 505.227L378.505 505.334C376.654 506.24 374.802 505.887 373.135 504.829C371.507 503.796 369.975 502.054 368.563 499.983C367.132 497.882 365.767 495.357 364.509 492.693C365.857 503.309 365.722 514.501 364.393 523.741C363.547 529.617 362.211 534.768 360.43 538.497C358.688 542.142 356.327 544.81 353.259 544.9L353.108 544.904L352.964 544.864C352.438 544.719 352.144 544.322 351.993 543.992C351.846 543.67 351.776 543.3 351.74 542.946C351.667 542.231 351.704 541.28 351.795 540.177C351.977 537.962 352.409 534.821 352.838 531.113C353.372 526.5 353.911 520.914 354.014 514.808C353.643 518.135 353.192 521.856 352.604 525.537C351.768 530.763 350.649 535.982 349.07 539.914C348.282 541.878 347.354 543.587 346.239 544.82C345.114 546.065 343.735 546.889 342.091 546.889H341.698L341.411 546.622C341.176 546.403 341.06 546.129 340.998 545.953C340.928 545.754 340.88 545.532 340.844 545.31C340.771 544.864 340.731 544.302 340.713 543.661C340.677 542.373 340.727 540.648 340.837 538.651C341.057 534.651 341.523 529.468 342.053 524.299C342.208 522.784 342.37 521.269 342.532 519.782C342.33 521.322 342.143 522.848 341.952 524.344C341.514 527.782 341.042 531.066 340.238 533.876C339.436 536.68 338.272 539.135 336.365 540.814C335.545 541.537 334.523 541.696 333.605 541.469C332.764 541.26 332.003 540.73 331.473 540.008L331.37 539.86C330.845 539.073 330.614 538.126 330.717 537.185L331.591 529.202C331.573 529.26 331.557 529.319 331.539 529.377C331.056 530.922 330.486 532.292 329.793 533.295C329.11 534.283 328.165 535.11 326.905 535.11H326.727L326.56 535.049C325.693 534.729 325.261 533.897 325.025 533.157C324.776 532.372 324.648 531.381 324.592 530.295C324.478 528.111 324.639 525.281 324.875 522.338C325.115 519.344 325.424 516.299 325.634 513.477C325.843 510.665 325.936 508.261 325.756 506.673L325.754 506.663C325.154 500.802 323.992 495.32 323.036 489.686C322.085 484.08 321.351 478.383 321.663 472.251C321.818 469.203 322.633 466.697 323.553 464.379C324.469 462.07 325.432 460.062 326.086 457.764C326.086 457.753 326.086 457.743 326.086 457.732C326.086 457.631 326.088 457.497 326.09 457.373C326.092 457.244 326.094 457.125 326.095 457.038C326.095 457.03 326.094 457.022 326.094 457.015L325.745 455.273L325.565 455.242L325.497 454.477C324.934 448.137 323.352 438.039 321.525 431.942L322.483 431.655L322.488 431.653L322.479 431.655L321.494 431.824L321.116 429.625C320.871 428.881 320.743 428.37 320.621 427.882C320.498 427.388 320.38 426.918 320.143 426.205L320.115 426.125L320.103 426.041L319.114 419.618L313.645 402.712L307.145 383.713L307.129 383.667L307.118 383.62L304.618 373.12L304.615 373.11L302.115 362.11L302.1 362.04L302.094 361.969L301.094 349.469L301.091 349.429V326.475ZM216.636 941.457C215.39 942.322 214.343 943.426 213.4 945.664C214.449 944.182 215.578 942.743 216.636 941.457ZM93.6592 926.781C93.5745 926.84 93.4984 926.897 93.4307 926.949C93.4216 927.003 93.4115 927.064 93.4023 927.134C93.4825 927.014 93.5687 926.897 93.6592 926.781ZM100.941 922.977C100.372 923.239 99.8034 923.505 99.2471 923.771L99.6934 923.598C100.087 923.42 100.6 923.168 101.184 922.867C101.103 922.904 101.022 922.94 100.941 922.977ZM356.242 428.788C356.249 428.791 356.257 428.794 356.267 428.799L356.237 428.785L356.242 428.788ZM303.091 349.346L304.081 361.735L306.566 372.667L309.052 383.108L315.537 402.065L315.54 402.073L315.542 402.081L321.042 419.081L321.067 419.157L321.079 419.236L322.066 425.66C322.31 426.4 322.439 426.909 322.561 427.396C322.684 427.89 322.802 428.36 323.039 429.072L323.063 429.144L323.076 429.22L323.448 431.393C325.251 437.421 326.79 447.089 327.414 453.518L327.435 453.522L327.95 456.101L328.778 455.545L328.055 458.156C327.363 460.651 326.282 462.925 325.412 465.116C324.528 467.346 323.8 469.619 323.661 472.352C323.36 478.264 324.065 483.792 325.008 489.351C325.946 494.88 327.134 500.504 327.743 506.448L327.777 506.795C327.932 508.571 327.824 511.003 327.629 513.626C327.422 516.413 327.101 519.604 326.869 522.498C326.634 525.442 326.483 528.153 326.589 530.191C326.642 531.215 326.759 532.006 326.932 532.551C327.017 532.82 327.1 532.975 327.16 533.063C327.422 532.972 327.755 532.727 328.147 532.158C328.671 531.4 329.169 530.253 329.63 528.779C330.548 525.844 331.241 521.887 331.812 517.865C332.096 515.861 332.348 513.855 332.583 511.967C332.818 510.083 333.037 508.311 333.252 506.79C333.466 505.277 333.68 503.972 333.914 503.035C334.029 502.574 334.163 502.144 334.328 501.809C334.41 501.644 334.526 501.447 334.694 501.278C334.866 501.106 335.165 500.892 335.583 500.889L336.707 500.881L332.705 537.403C332.653 537.877 332.77 538.354 333.034 538.751L333.143 538.898C333.408 539.227 333.755 539.445 334.087 539.527C334.446 539.616 334.773 539.551 335.043 539.313C336.532 538.003 337.558 535.976 338.315 533.326C339.072 530.681 339.529 527.538 339.969 524.091C340.839 517.266 341.625 509.291 344.679 502.479L346.573 503.075C346.422 503.875 345.102 514.162 344.042 524.503C343.513 529.663 343.052 534.809 342.834 538.762C342.725 540.741 342.679 542.4 342.713 543.604C342.727 544.098 342.755 544.495 342.792 544.798C343.454 544.625 344.105 544.198 344.756 543.478C345.645 542.494 346.467 541.03 347.214 539.169C348.706 535.451 349.798 530.414 350.628 525.221C351.456 520.041 352.013 514.774 352.457 510.615C352.678 508.542 352.873 506.733 353.059 505.36C353.151 504.675 353.244 504.081 353.34 503.608C353.427 503.179 353.54 502.72 353.718 502.401L355.288 499.585L355.587 502.796C356.597 513.651 355.694 523.834 354.825 531.344C354.388 535.125 353.967 538.168 353.788 540.341C353.699 541.43 353.677 542.224 353.73 542.743C353.734 542.777 353.738 542.808 353.742 542.837C355.407 542.502 357.093 540.842 358.625 537.635C360.284 534.162 361.581 529.234 362.412 523.456C364.073 511.911 363.837 497.225 361.113 484.6L363.025 484.033C365.019 489.266 367.521 494.902 370.217 498.857C371.57 500.842 372.917 502.322 374.206 503.14C375.368 503.876 376.404 504.037 377.4 503.637C378.291 502.264 378.076 500.59 377.24 498.471C376.808 497.375 376.252 496.26 375.69 495.092C375.14 493.947 374.587 492.752 374.222 491.584C373.034 487.784 372.495 483.379 371.928 479.17C371.353 474.908 370.75 470.845 369.471 467.524C368.349 464.613 366.564 462.135 364.64 459.619C362.831 457.254 360.879 454.83 359.428 452.079L359.361 452.063L358.775 450.708L358.472 450.614L358.339 450.061C356.752 443.443 356.015 435.097 355.712 428.549L355.699 428.544L355.592 425.423L355.591 425.406V413.37L356.589 360.928L355.1 346.035L353.116 336.117L351.034 328.255L351.032 328.246L350.63 326.668L348.152 319.234L344.652 309.734L344.606 309.61L344.595 309.479L343.697 299.617L343.574 299.646L343.503 298.47C342.548 282.637 341.801 276.975 340.214 260.987C339.391 252.695 337.571 246.199 336.014 239.593C334.457 232.993 333.18 226.34 333.528 217.896V217.892L333.618 215.863C332.262 205.758 328.583 190.656 321.961 178.097C315.296 165.456 305.836 155.716 293.038 155.716H292.812L275.645 147.522L275.616 147.54L273.14 146.28L273.593 145.389L273.62 145.334L273.591 145.389L273.112 146.267C264.506 141.578 257.385 137.306 249.948 130.687L249.746 130.507L249.662 130.249C246.202 119.58 245.2 112.132 245.019 100.821C244.986 98.8083 245.529 96.5809 245.875 94.7411C246.055 93.7874 246.187 92.9243 246.209 92.1581C246.23 91.3941 246.138 90.8007 245.928 90.3476L245.329 89.1991L246.288 88.7616C247.749 88.0945 250.088 86.6758 252.245 84.6288C254.405 82.58 256.315 79.9655 257.046 76.9149L257.075 76.7958L257.132 76.6864C258.34 74.369 258.757 71.9301 258.962 69.3524C259.161 66.8471 259.158 64.0252 259.568 61.3593C261.562 48.409 261.847 32.5921 254.656 21.4628C244.613 5.91801 225.846 -0.0950096 208.592 2.6337C191.352 5.36014 175.853 16.7724 172.223 35.8388C170.292 45.9781 169.001 51.7389 171.059 61.7333L171.269 62.7148L171.271 62.7265L171.273 62.7392C171.442 63.6027 171.365 64.8251 171.217 66.0985C171.065 67.408 170.817 68.9231 170.578 70.4286C170.337 71.9475 170.103 73.4637 169.966 74.8212C169.844 76.0263 169.808 77.0373 169.887 77.7831L169.928 78.0858L169.93 78.0976L169.932 78.1103C171.512 89.1083 176.401 104.619 180.766 115.034L180.775 115.058L180.784 115.082C180.925 115.473 181.55 116.306 183.241 116.934C184.909 117.552 187.54 117.932 191.473 117.464L192.591 117.331V136.997L190.635 137.647C187.806 139.38 185.049 140.78 182.379 142.114C179.703 143.451 177.126 144.719 174.595 146.211L174.562 146.245L172.148 147.377L172.133 147.385L172.117 147.392C166.365 149.851 160.717 151.938 154.889 154.109L154.781 154.148L154.668 154.164C154.221 154.222 153.911 154.263 153.595 154.263C153.296 154.262 153.004 154.224 152.604 154.173H152.427C141.957 155.351 132.78 157.498 125.169 164.837C112.625 176.933 109.083 194.381 109.063 211.425L109.338 212.582L109.355 212.654L109.361 212.728C109.583 215.339 109.937 218.858 110.145 222.33C110.338 225.575 110.41 228.864 110.11 231.418L110.046 231.919C109.409 236.372 108.293 240.79 107.183 245.172C106.068 249.571 104.958 253.938 104.296 258.37C102.529 270.197 101.777 282.915 102.174 294.873L102.217 296.146L101.939 296.088L101.082 302.521L101.067 302.63L101.029 302.733L97.2871 312.938L97.2754 312.972L97.2607 313.005C96.7119 314.223 96.1932 315.472 95.7295 316.924L94.8809 316.652L94.8594 316.674L95.6094 317.174C82.366 337.03 80.8032 351.01 74.1445 373.441C71.6629 381.799 67.148 392.337 63.7109 400.358L63.1045 401.99L63.1016 401.998C61.9334 405.063 60.2423 408.141 58.5703 411.064C56.8823 414.015 55.2277 416.787 54.0498 419.336L53.8027 419.868L53.5488 420.478L53.4883 420.625L53.3838 420.746C52.9672 421.23 52.3308 421.657 51.6357 422.04C50.9201 422.434 50.0506 422.831 49.0898 423.227C47.1696 424.02 44.7956 424.85 42.3936 425.694C39.9771 426.543 37.5237 427.41 35.3945 428.289C33.2414 429.178 31.5223 430.04 30.5146 430.852C27.2452 433.49 24.9487 436.457 22.5635 439.493C20.1914 442.512 17.7343 445.594 14.2012 448.256L14.1875 448.266C12.2094 449.704 10.0302 450.491 8.56445 451.21C7.13606 451.911 6.33215 452.545 6.04297 453.605C6.35525 454.37 6.76447 454.881 7.2168 455.227C7.72349 455.616 8.34407 455.845 9.07129 455.945C10.567 456.152 12.348 455.798 14.085 455.357C15.0749 455.106 16.2349 454.46 17.5322 453.539C18.8175 452.627 20.1494 451.512 21.4971 450.391C22.827 449.284 24.1781 448.166 25.4463 447.313C26.6838 446.481 28.001 445.787 29.252 445.712L29.3955 445.703L29.5361 445.735C29.9749 445.836 30.3495 446.092 30.5654 446.497C30.7575 446.857 30.7622 447.222 30.7393 447.458C30.7029 447.832 30.5677 448.157 30.5107 448.281C30.5094 448.285 30.5077 448.29 30.5059 448.296C30.4986 448.318 30.4887 448.349 30.4746 448.394C30.4172 448.578 30.3054 448.953 30.0947 449.703C27.6253 458.494 23.925 466.705 19.9375 474.733C15.9351 482.792 11.6759 490.608 7.99707 498.756C7.49933 499.858 7.17097 500.988 7.20996 501.941C7.24202 502.724 7.5137 503.378 8.2207 503.864C8.58771 503.75 9.08602 503.455 9.71875 502.868C10.4958 502.147 11.3545 501.104 12.2754 499.801C14.1152 497.197 16.1053 493.702 18.1006 490.044C20.0828 486.41 22.0752 482.605 23.8809 479.473C24.7858 477.903 25.6565 476.479 26.4707 475.309C27.2739 474.154 28.0669 473.181 28.8242 472.567L29.1504 472.304L31.0117 472.517L31.1309 473.267C31.2779 474.189 31.03 475.381 30.6309 476.634C30.2176 477.93 29.5852 479.457 28.8145 481.125C27.272 484.462 25.1278 488.46 22.9346 492.465C20.7339 496.484 18.4843 500.51 16.7021 503.951C15.8119 505.67 15.0465 507.228 14.4668 508.554C13.9532 509.728 13.6068 510.673 13.4385 511.364L13.377 511.645C13.3144 511.974 13.3684 512.125 13.4482 512.266C13.5034 512.362 13.5853 512.474 13.7148 512.628C13.7777 512.703 13.8458 512.779 13.9238 512.868C14.3245 512.909 14.649 512.907 14.9355 512.849C15.2766 512.779 15.6136 512.621 15.9775 512.262C19.8975 508.389 23.9966 501.011 28.0264 493.469C30.023 489.732 31.9948 485.973 33.8877 482.674C35.7754 479.384 37.6224 476.482 39.3848 474.478L41.9395 471.573L41.1123 475.352C39.0804 484.641 32.4427 495.466 27.7715 503.444C27.095 504.599 26.0049 506.355 24.9658 508.176C23.958 509.941 23.1088 511.583 22.8086 512.572V514.389C22.8086 514.431 22.8107 514.461 22.8125 514.481C22.8615 514.525 22.95 514.591 23.1318 514.709C23.2241 514.768 23.3272 514.834 23.4512 514.912C23.5212 514.956 23.5967 515.004 23.6768 515.056C25.3879 515.264 27.2072 514.088 29.0195 512.074C30.8319 510.06 32.3432 507.539 33.3887 505.857L35.9482 500.928L35.9883 500.851L36.041 500.782C36.0441 500.778 36.0585 500.756 36.0879 500.709C36.1215 500.655 36.1646 500.583 36.2178 500.491C36.3241 500.308 36.4607 500.063 36.625 499.762C36.9533 499.16 37.382 498.356 37.8799 497.412C38.8729 495.53 40.1414 493.1 41.4199 490.695C42.6985 488.291 43.9974 485.892 45.0566 484.062C45.5849 483.15 46.0628 482.363 46.4541 481.782C46.6485 481.494 46.8339 481.237 47.0029 481.036C47.0871 480.936 47.181 480.834 47.2803 480.744C47.3645 480.668 47.521 480.535 47.7344 480.454L49.0908 479.937V481.389C49.0908 483.367 48.1945 486.008 47.0049 488.76C45.7966 491.554 44.2096 494.629 42.6953 497.523C41.1709 500.437 39.7288 503.154 38.7715 505.295C38.2915 506.368 37.955 507.25 37.7881 507.91C37.7497 508.062 37.7231 508.193 37.7051 508.306C37.9728 508.261 38.2862 508.153 38.6533 507.953C39.3444 507.576 40.1271 506.931 40.9795 506.04C42.6814 504.261 44.5049 501.671 46.2803 498.848C48.0495 496.034 49.7395 493.038 51.1826 490.469C52.6062 487.934 53.8255 485.746 54.6143 484.642C60.6803 476.158 67.0098 467.201 70.9072 457.624C72.1314 454.616 72.8141 451.178 73.418 447.577C74.0156 444.014 74.538 440.269 75.4531 436.816L75.4775 436.724L75.5195 436.638C78.5178 430.425 81.7307 426.131 85.5371 421.012L87.2109 418.754L88.0137 419.349L87.2324 418.726L88.3594 417.31C94.3363 408.518 102.18 399.327 109.444 390.06C116.744 380.749 123.488 371.329 127.438 361.939C127.681 361.363 128.096 359.711 128.604 357.361C129.1 355.06 129.663 352.201 130.21 349.304C131.304 343.507 132.327 337.584 132.621 335.712C132.625 335.685 132.628 335.667 132.633 335.63L132.643 335.563L132.661 335.498C133.196 333.607 133.4 330.008 133.351 326.1C133.301 322.241 133.007 318.23 132.605 315.564L130.195 304.315L130.189 304.289L130.186 304.264C129.746 301.511 129.36 298.604 129.119 295.44C128.739 290.446 129.063 285.61 129.438 280.896C129.816 276.161 130.243 271.568 130.108 266.944C130.339 266.387 130.916 266.054 131.514 266.134L131.786 266.17C132.221 266.613 132.678 267.054 133.16 267.496L133.591 267.891L133.458 268.46C133.259 269.311 133.161 271.38 133.162 273.508C133.162 274.547 133.186 275.562 133.228 276.393C133.27 277.256 133.328 277.842 133.38 278.072L133.423 278.261L133.392 278.452C132.383 284.61 132.529 295.885 133.513 301.978C134.159 305.984 135.057 310.007 135.805 314.292C136.539 318.497 137.089 322.776 136.959 326.913C136.66 336.379 134.831 344.261 133.34 352.081C131.847 359.914 130.677 367.746 131.6 377.293L131.604 377.341V378.172L131.585 378.27L131.081 380.754C129.913 387.665 128.453 395.28 127.831 402.095L127.826 402.146L127.476 403.93C126.509 411.027 124.687 418.045 123.339 424.946C116.234 461.324 112.574 498.502 117.342 535.341C118.334 543.005 119.316 550.626 120.681 558.2L120.958 559.715L120.962 559.732C122.625 569.611 125.12 579.22 127.661 588.863C130.148 598.304 132.678 607.782 134.481 617.51L134.547 617.532L134.606 618.183C135.03 622.807 135.055 626.97 135.002 631.06C134.949 635.162 134.819 639.157 134.921 643.52C135.004 647.061 136.068 652.314 137.43 657.663C138.785 662.987 140.41 668.317 141.571 671.976L141.65 672.224L141.598 672.48C141.094 674.941 141.105 677.393 141.189 679.895C141.272 682.343 141.429 684.884 141.172 687.368V687.855C140.585 706.826 139.326 717.733 141.591 737.027C144.896 765.185 150.292 793.323 151.475 821.767C151.661 826.263 152.252 836.494 151.836 841.054L151.901 841.897L151.972 841.932L151.95 842.572C151.738 849.121 151.467 853.263 149.685 859.729C149.45 860.582 148.911 862.329 148.395 864.058C147.872 865.806 147.375 867.524 147.183 868.432L147.184 868.432L147.121 868.767L147.079 868.991L146.944 869.176C143.397 874.015 137.375 879.564 131.102 884.791C124.813 890.031 118.188 895.013 113.406 898.701C110.966 900.582 107.351 902.272 103.781 903.852C100.151 905.46 96.5541 906.959 93.9414 908.491C93.1649 908.947 92.317 909.302 91.5264 909.623C90.7131 909.953 89.9688 910.244 89.29 910.592C88.3267 911.085 87.6089 911.636 87.1963 912.432C87.3065 912.414 87.4269 912.393 87.5566 912.363C88.3 912.192 89.2026 911.862 90.1338 911.48C91.1005 911.084 91.9186 910.712 92.7178 910.378C93.0884 910.223 93.4405 910.083 93.7363 909.987C93.8835 909.94 94.0399 909.896 94.1914 909.868C94.3153 909.845 94.556 909.81 94.8145 909.871L97.3438 910.467L95.0674 911.72C90.1094 914.449 86.1047 916.409 83.6885 921.583C83.5577 921.864 83.6397 922.14 83.8652 922.291L86.9053 922.588L86.1465 923.927C85.8318 924.482 85.5946 924.866 85.4561 925.102C85.3045 925.36 85.2823 925.425 85.2734 925.458C85.2656 925.487 85.2524 925.549 85.2568 925.827C85.9588 925.142 86.7216 924.358 87.5479 923.515C88.7641 922.273 90.1027 920.929 91.5244 919.704C94.2368 917.366 97.4504 915.278 100.913 915.333L101.249 915.346L101.457 915.357L101.644 915.451L103.898 916.588L103.215 917.538C102.808 918.103 102.237 918.427 101.69 918.631C101.15 918.832 100.55 918.948 100.006 919.042C98.8208 919.247 97.8736 919.375 97.1738 919.796L97.1729 919.795C95.4163 920.854 93.2477 922.298 91.498 923.988C89.7657 925.662 88.5915 927.439 88.4424 929.206C88.5837 929.8 88.7362 930.07 88.9121 930.28C89.1348 930.546 89.4133 930.754 89.9756 931.206L90.2207 931.266C90.7237 930.651 91.0071 929.773 91.1758 928.806C91.2744 928.239 91.3253 927.708 91.3779 927.229C91.4031 927 91.4306 926.767 91.4668 926.565C91.4972 926.396 91.5543 926.115 91.6963 925.871L91.7725 925.74L91.8838 925.638C92.4992 925.072 93.7347 924.34 95.1455 923.59C96.597 922.818 98.354 921.965 100.106 921.16C101.86 920.354 103.619 919.591 105.08 918.999C106.507 918.42 107.734 917.969 108.372 917.831L108.836 917.731L110.52 919.074L109.695 919.865C108.795 920.729 106.992 921.889 105.239 922.915C103.458 923.957 101.599 924.933 100.506 925.426L100.483 925.435L100.46 925.445L97.8896 926.451C97.7727 926.515 97.6802 926.567 97.6025 926.613C97.5258 926.658 97.4217 926.721 97.3359 926.767C97.2351 926.822 97.1064 926.884 96.9463 926.927C96.7868 926.969 96.6392 926.982 96.5078 926.985H96.5059C96.4482 926.986 96.387 926.984 96.3223 926.982C94.5723 928.248 94.2099 929.812 94.6182 931.1C95.0665 932.515 96.5364 933.897 98.9365 934.335C102.6 935.007 105.37 934.679 107.95 933.758C110.58 932.819 113.032 931.263 116.109 929.376L116.385 929.207L116.708 929.231C122.42 929.666 126.631 928.91 130.069 927.533C133.521 926.151 136.253 924.122 139.008 921.905C144.523 917.467 150.041 912.328 161.118 911.268C162.874 911.101 165.146 911.097 167.567 911.083C170.013 911.069 172.648 911.045 175.209 910.847C177.774 910.648 180.217 910.278 182.282 909.591C184.351 908.902 185.953 907.925 186.95 906.571C191.122 900.901 190.873 894.518 189.364 887.701C188.606 884.277 187.558 880.854 186.624 877.353C185.699 873.888 184.899 870.389 184.702 866.973L184.699 866.93L184.7 866.887L184.775 864.284C184.843 861.742 184.587 857.733 184.32 853.653C184.057 849.624 183.783 845.525 183.831 842.889V840.327C183.735 839.419 183.751 837.758 183.793 836.156C183.837 834.487 183.914 832.753 183.945 831.815V831.805C184.781 812.877 186.642 791.977 191.099 773.479L191.104 773.459L191.109 773.439C195.74 757.24 200.572 742.387 200.116 725.466C199.672 708.968 196.333 692.623 192.153 676.501L191.95 675.718L192.078 675.652L192.038 675.081C191.721 673.799 191.194 672.186 190.702 670.432C190.224 668.727 189.783 666.895 189.8 665.487C189.849 661.306 190.56 656.856 191.287 652.494C192.018 648.106 192.765 643.812 192.94 639.815L193.224 616.667L193.225 616.578L193.241 616.491C193.706 614.051 194.072 610.792 194.438 607.388C194.803 604.006 195.168 600.489 195.636 597.603L195.637 597.596L200.576 568.571L200.839 567.097C201.153 565.368 201.603 562.952 202.001 560.526C202.263 558.93 202.495 557.376 202.636 556.094C202.706 555.452 202.753 554.89 202.771 554.431C202.789 553.955 202.774 553.651 202.745 553.494C198.389 529.673 194.579 507.28 193.547 482.947L193.545 482.908L193.547 482.87C193.581 481.874 193.704 480.304 193.969 478.805C194.101 478.055 194.272 477.3 194.493 476.635C194.707 475.99 194.997 475.334 195.414 474.857L197.365 472.628L197.165 475.583C197.098 476.576 197.061 477.515 197.052 478.394C197.59 516.408 207.243 556.229 215.655 593.778L217.318 601.259C218.128 604.934 219.27 608.771 220.413 612.599C221.492 616.213 222.568 619.825 223.339 623.223L223.404 623.245L223.484 623.866C223.952 627.468 224.547 632.884 225.408 638.175C226.268 643.458 227.371 648.439 228.801 651.301C229.106 651.71 229.173 651.791 229.247 651.853C229.329 651.922 229.428 651.976 229.958 652.251L230.405 652.483L230.484 652.98C231.761 660.949 232.827 665.555 236.952 672.371L237.011 672.468L238.017 675.505L239.2 677.849L239.371 678.185L239.275 678.552C239.182 678.91 239.159 679.674 239.239 680.797C239.316 681.874 239.476 683.157 239.672 684.47C240.063 687.092 240.589 689.773 240.846 691.057L240.858 691.119L240.862 691.181C241.417 698.725 240.722 706.819 240.074 714.986C239.424 723.186 238.817 731.481 239.501 739.57C240.668 753.369 243.15 762.314 245.532 775.124L246.007 777.74L246.009 777.748C249.474 798.323 250.706 819.203 249.685 840.039L249.578 842.055C249.405 845.196 249.216 851.302 248.621 854.474V855.076L248.627 856.46V856.521L248.62 856.583C247.971 861.99 246.887 866.865 245.839 871.561C244.788 876.27 243.776 880.792 243.235 885.571L243.223 885.682L242.719 887.126L242.705 887.164L242.688 887.201C237.387 899.184 227.923 912.489 219.206 922.039C217.94 923.426 216.168 924.726 214.515 925.952C212.814 927.213 211.23 928.401 210.138 929.629C208.916 931.003 207.901 932.823 206.881 934.772C205.885 936.675 204.873 938.726 203.694 940.355C203.434 940.715 202.989 941.157 202.518 941.592C202.027 942.044 201.441 942.547 200.852 943.043C199.64 944.06 198.468 944.997 197.856 945.526L197.83 945.549L196.732 946.371C195.415 948.121 195.268 949.736 195.712 951.057C196.179 952.447 197.354 953.661 198.898 954.396C200.438 955.129 202.256 955.34 203.917 954.828C205.551 954.324 207.118 953.095 208.156 950.775C208.521 949.96 209.245 948.848 209.893 947.833C210.579 946.756 211.197 945.761 211.494 945.039C212.626 942.284 213.976 940.842 215.622 939.726C216.41 939.193 217.266 938.734 218.128 938.258C219.003 937.774 219.925 937.249 220.928 936.553L222.251 938.033C221.015 939.445 216.242 944.578 213.336 949.394C212.614 950.591 212.024 951.742 211.635 952.789C211.242 953.847 211.081 954.729 211.141 955.413C211.197 956.054 211.442 956.512 211.918 956.849C212.437 957.218 213.336 957.514 214.825 957.55C215.139 957.557 215.661 957.374 216.264 956.961C216.834 956.57 217.316 956.081 217.568 955.705C218.624 953.91 219.333 952.335 219.934 950.895C220.528 949.471 221.048 948.096 221.69 946.836C223.032 944.202 224.93 941.996 229.299 939.648L230.508 941.207C227.37 944.614 226.275 946.258 225.462 947.829C224.668 949.362 224.032 951.084 222.128 954.237C222.271 956.749 223.194 957.92 224.107 958.276C225.049 958.644 226.537 958.371 228.261 956.785C228.63 955.907 228.803 955.496 228.973 954.707L229.045 954.344C229.14 952.587 230.058 949.952 231.279 947.7C231.911 946.536 232.652 945.419 233.455 944.535C234.239 943.673 235.18 942.923 236.229 942.684L239.502 941.939L237.171 944.353C235.837 945.735 234.762 947.672 233.96 949.586C233.191 951.419 232.702 953.162 232.479 954.232C232.568 955.707 232.978 956.545 233.418 956.998C233.854 957.447 234.43 957.632 235.096 957.585C235.779 957.536 236.526 957.239 237.162 956.756C237.769 956.295 238.209 955.713 238.409 955.13C238.429 954.837 238.459 954.546 238.506 954.254C239.503 947.91 243.263 944.776 247.715 941.503L249.201 942.758C248.211 944.728 246.95 946.232 245.745 947.743C244.532 949.265 243.326 950.846 242.283 953.073L242.256 953.133L242.221 953.187L241.875 953.728C241.93 954.083 241.993 954.28 242.071 954.452C242.178 954.688 242.322 954.902 242.614 955.353C243.66 955.977 244.406 956.139 244.965 956.103C245.549 956.066 246.083 955.807 246.677 955.325C247.299 954.82 247.866 954.177 248.605 953.415C249.312 952.686 250.136 951.896 251.154 951.29C252.964 950.211 254.519 949.909 255.867 949.544C257.193 949.185 258.465 948.742 260.039 947.423L260.069 947.397L260.102 947.375C262.39 945.746 264.029 942.73 265.721 939.404C266.545 937.783 267.38 936.101 268.289 934.597C269.197 933.093 270.22 931.696 271.458 930.661C273.304 929.12 275.138 927.883 276.798 926.742C278.474 925.59 279.957 924.546 281.205 923.352C282.439 922.172 283.428 920.859 284.101 919.184C284.776 917.505 285.154 915.408 285.093 912.637C285.074 911.78 285.019 910.355 284.904 908.946C284.787 907.503 284.614 906.189 284.391 905.488C283.982 904.209 283.281 900.952 282.562 898.002C282.196 896.497 281.82 895.051 281.463 893.907C281.284 893.334 281.115 892.856 280.961 892.492C280.884 892.311 280.816 892.17 280.758 892.066C280.705 891.973 280.674 891.934 280.669 891.928L280.402 891.65L280.391 891.267L280.227 886.257L280.222 886.119L280.255 885.984C281.031 882.838 280.928 878.191 280.643 873.057C280.361 867.998 279.906 862.513 280.062 857.921L280.087 857.168L280.092 857.166L280.119 856.398C280.189 852.955 280.643 849.166 281.169 845.418C281.698 841.645 282.296 837.94 282.679 834.566C284.38 819.567 287.65 804.356 290.867 789.228C294.089 774.082 297.257 759.017 298.792 744.226L298.793 744.222C300.105 732.098 299.842 719.85 298.01 707.796L297.906 707.172C297.638 705.659 297.196 703.763 296.791 701.887C296.357 699.875 295.949 697.814 295.949 696.486L295.108 692.076L295.101 692.036L295.097 691.996C295.072 691.765 294.994 691.167 294.9 690.558C294.801 689.913 294.7 689.379 294.642 689.203L294.624 689.151L294.613 689.099C293.878 685.666 293.064 683.426 292.334 681.728C291.964 680.868 291.618 680.153 291.294 679.453C290.974 678.763 290.678 678.093 290.444 677.383L290.394 677.23V677.069C290.394 673.976 289.799 671.607 289.66 671.256L289.628 671.173L289.61 671.085C289.488 670.473 289.436 670.22 289.414 670.106C289.382 669.939 289.379 669.833 289.377 669.81C289.359 669.621 289.269 668.891 288.716 665.479C286.88 654.158 284.941 639.431 284.251 628.039L284.25 628.03V628.021C284.063 623.638 284.219 619.171 284.294 614.832V614.612L284.295 614.586C284.679 607.389 285.43 600.081 286.371 592.963C290.662 560.487 294.465 527.935 292.702 495.218V495.201L292.701 495.184C292.61 490.778 292.198 486.362 291.753 481.916C291.309 477.481 290.83 473.009 290.615 468.548C290.485 465.838 290.145 462.859 289.813 459.825C289.484 456.808 289.164 453.739 289.091 450.915C288.875 444.409 287.639 436.619 286.191 429.313L286.177 429.243L286.173 429.171C286.047 426.742 285.65 424.336 284.808 422.125L284.485 421.279L284.606 421.218C282.895 413.244 279.362 402.517 276.132 394.848L276.019 395.019L275.379 393.101L274.624 391.116L274.622 391.11C272.211 384.652 269.777 378.293 267.707 371.666L267.697 371.635L267.188 369.528C266.913 368.9 266.707 368.083 266.538 367.231C266.355 366.307 266.199 365.258 266.05 364.214C265.743 362.072 265.47 360.016 265.065 358.753C261.711 348.29 260.145 339.821 260.455 331.388C260.76 323.071 262.888 314.859 266.817 304.869L266.776 304.786L267.017 304.33L267.413 303.575L267.365 303.48L267.628 303.013C270.611 297.706 273.375 291.998 276.209 286.267C278.977 280.668 281.808 275.054 284.948 269.85C284.105 265.658 283.033 256.739 281.866 248.399C281.261 244.07 280.627 239.88 279.981 236.526C279.659 234.848 279.336 233.395 279.016 232.246C278.686 231.064 278.387 230.308 278.148 229.945L277.849 229.488L278.071 228.989C278.423 228.202 278.902 226.308 278.513 224.309L278.046 222.794L279.92 222.105C280.165 222.678 280.339 223.254 280.456 223.822L282.51 230.477C282.544 230.547 282.566 230.608 282.577 230.641C282.607 230.73 282.633 230.831 282.652 230.912C282.693 231.083 282.736 231.302 282.775 231.496C282.778 231.509 282.781 231.523 282.783 231.536L282.837 231.539L282.983 232.312C284.639 241.047 285.273 248.818 286.545 257.546C289.239 276.045 290.669 289.301 297.717 305.973L298.417 307.597L298.422 307.608L299.012 308.998L299.027 309.035L299.039 309.072L301.062 315.14L301.074 315.21L303.074 326.21L303.091 326.299V349.346Z" fill="#115193"/>
</svg>
