<svg width="358" height="948" viewBox="0 0 358 948" fill="none" xmlns="http://www.w3.org/2000/svg">
<path d="M41.8886 483.705C39.9196 491.77 38.3011 501.635 37.9176 509.98C37.6236 516.965 38.7861 525.015 37.2601 531.84C36.6426 534.605 32.1271 535.665 30.2066 531.21L30.0411 530.82L29.5021 530.885C29.4151 531.815 29.3171 532.745 29.2076 533.675C28.8011 537.06 27.7021 540.31 23.5236 539.77C21.5201 538.76 21.0271 537.065 20.0691 534.975C18.9476 535.405 17.9746 535.84 16.8886 536.335C10.3586 535.78 12.5516 527.5 10.1946 524.96C9.72064 525.1 9.24414 525.23 8.76614 525.355C6.69514 525.89 6.27414 525.8 4.62214 524.84C2.04714 521.04 -0.0418628 507.06 0.000637197 502.63C0.105637 491.54 0.895141 470.74 4.14014 460.623C7.80814 449.184 10.1466 448.687 11.7806 435.376C15.2761 406.899 12.8326 378.39 15.6371 350.05C16.6186 340.471 18.5421 331.013 21.3796 321.812C23.4056 315.173 26.0426 308.854 27.0681 301.94C29.4981 285.558 30.0791 268.921 32.5891 252.574C33.9286 243.854 37.5091 235.51 38.5481 226.793C39.8021 216.273 37.7406 205.835 39.9141 195.252C41.5471 187.3 44.6146 179.322 49.2351 172.62C59.4226 157.843 68.0841 158.551 82.7836 152.249C91.7196 148.418 115.622 135.019 121.897 128.056C128.608 120.609 129.409 96.7632 125.537 87.5227C123.506 82.6752 119.583 78.9892 117.878 73.8932C115.497 66.7787 114.508 58.0582 114.155 50.5752C113.553 37.7837 116.331 23.9707 125.198 14.2612C133.246 5.44784 145.863 0.52734 157.663 0.0453902C170.334 -0.47221 183.577 3.42929 192.98 12.1443C203.85 22.2182 207.631 38.7792 207.361 53.1402C207.304 56.1677 206.373 59.0987 206.1 62.1037C205.771 65.7342 206.286 69.6157 206.408 73.2652C206.513 76.4092 206.307 79.4457 205.705 82.5357C204.677 87.8122 197.53 112.853 195.022 115.421C192.296 118.212 187.72 117.713 184.153 117.753L184.071 132.152C192.091 138.748 201.259 141.573 210.254 146.219C225.905 154.303 243.679 151.009 257.116 163.985C275.799 182.027 273.099 206.882 271.675 230.378C271.215 237.955 276.755 251.715 277.157 259.998C278.667 274.818 279.588 290.258 282.291 304.93C285.89 318.899 295.865 330.026 299.237 345.203C306.095 376.074 307.883 408.414 320.747 437.651C322.566 441.784 335.851 448.352 339.063 452.218C345.704 459.045 345.436 465.799 350.324 473.51C352.154 477.11 357.465 479.825 357.59 484.12C357.697 487.82 353.458 488.645 350.725 488.095C344.479 486.83 341.4 482.12 338.081 477.285C339.578 483.975 340.649 494.22 341.902 501.285C343.139 508.27 347.487 523.36 346.837 529.325C344.512 533.52 343.435 532.95 339.592 531.24C338.388 532.855 339.451 535.005 338.91 535.99C334.632 544.155 329.831 534.935 328.916 535.355C322.777 538.14 321.976 536.915 316.984 527.175C314.922 529.265 314.963 530.045 311.757 529.545C305.265 525.605 290.345 479.575 288.895 470.37C287.332 462.774 290.362 454.113 287.708 446.845C277.809 419.741 259.515 396.627 248.384 370.204C244.973 360.175 240.18 346.797 239.395 336.222C238.168 319.685 234.897 310.336 229.336 295.027C227.676 306.268 222.915 317.022 223.376 329.87C222.86 340.854 228.993 353.362 229.784 363.829C231.879 391.57 240.151 417.259 245.476 444.448C250.008 467.769 251.92 491.525 251.176 515.27C250.194 540.72 246.69 566.01 240.713 590.77C237.568 603.785 233.139 616.585 230.853 629.725C229.405 638.045 231.036 646.32 230.402 654.955C229.648 665.23 225.15 676.775 224.786 686.57C224.023 707.115 226.41 725.59 224.502 746.4C220.676 788.1 208.119 827.745 209.604 870.095C209.799 875.66 211.832 882.055 212.397 888C220.47 894.14 234.832 901.545 244.233 905.335C251.126 908.115 258.074 903.11 264.581 910.3C271.608 912.005 271.382 912.22 274.339 918.855C274.065 921.8 273.034 925.66 271.332 928.125C269.425 930.89 263.341 931.315 260.242 932.33C256.183 933.665 252.766 936.34 248.514 937.15C237.242 939.85 223.553 937.345 212.545 940.595C198.692 944.69 184.207 952.745 169.864 943.74C163.636 939.83 163.867 928.74 165.599 922.48C166.902 917.765 168.437 912.12 169.461 907.265C170.145 903.49 169.781 897.475 170.051 893.38C170.375 888.465 171.848 881.31 171.827 876.58C171.704 848.645 169.548 818.57 164.63 791.12C161.938 776.09 156.786 766.33 156.271 749.69C155.709 731.485 158.299 718.39 162.373 700.73C163.884 694.185 166.138 684.16 166.737 677.595C167.343 670.945 164.114 660.23 164.005 653.22C163.817 641.045 165.117 629.885 163.96 617.635C162.065 597.575 156.696 578.235 153.972 558.355C147.992 580.76 143.184 604.36 137.923 626.97C136.095 634.825 136.71 643.39 134.93 651.56C130.892 670.08 119.733 685.35 120.447 704.875C121.877 727.005 122.61 747.71 115.473 769.07C107.262 793.645 103.687 819.895 102.33 845.665L102.345 855.255C102.234 863.44 105.698 874.035 105.091 880.035C108.509 882.965 117.858 890.455 121.773 891.715C127.26 893.475 128.168 892.65 134.131 895.9C136.583 895.175 139.996 894.235 141.702 896.42C147.27 903.565 141.488 910.08 134.128 910.85C125.955 923.035 116.856 916.085 105.391 922.055C99.6081 924.945 96.7106 931.225 90.8036 934.01C82.4541 937.94 64.7011 937.505 60.6236 927.595C56.4876 917.545 63.6321 906.72 64.9551 896.82C65.5322 892.5 63.8261 887.8 64.1966 883.415C66.1347 873.915 67.4661 867.68 67.2721 857.78C66.8216 834.805 64.5331 812.09 61.1466 789.37C58.2826 770.16 53.8471 751.115 55.0006 731.59C56.1926 707.855 64.2656 689.215 70.6331 666.695C72.3521 660.25 71.8761 653.255 72.6606 646.735C74.0036 635.57 75.1301 625.085 74.0831 613.83C72.0731 592.225 67.7741 571.035 66.1992 549.35C64.5986 527.32 65.9066 505.475 68.5831 483.57C69.5371 475.75 71.2681 468.034 71.9311 460.194C72.1716 457.38 71.0616 451.158 70.6556 448.047C70.0886 443.446 70.0001 438.798 70.3926 434.178C72.3431 413.266 79.2186 399.658 86.8571 380.795C89.3766 374.574 92.0121 363.978 94.0071 357.457C95.6891 351.962 98.7506 340.266 99.1021 334.798C100.285 316.402 90.1191 293.449 82.7146 276.805C80.5126 285.19 77.9851 293.486 75.1381 301.674C72.3736 309.572 68.7086 317.249 68.4666 325.713C68.0966 338.653 68.3616 351.636 65.2626 364.31C62.4311 375.891 57.7241 386.783 53.7771 397.998C50.3036 407.933 47.5436 418.102 45.5181 428.429C45.0271 430.831 43.1826 440.294 43.4106 442.149C44.3781 449.798 51.4241 454.806 52.5361 462.628C54.3256 475.215 53.0676 488.075 55.1626 500.8C55.2961 501.61 55.0321 503.32 54.4016 503.825C44.2146 512.055 42.5611 488.985 41.8886 483.705Z" fill="#115190"/>
<path d="M186.759 136.163L188.32 137.481C196.583 141.485 214.91 151.134 223.098 152.568L224.884 153.209C239.54 155.432 251.519 158.066 261.074 170.792C270.196 182.942 272.712 203.603 270.7 218.344C256.419 212.904 247.256 217.24 232.933 220.952C230.331 221.626 221.863 223.898 219.821 224.797C219.884 222.809 219.975 218.935 218.84 217.28C218.085 218.53 218.212 220.66 218.181 222.187L217.946 223.23C218.725 226.973 218.003 234.365 217.993 238.576C217.971 247.722 218.879 260.329 221.503 269.076C205.62 287.711 185.379 296.271 160.958 297.961C143.332 299.182 119.557 298.989 102.811 292.843C96.8543 290.657 92.4043 286.636 87.8118 284.32C78.1598 265.51 71.6618 242.427 65.9388 221.999C65.6193 220.857 65.4118 219.205 65.1983 218.017L63.4413 218.02C63.4038 220.344 63.7828 221.26 64.4768 223.505L64.4298 224.367C60.6018 224.068 45.4463 217.352 40.4213 216.067L40.3558 214.718C39.9888 186.669 47.9128 164.835 76.4398 156.328L78.2368 155.763C88.5703 152.877 103.074 141.745 113.072 137.437L113.894 136.747C116.148 137.872 121.777 138.999 124.359 139.69C147.001 145.749 165.747 136.512 186.759 136.163Z" fill="#CEDAB8"/>
<path d="M186.761 136.163L188.322 137.481C186.694 137.834 180.324 137.256 178.266 137.68C164.724 140.47 153.435 142.998 139.524 143.163C135.125 160.842 132.429 178.901 131.473 197.094C131.176 203.646 131.717 210.721 131.428 216.655L130.882 216.484C129.756 213.404 130.027 208.132 130.009 204.759C129.894 183.33 134.344 163.643 138.31 142.81C130.912 142.612 119.59 141.019 113.074 137.437L113.896 136.747C116.15 137.872 121.779 138.999 124.361 139.69C147.003 145.749 165.749 136.512 186.761 136.163Z" fill="#A4B8A6"/>
<path d="M40.3558 214.718C39.9888 186.669 47.9128 164.835 76.4398 156.328C67.7068 170.004 63.9918 186.476 63.2983 202.635C63.1673 205.682 63.8853 215.949 63.4413 218.02C63.4038 220.344 63.7828 221.26 64.4768 223.505L64.4298 224.367C60.6018 224.068 45.4463 217.352 40.4213 216.067L40.3558 214.718Z" fill="#CFC1DA"/>
<path d="M40.3555 214.718C45.175 216.33 60.799 221.486 64.4765 223.505L64.4295 224.367C60.6015 224.068 45.446 217.352 40.421 216.067L40.3555 214.718Z" fill="#DA7486"/>
<path d="M76.439 156.328L78.236 155.763C68.877 170.95 65.589 185.224 64.898 203.142C64.706 208.113 65.275 213.054 65.1975 218.017L63.4405 218.02C63.8845 215.949 63.1665 205.682 63.2975 202.635C63.991 186.476 67.706 170.004 76.439 156.328Z" fill="#DA7486"/>
<path d="M135.646 418.688C137.741 413.179 139.403 408.775 142.699 403.818C151.088 391.355 164.126 382.779 178.893 380.012C192.792 377.294 207.252 378.731 220.279 384.737C222.982 385.983 229.245 390.65 232.175 392.62C233.109 397.886 237.27 413.166 237.481 416.746C216.6 429.549 224.957 463.965 193.9 480.795C186.894 484.59 180.697 485.41 172.8 485.89C171.307 485.98 168.901 485.745 167.58 486.32C165.766 485.705 163.561 485.21 161.688 484.68C138.539 478.1 133.277 456.336 133.277 434.786L133.548 432.314C134.141 427.402 134.64 423.567 135.646 418.688Z" fill="#FCEDBF"/>
<path d="M102.812 292.843C96.855 290.657 92.405 286.636 87.8125 284.32C88.0155 284.763 88.7345 286.418 88.961 286.709C98.721 312.554 105.911 329.938 95.805 357.218C93.5485 363.31 92.4305 372.218 89.4615 378.05L89.6955 379.221C110.034 373.464 128.719 392.317 133.337 410.615C133.916 412.912 134.773 415.951 134.702 418.297L135.646 418.688C144.531 396.172 153.345 388.443 173.816 380.73C200.5 374.872 213.057 378.141 232.175 392.62L231.379 389.65C229.855 381.178 229.706 373.133 228.326 364.952C226.804 355.936 223.838 346.306 222.432 337.147C220.128 322.148 225.197 306.946 228.411 292.411C225.979 285.138 223.691 278.366 221.763 270.94L221.504 269.076C205.621 287.711 185.38 296.271 160.959 297.961C143.333 299.182 119.558 298.989 102.812 292.843Z" fill="#CFC1DA"/>
<path d="M87.8125 284.32C92.405 286.636 96.855 290.657 102.812 292.843C119.558 298.989 143.333 299.182 160.959 297.961C185.38 296.271 205.621 287.711 221.504 269.076L221.763 270.94C204.114 290.36 184.215 298.373 157.859 299.657C153.118 299.848 148.371 299.9 143.627 299.813C144.69 308.414 146.992 322.302 146.936 330.576C146.801 332.398 146.64 334.218 146.453 336.036C146.271 334.623 146.104 333.313 145.837 331.911C145.784 333.884 145.758 335.124 145.428 337.061L144.836 337.327L144.266 336.776C144.062 338.042 143.931 341.451 143.762 343.074C143.347 339.873 143.775 337.402 142.982 333.908L142.874 333.447C142.48 321.45 140.149 311.476 139.11 299.915C115.433 299.247 108.787 297.972 88.961 286.709C88.7345 286.418 88.0155 284.763 87.8125 284.32Z" fill="#DA7486"/>
<path d="M144.265 336.776C144.955 328.213 140.535 302.582 141.101 300.174L141.621 300.085C143.225 302.906 145.288 327.193 145.837 331.911C145.784 333.884 145.757 335.124 145.427 337.061L144.836 337.327L144.265 336.776Z" fill="#CFC1DA"/>
<path d="M89.4609 378.05C106.944 371.358 127.544 388.538 132.814 404.366C133.687 406.988 134.384 409.532 135.056 412.21C135.068 412.931 135.142 412.859 135.504 413.563C136.614 412.664 136.984 411.243 137.538 409.857C138.946 407.205 140.328 404.753 142.005 402.244C158.236 378.02 194.653 370.425 220.125 383.511C222.816 384.893 229.182 389.015 231.378 389.65L232.174 392.62C229.244 390.65 222.981 385.983 220.278 384.737C207.251 378.731 192.791 377.294 178.892 380.012C164.125 382.779 151.087 391.355 142.698 403.818C139.402 408.775 137.74 413.179 135.645 418.688L134.701 418.297C134.772 415.951 133.915 412.912 133.336 410.615C128.718 392.317 110.033 373.464 89.6949 379.221L89.4609 378.05Z" fill="#DA7486"/>
<path d="M146.936 330.576C147.752 337.375 146.475 365.598 142.609 370.426C140.989 369.185 141.543 362.815 141.768 360.769C142.775 351.584 142.884 342.677 142.874 333.447L142.982 333.908C143.775 337.402 143.346 339.873 143.761 343.074C143.93 341.451 144.062 338.042 144.265 336.776L144.836 337.327L145.427 337.061C145.757 335.124 145.784 333.884 145.837 331.911C146.104 333.313 146.27 334.623 146.453 336.036C146.639 334.218 146.801 332.398 146.936 330.576Z" fill="#C09897"/>
<path d="M135.055 412.21C136.102 410.533 135.804 405.841 137.302 402.253C137.311 404.79 137.39 407.325 137.537 409.857C136.983 411.243 136.613 412.664 135.503 413.563C135.141 412.859 135.067 412.931 135.055 412.21Z" fill="#BEA6C6"/>
<path d="M167.579 486.32C168.901 485.745 171.306 485.98 172.8 485.89C180.697 485.41 186.894 484.59 193.899 480.795C224.956 463.965 216.599 429.549 237.481 416.746C252.892 476.215 253.437 526.705 239.949 586.865C237.412 598.185 233.676 609.27 231.127 620.34C211.544 632.51 186.776 635.925 166.228 624.185C164.439 601.565 159.783 582.38 155.794 560.195C150.982 533.43 151.124 509.505 151.786 482.535L152.076 482.685C155.902 484.665 163.369 487.665 167.579 486.32Z" fill="#CFC1DA"/>
<path d="M73.6396 461.131C74.3571 462.452 74.9871 463.891 76.1306 464.832C81.7251 473.235 86.8306 477.85 96.5071 481.27C98.5411 481.985 101.389 482.545 103.137 483.19C104.325 484.6 105.659 484.8 107.406 485.035C120.463 486.755 133.13 482.885 144.386 476.495C146.374 478.355 148.012 479.89 150.171 481.57C149.352 497.735 149.732 514.275 150.532 530.43C150.933 538.53 152.996 547.075 152.733 555.205C148.981 576.025 141.896 598.295 138.033 618.995C117.863 629.65 96.0501 627.94 76.2296 617.825C75.3236 613.09 75.0821 604.23 74.2076 598.61C71.2631 579.695 68.3266 560.295 67.4746 541.18C66.2631 513.995 69.3826 487.89 73.6396 461.131Z" fill="#CFC1DA"/>
<path d="M113.895 136.747C117.082 134.642 120.361 132.263 122.87 129.365C129.226 122.022 131.092 100.539 128.636 91.5538C127.393 87.0038 124.997 82.8133 122.942 78.5908C118.713 69.9003 116.636 61.3583 115.97 51.7033C115.098 39.0633 117.616 25.4798 126.198 15.7316C133.86 7.02932 145.134 2.59087 156.55 1.90817C169.039 1.16132 181.853 4.37912 191.325 12.8623C202.037 22.4558 206.134 39.1428 205.694 53.0793C205.583 56.5748 204.315 59.9653 204.188 63.4803C204.061 66.9748 204.762 70.5038 204.937 73.9903C205.08 76.8513 204.547 79.8313 203.938 82.6188C203.124 86.3433 195.865 112.138 194.297 113.801C191.835 116.415 187.518 116.073 184.223 116.209C184.175 112.411 184.034 108.614 183.801 104.822L182.402 105.204C182.394 113.188 182.156 122.533 182.496 130.41C181.373 128.889 179.512 126.212 178.279 124.926L178.335 125.912L177.894 124.79C178.348 128.475 182.915 133.205 185.704 135.374C186.051 135.644 186.403 135.907 186.76 136.163C165.748 136.512 147.002 145.749 124.36 139.69C121.778 138.999 116.149 137.872 113.895 136.747Z" fill="#FDE5C7"/>
<path d="M182.316 115.23H128.316C127.399 120.412 126.389 123.012 124.316 127.23C120.59 131.917 118.322 134.068 113.816 136.73C124.032 140.164 129.567 141.313 138.816 141.73C143.816 141.73 149.999 141.61 155.816 140.73C164.421 139.429 173.464 137.029 181.816 136.73L186.816 136.23L182.816 132.23L182.316 115.23Z" fill="#FCC8A3"/>
<path d="M168.315 53.2303C155.515 42.8303 127.982 47.897 115.815 51.7303C115.015 59.3304 121.316 77.7302 125.317 83.2302C137.317 90.4302 158.982 85.7302 168.315 82.7302C173.649 77.2303 181.115 63.6303 168.315 53.2303Z" fill="#EEA69A"/>
<path d="M180.902 75.7198C176.418 69.4753 180.383 59.0883 186.619 55.4983C190.842 53.0673 194.537 58.7833 193.025 62.1428L192.117 61.9393L190.516 62.1623C192.197 67.5863 187.367 69.8098 190.209 79.2673C190.973 80.9993 191.062 81.9003 191.372 83.7748C190.944 85.2458 190.82 85.3803 189.617 86.3373C185.379 86.9313 183.148 80.8918 181.963 77.5388C181.416 76.8843 181.263 76.4728 180.902 75.7198Z" fill="#FCEDBF"/>
<path d="M180.902 75.7198C176.418 69.4753 180.383 59.0883 186.619 55.4983C190.842 53.0673 194.537 58.7833 193.025 62.1428L192.117 61.9393C191.764 59.9573 191.666 58.3683 190.329 56.8593L189.508 56.8293C188.105 59.5803 186.852 66.1623 185.855 69.4833C186.349 66.9613 187.799 59.8678 186.432 57.8478C182.201 58.2348 179.957 69.4768 180.461 73.1543C180.583 74.0133 180.73 74.8693 180.902 75.7198Z" fill="#EEA69A"/>
<path d="M190.208 79.2673C189.333 79.7208 187.794 79.2533 186.902 78.9768L187.972 78.6568C188.845 77.7068 188.545 76.4303 188.3 74.9293C187.283 68.6838 189.391 68.0003 190.06 61.8928L190.515 62.1623C192.196 67.5863 187.366 69.8098 190.208 79.2673Z" fill="#FCC8A3"/>
<path d="M181.961 77.5388C186.933 80.5998 184.611 83.8818 188.966 84.6498L191.37 83.7748C190.942 85.2458 190.818 85.3803 189.615 86.3373C185.376 86.9313 183.145 80.8918 181.961 77.5388Z" fill="#26649A"/>
<path d="M164.518 699.335C179.768 693.13 210.028 696.215 223.056 705.855C224.048 724.505 223.85 743.775 221.134 762.28C216.263 795.48 207.851 827.61 207.791 861.495L207.761 863.185C198.807 868.27 188.389 869.595 178.538 866.72C177.47 866.41 174.023 865.205 173.354 865.08L173.25 863.165C173.829 847.04 170.005 805.09 165.931 789.71C155.759 751.305 155.472 737.935 164.518 699.335Z" fill="#CEDAB8"/>
<path d="M65.9054 687.675C83.3759 681.69 104.797 689.615 119.076 699.975C118.51 706.73 119.393 716.555 119.694 723.545C120.073 732.38 119.605 741.23 118.299 749.98C116.247 763.475 112.268 771.3 109.536 782.685C105.718 798.595 100.753 827.56 100.895 843.745C100.829 846.365 100.67 849.43 100.834 852.01L100.699 854.005C94.4679 854.8 89.7399 859.615 81.3919 858.885C76.9004 858.49 71.0164 855.105 68.9259 854.915L68.9139 853.105C68.5679 831.72 65.7659 809.31 62.7489 788.17C59.8129 767.595 54.7584 748.045 57.1019 727.015C57.9969 718.98 58.9779 711.475 61.1399 703.59C62.5874 698.305 64.6649 692.935 65.9054 687.675Z" fill="#CEDAB8"/>
<path d="M232.933 220.952C230.331 221.626 221.864 223.898 219.822 224.797L219.937 225.934C218.715 263.323 224.494 278.051 237.374 312.967C238.762 316.732 238.877 321.599 239.565 323.625C239.758 325.926 240.288 333.306 241.073 335.056C243.182 335.983 246.017 337.406 248.234 337.668L249.943 337.526C250.982 337.113 256.445 336.481 258.283 335.969C270.823 332.48 278.254 329.857 287.049 320.446C285.192 316.911 281.829 310.772 281.035 307.076C278.013 293.006 277.669 278.292 276.011 263.963C274.724 252.837 271.326 242.691 270.135 231.745C269.853 229.156 270.353 222.903 270.543 220.081L270.7 218.344C256.42 212.904 247.256 217.24 232.933 220.952Z" fill="#CEDAB8"/>
<path d="M224.885 153.209C239.541 155.432 251.52 158.066 261.075 170.792C270.197 182.942 272.713 203.603 270.701 218.344C256.42 212.904 247.257 217.24 232.934 220.952C230.332 221.626 221.864 223.898 219.822 224.797C219.885 222.809 219.976 218.935 218.841 217.28C218.086 218.53 218.213 220.66 218.182 222.187C217.273 220.528 216.538 217.39 215.888 215.542C209.653 197.816 208.833 166.251 224.885 153.209Z" fill="#CFC1DA"/>
<path d="M223.098 152.568L224.885 153.209C208.832 166.251 209.653 197.816 215.887 215.542C216.537 217.39 217.272 220.528 218.182 222.187L217.947 223.23C212.748 216.088 209.612 198.573 209.992 189.85C210.603 175.841 212.864 162.638 223.098 152.568Z" fill="#DA7486"/>
<path d="M219.82 224.797C221.862 223.898 230.33 221.626 232.932 220.952C247.255 217.24 256.418 212.904 270.699 218.344L270.541 220.081C263.622 210.632 229.052 224.438 219.936 225.934L219.82 224.797Z" fill="#DA7486"/>
<path d="M89.6944 379.221C110.033 373.464 128.718 392.317 133.335 410.615C133.915 412.912 134.772 415.951 134.7 418.297L135.644 418.688C134.639 423.567 134.14 427.402 133.547 432.314L133.276 434.786L132.256 435.529C130.341 448.67 134.645 463.608 142.582 474.26C142.847 474.615 143.122 474.96 143.405 475.3C132.816 480.785 126.277 483.57 113.816 483.58C110.762 483.58 105.846 483.11 103.135 483.19C101.387 482.545 98.5399 481.985 96.5059 481.27C86.8294 477.85 81.7239 473.235 76.1294 464.832C76.0059 463.738 74.0074 457.644 73.6454 456.061C68.8529 435.136 75.0089 412.878 83.3099 393.639C85.1529 389.367 87.4884 383.061 89.6944 379.221Z" fill="#FCEDBF"/>
<path d="M307.585 399.787C300.57 370.688 302.791 347.03 287.05 320.446C278.255 329.857 270.825 332.48 258.284 335.969C256.446 336.481 250.983 337.113 249.945 337.526L248.236 337.668C246.018 337.406 243.184 335.983 241.074 335.056C243.95 362.291 255.299 382.836 268.995 405.773C271.311 409.653 279.078 423.339 280.654 427.369L281.513 429.124C284.855 435.515 287.806 442.103 290.351 448.851C299.312 453.004 312.586 444.323 319.795 439.467C316.349 431.437 314.129 426.041 311.907 417.417L311.689 415.72C310.567 413.424 308.337 402.906 307.585 399.787Z" fill="#FCC8A3"/>
<path d="M281.512 429.124C296.6 426.222 297.597 427.028 311.906 417.417C314.128 426.041 316.348 431.437 319.794 439.467C312.585 444.323 299.311 453.004 290.35 448.851C287.805 442.103 284.854 435.515 281.512 429.124Z" fill="#FCEDBF"/>
<path d="M280.652 427.369C294.125 426.273 300.678 423.645 311.687 415.72L311.905 417.417C297.596 427.028 296.6 426.222 281.511 429.124L280.652 427.369Z" fill="#FBC019"/>
<path d="M12.5107 441.323C22.0562 447.079 31.4722 447.178 42.0447 444.653L42.6742 446.725C53.2742 463.454 51.8527 464.417 52.0252 484.32C52.0667 489.11 53.5382 497.35 53.5947 502.69C44.4752 510.565 44.6222 482.635 42.2592 480.53L41.3312 480.845L40.9592 482.305C38.8572 490.335 37.9827 494.45 36.6852 502.535C35.5392 509.685 37.9597 528.84 34.3417 532.8C30.1972 532.315 30.3112 517.745 29.6772 513.98C27.4527 515.235 28.4247 514.69 27.4907 517.945C27.3257 516.235 27.3232 514.23 26.3212 512.81C26.1622 517.765 26.7637 521.91 27.1777 526.81C27.4617 530.175 28.6927 536.81 24.4662 537.745C19.0247 534.87 19.4027 505.18 19.7487 498.93L18.9032 498.295L18.9902 498.035L19.7097 498.15L19.3872 497.295C16.8212 500.275 16.9467 512.56 17.4922 516.4C18.1682 521.15 21.3177 529.51 17.5247 533.695C10.6072 535.28 11.0262 509.85 10.3317 505.29C9.86318 502.22 12.4892 493.43 9.74018 491.95C7.38268 495.96 9.57218 516.985 9.30118 522.35C8.06718 523.82 8.51268 523.74 6.92618 524.135C-1.52282 519.225 2.73068 470.32 5.71568 460.864C7.30568 455.828 11.7022 448.617 12.4742 443.567L12.5107 441.323Z" fill="#CEDAB8"/>
<path d="M38.4087 482.305C34.532 482.043 31.9782 481.055 32.2594 476.562L32.734 476.484C33.993 477.632 34.1074 478.496 34.5839 480.136C35.553 481.317 37.0312 481.428 38.5714 481.768L38.4087 482.305Z" fill="#9DAEA5"/>
<path d="M32.429 461.73C33.0608 463.403 31.5179 470.079 30.8645 471.917C28.834 477.623 25.4384 483.142 19.8249 485.871C19.7799 485.696 19.9269 485.136 19.9692 484.92C31.6249 476.553 28.4136 466.853 32.429 461.73Z" fill="#9DAEA5"/>
<path d="M290.816 449.028C303.318 447.965 309.399 445.416 319.614 437.73L319.816 439.376C306.539 448.697 305.614 447.916 291.613 450.73L290.816 449.028Z" fill="#FBC019"/>
<path d="M270.241 924.75C266.527 921.055 264.404 922.24 258.828 920.81L259.315 920.47C265.67 919.895 266.718 919.705 271.726 923.595L270.241 924.75Z" fill="#26649A"/>
<path d="M40.42 216.067C45.445 217.352 60.6005 224.068 64.4285 224.367C70.9635 240.411 73.6225 257.698 81.7135 274.625C77.912 288.444 73.6055 301.627 68.7055 315.082C66.5575 320.981 66.663 327.818 66.6105 334.033C59.1945 337.493 50.492 335.673 42.873 333.786L41.7885 333.95C36.6755 333.011 32.785 332.216 28.688 328.797L27.303 328.216C25.733 327.76 23.581 324.5 22.4805 323.069L26.48 311.692L27.9655 307.348C30.952 292.202 31.532 272.242 33.747 256.657C35.286 245.828 38.279 237.168 40.254 226.614C40.6115 224.702 40.4605 218.327 40.42 216.067Z" fill="#CEDAB8"/>
<path d="M22.4803 323.069C23.5808 324.5 25.7328 327.76 27.3028 328.216L28.6878 328.797C32.7848 332.216 36.6753 333.011 41.7883 333.95L42.8728 333.786C50.4918 335.673 59.1943 337.493 66.6103 334.033L66.5093 336.264C66.1973 348.995 65.5698 356.481 62.3773 368.847C59.7643 378.968 44.7518 414.764 45.3203 422.757L44.6633 424.923C43.3068 430.891 41.1878 438.71 42.0418 444.653C31.4693 447.178 22.0533 447.079 12.5078 441.323C13.8803 433.86 14.3108 428.346 14.8658 420.819L14.8178 419.393C15.5303 412.192 15.5693 400.646 15.6078 393.06C15.7348 367.781 16.1158 349.23 22.2123 324.807L22.4803 323.069Z" fill="#FCC8A3"/>
<path d="M166.228 624.185C186.775 635.925 211.543 632.51 231.126 620.34C230.48 623.17 228.131 632.87 228.171 635.29C228.295 642.645 229.436 647.37 228.716 655.08C227.842 664.435 225.189 672.15 223.612 680.865C222.568 686.64 222.965 699.53 223.058 705.855C210.03 696.215 179.77 693.13 164.52 699.335C165.626 692.75 168.028 684.33 168.47 677.795C168.93 670.985 166.195 661.825 165.859 654.705C165.377 644.47 166.215 634.52 166.228 624.185Z" fill="#FCC8A3"/>
<path d="M76.2303 617.825C96.0508 627.94 117.864 629.65 138.034 618.995C135.426 629.665 135.106 639.105 133.617 649.85C132.766 655.985 128.858 664.645 127.206 670.77C121.813 681.92 120.44 687.79 119.077 699.975C104.798 689.615 83.3768 681.69 65.9062 687.675C71.5483 673.405 73.0628 664.08 74.1528 649.2C74.9683 638.06 76.3758 629.355 76.2303 617.825Z" fill="#FCC8A3"/>
<path d="M319.794 439.467C322.799 443.473 335.533 449.787 339.036 454.442C345.545 463.092 345.255 471.055 353.336 479.7C355.835 481.965 355.979 482.27 355.766 485.625C346.73 490.38 339.835 477.21 335.893 471.165C337.918 488.665 340.684 505.565 344.957 522.625C345.554 525.01 346.163 531.205 342.283 530.8C336.288 526.245 331.824 499.32 328.174 493.07L328.059 492.88C327.684 503.055 331.052 512.965 334.175 522.55C335.395 526.295 338.417 530.895 337.205 534.97C336.79 536.37 336.261 536.525 335.093 537.16C326.659 535.675 320.963 500.835 317.832 498.52L317.443 498.99C317.542 507.01 329.129 531.275 326.379 535.11C317.415 535.95 311.566 502.3 307.802 499.4C306.201 500.815 315.535 523.38 314.071 527.805L313.23 528.075C312.928 527.895 312.633 527.71 312.352 527.5C305.571 522.385 291.848 478.765 290.589 469.655C289.638 462.777 291.437 455.801 290.383 449.053L290.35 448.851C299.31 453.004 312.584 444.323 319.794 439.467Z" fill="#CEDAB8"/>
<path d="M353.336 479.7C355.834 481.965 355.979 482.27 355.766 485.625C353.695 484.21 352.148 483.655 351.863 481.115L353.336 479.7Z" fill="#D2D9BB"/>
<path d="M68.9262 854.915C71.0167 855.105 76.9007 858.49 81.3922 858.885C89.7402 859.615 94.4683 854.8 100.699 854.005L100.849 854.49C100.852 864.81 103.122 869.625 103.45 876.98C103.447 881.475 101.802 882.01 101.568 885.4L103.723 883.25L103.815 882.475L104.54 881.995C112.821 887.75 119.234 892.28 127.853 897.85C128.372 897.725 128.894 897.61 129.417 897.505C136.36 896.18 148.77 896.775 139.355 907.27C137.9 908.895 135.108 908.835 132.971 908.935C126.433 921.27 117.2 914.97 106.951 919.06C101.126 921.385 98.1757 925.92 93.8917 929.985C89.6467 934.01 83.5298 934.78 77.9538 934.48C73.8022 934.25 66.3497 933.175 63.7227 929.565C57.8557 921.515 64.0857 908.275 66.0317 899.74C67.3867 893.795 68.5722 889.2 69.0602 883.375C69.0852 882.145 69.3703 881.165 68.7278 880.455L67.9627 882.32C67.1012 883.385 67.3402 883.44 66.2632 883.77C66.1707 881.535 67.8482 874.33 68.2562 871.395C69.1177 865.195 69.0622 861.085 68.9262 854.915Z" fill="#CEDAB8"/>
<path d="M103.722 883.25C102.78 886.68 101.654 895.295 98.6953 897.375C99.0973 893.505 100.966 889.73 101.568 885.4L103.722 883.25Z" fill="#A4B8A6"/>
<path d="M26.3186 512.81C26.1526 508.855 25.8036 501.265 27.9706 498L28.7626 497.72C31.1326 499.705 29.7261 510.61 29.6746 513.98C27.4501 515.235 28.4221 514.69 27.4881 517.945C27.3231 516.235 27.3206 514.23 26.3186 512.81Z" fill="#26649A"/>
<path d="M14.8658 420.819C26.1803 426.376 32.3018 427.677 44.6633 424.923C43.3068 430.891 41.1878 438.71 42.0418 444.653C31.4693 447.178 22.0533 447.079 12.5078 441.323C13.8803 433.86 14.3108 428.346 14.8658 420.819Z" fill="#FCEDBF"/>
<path d="M14.8203 419.393C26.0383 424.278 33.0313 426.916 45.3228 422.757L44.6658 424.923C32.3043 427.677 26.1828 426.376 14.8683 420.819L14.8203 419.393Z" fill="#FBC019"/>
<path d="M12.5092 441.323C22.0547 447.079 31.4707 447.178 42.0432 444.653L42.6727 446.725C37.8092 446.583 33.1072 447.878 28.0012 447.748C21.5827 447.584 18.2632 445.557 12.4727 443.567L12.5092 441.323Z" fill="#FBC019"/>
<path d="M173.355 865.08C174.025 865.205 177.472 866.41 178.539 866.72C188.39 869.595 198.809 868.27 207.763 863.185C207.709 874.76 209.184 876.77 210.629 887.34L211.371 889.155C219.85 894.975 231.346 901.61 240.689 905.94C243.787 907.375 251.397 907.36 253.154 908.695L252.577 909.2L253.164 909.86L251.858 910.565C253.526 911.88 259.255 910.955 262.083 911.67C265.231 911.95 267.308 912.325 270.174 913.7L270.298 914.125C268.916 914.445 258.848 912.9 256.183 912.675L255.718 913.425C259.637 914.91 268.989 914.085 272.112 917.56L272.313 918.78L271.827 919.11C269.031 918.095 261.536 914.625 258.737 917.195C262.17 917.56 272.22 918.285 272.056 923.15L271.727 923.595L270.242 924.75C270.473 931.485 263.63 928.89 260.121 930.235C255.729 931.915 253.298 934.525 248.312 935.53C237.286 937.76 226.078 936.135 215.066 938.335C205.138 940.275 197.604 945.5 187.421 946.005C181.627 946.295 174.466 945.95 170.034 941.71C161.811 933.84 169.34 916.9 171.055 907.66C172.09 902.085 172.06 900.065 171.807 894.45L171.474 892.68C173.923 884.515 173.574 873.51 173.355 865.08Z" fill="#CEDAB8"/>
<path d="M207.917 892.985C207.91 904.515 205.744 902.27 203.969 910.62L203.348 910.485C203.326 906.9 205.09 904.19 206.029 900.865C206.457 899.345 206.351 895.99 206.291 894.35L207.917 892.985Z" fill="#A4B8A6"/>
<path d="M262.082 911.67C265.23 911.95 267.307 912.325 270.173 913.7L270.297 914.125C268.915 914.445 258.847 912.9 256.182 912.675L255.371 912.38C256.489 911.65 260.491 911.73 262.082 911.67Z" fill="#D2D9BB"/>
<path d="M253.155 908.695C255.379 908.41 261.118 907.075 261.741 909.835C259.277 910.4 256.219 909.505 253.165 909.86L252.578 909.2L253.155 908.695Z" fill="#D2D9BB"/>
<path d="M67.9605 882.32C67.644 885.79 67.2195 889.25 66.6885 892.69C66.3135 889.66 65.808 886.8 66.261 883.77C67.338 883.44 67.099 883.385 67.9605 882.32Z" fill="#D2D9BB"/>
<path d="M216.01 470.325C212.788 474.825 211.141 481.071 210.955 483.303L210.364 486.449C208.955 502.432 210.67 507.336 211.017 515.834C211.068 517.425 211.12 518.944 211.175 520.399C211.739 535.576 208.967 561.218 224.146 561.721C228.14 561.853 233.239 560.644 235.651 556.957C238.002 553.362 241.431 548.679 242.779 523.984C243.395 512.706 244.05 496.346 243.735 487.412C243.368 476.99 242.262 471.045 238.218 467.147C236.392 465.387 234.398 463.682 231.733 463.731C225.194 463.851 220.111 464.598 216.01 470.325Z" fill="#FCEDBE"/>
<path d="M173.25 863.165C184.778 868.855 196.634 867.06 207.791 861.495L207.762 863.185C198.808 868.27 188.389 869.595 178.538 866.72C177.471 866.41 174.024 865.205 173.354 865.08L173.25 863.165Z" fill="#DA7486"/>
<path d="M173.354 865.08C174.024 865.205 177.471 866.41 178.538 866.72C188.389 869.595 198.808 868.27 207.762 863.185C207.708 874.76 209.183 876.77 210.628 887.34L211.37 889.155L207.915 892.985L206.288 894.35C190.89 901.67 185.85 898.25 171.806 894.45C171.587 893.287 171.663 892.093 171.943 890.943C173.874 883.002 173.558 872.926 173.354 865.08Z" fill="#FCEDBF"/>
<path d="M212.587 889.371C206.354 896.85 198.126 899.345 190.456 899.443C182.811 899.541 176.099 897.372 171.816 895.23L171.316 892.73C175.367 894.755 183.159 897.537 190.431 897.443C197.677 897.35 205.283 895.01 211.05 888.09L212.587 889.371Z" fill="#DA7486"/>
<path d="M68.9141 853.105C80.3041 859.53 89.7461 857.575 100.835 852.01L100.699 854.005C94.4681 854.8 89.7401 859.615 81.3921 858.885C76.9006 858.49 71.0166 855.105 68.9261 854.915L68.9141 853.105Z" fill="#DA7486"/>
<path d="M68.9245 854.915C71.015 855.105 76.899 858.49 81.3905 858.885C89.7385 859.615 94.4665 854.8 100.697 854.005L100.847 854.49C100.85 864.81 103.12 869.625 103.448 876.98C101.743 879.03 101.256 880.495 98.951 881.97C88.604 888.59 80.1985 885.42 69.0585 883.375C69.0835 882.145 69.3685 881.165 68.726 880.455L67.961 882.32C67.0995 883.385 67.3385 883.44 66.2615 883.77C66.169 881.535 67.8465 874.33 68.2545 871.395C69.116 865.195 69.0605 861.085 68.9245 854.915Z" fill="#FCEDBF"/>
<path d="M65.8164 879.148C79.3757 887.468 90.616 884.937 103.816 877.73L103.655 880.314C96.2374 881.343 90.6089 887.578 80.6709 886.633C75.324 886.122 68.3193 881.738 65.8307 881.492L65.8164 879.148Z" fill="#DA7486"/>
<path d="M287.316 319.73C271.316 339.33 242.316 340.73 241.316 335.23C240.316 329.73 238.923 321.755 236.316 310.73L279.816 299.73C280.316 308.73 284.483 316.23 287.316 319.73Z" fill="#FCEDBF"/>
<path d="M66.8164 334.23C44.3164 341.23 26.3164 329.23 22.3164 323.23L28.3164 304.23L68.8164 314.73L67.3164 321.73L66.8164 334.23Z" fill="#FCEDBF"/>
<path d="M169.817 941.73C165.509 937.47 165.349 932.556 167.318 922.73C188.918 922.73 189.983 938.564 187.816 946.23C178.873 946.977 174.901 946.032 169.817 941.73Z" fill="#FCEDBF"/>
<path d="M64.3149 930.23C60.0062 925.97 60.8439 920.556 62.8131 910.73C84.4131 910.73 84.9816 927.064 82.8149 934.73C73.8715 935.477 69.3986 934.532 64.3149 930.23Z" fill="#FCEDBF"/>
<path d="M199.817 930.23C187.017 938.63 196.983 941.397 203.817 941.73C222.816 934.73 236.816 938.23 245.315 936.23C255.535 933.825 249.481 928.897 245.315 927.23C235.482 924.73 212.617 921.83 199.817 930.23Z" fill="#FCC8A3"/>
<path d="M92.9962 914.205C85.0894 924.831 93.5219 925.532 98.921 924.505C111.995 914.006 120.693 919.336 126.818 915.73C134.183 911.394 128.966 906.015 125.316 905.23C117.053 904.76 100.903 903.578 92.9962 914.205Z" fill="#FCC8A3"/>
</svg>
