<svg width="184" height="140" viewBox="0 0 184 140" fill="none" xmlns="http://www.w3.org/2000/svg">
<path d="M64.2109 5.797L65.5791 9.88391C66.9742 14.0523 69.4439 17.7796 72.7393 20.6886L73.2422 21.1329C75.4607 23.0914 77.2816 25.4585 78.6045 28.1056L80.2559 31.4093C80.7003 32.2986 80.9421 33.2745 80.9688 34.2677C82.4574 42.2982 81.1158 50.597 77.1699 57.7491L72.6982 65.8536C69.0984 72.3783 66.9398 79.5995 66.3682 87.0294L66.165 89.673C65.2718 101.287 68.8686 112.799 76.2129 121.838L77.3779 122.898L77.2188 123.072L77.2773 123.145L77.1562 123.142L76.874 123.453L76.3691 124.008L75.3691 123.099C72.5023 123.018 65.474 122.606 61.3555 122.119C61.2638 122.108 61.1719 122.099 61.0801 122.092C60.8968 122.078 60.7136 122.071 60.5312 122.071C59.7107 122.075 58.9051 122.23 58.1846 122.548C57.9755 122.64 57.7743 122.747 57.5811 122.867C57.4783 122.931 57.3768 122.998 57.2793 123.069C57.1215 123.185 56.9567 123.294 56.7871 123.398C56.6768 123.465 56.5647 123.531 56.4492 123.592C56.3513 123.644 56.2519 123.694 56.1504 123.74C51.0496 126.084 47.0249 127.192 42.8057 127.425C38.6065 127.657 34.2577 127.018 28.5371 125.943L28.5215 125.941L28.5049 125.937C9.04843 121.384 -1.80015 103.784 1.26367 84.5421C3.76042 68.8623 10.7473 55.4051 20.415 44.0304C23.86 39.9771 26.8643 35.5826 28.8027 30.6945C34.1548 17.1985 46.3605 7.6306 60.7441 5.65637L63.3984 5.29211L64.0137 5.20813L64.2109 5.797Z" fill="#FECAC5" stroke="#E26C80" stroke-width="1.5"/>
<path d="M156.891 7.89172V7.8927L148.562 12.2531C146.877 13.1349 145.167 13.9647 143.438 14.7472C139.936 16.331 136.346 17.7098 132.687 18.8771C129.674 19.8378 126.615 20.6582 123.519 21.3282C123.514 21.3292 123.51 21.3302 123.506 21.3312L118.267 22.463L109.154 23.7657C105.86 24.2364 102.662 25.2345 99.6855 26.7228C93.9423 29.5944 89.2336 34.1811 86.2119 39.8468L82.7725 46.2931L79.3145 50.7404L79.8086 51.1251L71.6914 64.3458C67.4069 71.3234 64.8448 79.221 64.2168 87.3849L63.8516 92.132C63.0708 102.282 66.2214 112.344 72.6514 120.236L73.4658 121.235C74.1683 122.098 74.9337 122.907 75.7559 123.655C86.8026 135.169 105.114 141.015 120.796 138.288L120.837 138.281L120.877 138.27C122.38 137.832 123.926 137.439 125.495 137.041C125.601 137.014 125.707 136.987 125.813 136.96C127.064 136.8 128.639 136.735 130.014 136.175L134.818 134.217L135.925 133.767C138.567 132.69 141.019 131.193 143.185 129.335L145.53 127.322C149.243 124.138 152.418 120.376 154.935 116.182L157.504 111.898L156.861 111.512L157.505 111.898L157.509 111.89C159.987 107.64 161.665 102.97 162.457 98.1144L163.307 92.9044C164.715 84.2749 164.463 75.4582 162.567 66.9279L162.379 66.1036L161.28 61.4318L160.562 54.2433C160.562 54.2359 160.561 54.2296 160.561 54.2228V54.2218C160.526 53.8744 160.495 53.5267 160.467 53.1788C160.048 47.9591 160.381 42.7046 161.458 37.5763C161.46 37.5683 161.461 37.56 161.463 37.5519L162.405 33.0743C162.407 33.068 162.408 33.061 162.409 33.0538C163.374 28.482 165.292 24.165 168.037 20.3839C168.041 20.3791 168.044 20.3735 168.048 20.3683L169.71 18.0822C169.95 17.7513 170.203 17.4289 170.463 17.1144C170.627 16.9159 170.794 16.7201 170.966 16.5284C171.52 15.9099 172.113 15.3271 172.74 14.7843C172.828 14.7083 172.918 14.6341 173.007 14.5597C173.372 14.2547 173.749 13.9635 174.137 13.6857C174.485 13.4356 174.842 13.196 175.207 12.9689C175.328 12.8938 175.449 12.8196 175.571 12.7472V12.7462C175.574 12.7449 175.575 12.7435 175.577 12.7423L180.147 10.0382H180.148C180.176 10.0219 180.208 10.0138 180.24 10.0138H180.43C182.07 10.0134 182.66 7.89217 181.343 7.02454L181.209 6.94446L181.178 6.92786L181.145 6.91321L179.524 6.21204C175.912 4.61586 173.354 3.25224 169.536 1.12805L169.519 1.11829L169.501 1.1095L169.275 1.00891C168.135 0.54598 166.827 0.710039 165.832 1.4552L159.059 6.52747L159.051 6.53333C158.713 6.78601 158.364 7.0263 158.006 7.25208C157.648 7.47753 157.281 7.68859 156.906 7.88489L156.891 7.89172ZM156.891 7.89172L156.892 7.8927L156.909 7.88977C156.903 7.89051 156.897 7.89017 156.891 7.89172Z" fill="#FECAC5" stroke="#E26C80" stroke-width="1.5"/>
</svg>
