<svg width="44" height="118" viewBox="0 0 44 118" fill="none" xmlns="http://www.w3.org/2000/svg">
<path d="M14.7242 89.6008C9.28025 93.5918 6.79075 102.704 5.6843 109.043C-0.188388 103.32 3.83258 91.6409 3.14381 90.1715L0.472359 90.8313L0 90.478C2.80884 86.9363 3.92217 85.6884 5.87637 81.5816C12.2986 68.0837 7.78186 56.3401 5.71647 42.5986C3.44202 27.47 11.0277 3.17769 28.394 0.169067C33.5912 -0.829826 40.6944 2.67319 40.3392 8.6762C39.8002 17.7885 34.8704 23.7368 35.674 33.6178C37.7638 59.3188 53.5113 81.5366 32.9033 104.548C31.6333 105.961 30.3187 107.333 28.9614 108.663C29.6323 105.278 31.6306 92.1449 31.0544 89.0807C30.7511 89.2921 19.8094 115 19.0007 117.527C12.5863 108.139 10.9077 100.786 15.3225 89.9376L14.7242 89.6008Z" fill="#FCE0C7" stroke="#AEB6C0" stroke-width="1.5"/>
</svg>
