<svg width="126" height="153" viewBox="0 0 126 153" fill="none" xmlns="http://www.w3.org/2000/svg">
<path d="M0 44.5863C0.33712 41.3484 0.993917 38.1523 1.96119 35.044C9.67867 10.1361 40.0585 -5.72643 64.5921 1.94235C65.9865 2.45521 67.4154 2.93973 68.7349 3.61869C75.5999 4.43122 84.3324 10.9661 88.4417 16.4735C107.113 41.4959 99.524 78.251 78.2721 98.9934C78.3709 96.3753 78.4278 93.6199 78.5996 91.0174C85.4076 86.1337 88.8478 80.5685 91.0055 72.4832L89.7209 70.8172C89.7007 68.013 89.0884 63.5832 86.7006 61.7665C81.1799 59.9759 77.0802 69.5104 74.3828 70.4657C73.078 70.6839 72.7955 70.6517 71.4741 70.5144C68.3096 68.4444 69.4215 61.7573 66.9965 58.3774C66.1959 57.2618 63.6643 53.8796 63.1926 52.9538C60.5025 47.6772 59.1068 42.4351 55.2225 37.8238C53.0345 35.2269 41.7143 25.5246 40.8031 22.8354C40.6579 22.4094 40.5243 21.9798 40.4012 21.547L40.3405 21.3269C38.4074 21.4183 32.5335 24.5666 30.3831 25.0767C23.2333 26.7721 18.5279 26.2263 11.7193 29.4398L7.97744 32.4503L6.68683 31.3815C3.24581 35.9524 2.12928 39.2978 0 44.5863Z" fill="#FCE0C7"/>
<path d="M64.5935 1.94235C65.9879 2.45522 67.4168 2.93973 68.7363 3.61869C56.4847 5.00947 47.6341 8.75982 41.8186 20.3602C46.5677 27.3791 52.4636 31.1325 57.694 37.3795C61.9168 42.4222 64.3138 52.4157 68.7565 58.013C71.3074 61.2266 69.6218 67.2011 74.1652 69.4622L74.3842 70.4657C73.0794 70.6839 72.7969 70.6517 71.4755 70.5144C68.311 68.4444 69.4229 61.7573 66.9979 58.3774C66.1973 57.2618 63.6657 53.8796 63.194 52.9538C60.504 47.6772 59.1082 42.4351 55.224 37.8238C53.0359 35.2269 41.7157 25.5246 40.8045 22.8354C40.6593 22.4094 40.5257 21.9798 40.4026 21.547L40.342 21.3269C38.4088 21.4183 32.5349 24.5666 30.3845 25.0767C23.2347 26.7721 18.5293 26.2263 11.7207 29.4398L10.375 28.089C14.4705 24.1926 28.4605 24.7982 34.971 21.5548C43.5212 17.2946 42.3606 12.8046 49.8741 7.30706C54.3123 4.05978 61.4097 3.66698 64.5935 1.94235Z" fill="#C4C4C9"/>
<path d="M96.1876 23.8919C97.6628 23.4278 98.7786 23.7307 100.221 24.1116C121.788 29.8068 124.148 54.4303 121.927 72.9622C120.979 80.8719 118.258 89.2097 118.466 97.2122C118.653 104.42 121.89 112.39 124.169 119.257C123.434 118.852 122.688 118.681 121.959 118.695C122.687 118.681 123.432 118.853 124.167 119.257C126.327 127.855 125.037 133.827 121.756 141.824C121.311 133.938 120.36 130.486 116.063 123.676L115.15 123.376C114.582 124.655 115.858 129.973 115.677 133.005C115.207 140.899 113.735 145.451 110.256 152.482C102.785 149.23 89.2387 141.436 83.9307 135.544C76.8083 127.637 77.0261 111.309 77.7168 101.272C84.7394 95.7121 90.3517 88.5726 94.0977 80.4348C103.042 61.0043 102.906 44.1592 95.7159 24.5716L96.1876 23.8919Z" fill="#FCE0C7"/>
</svg>
