<svg width="157" height="422" viewBox="0 0 157 422" fill="none" xmlns="http://www.w3.org/2000/svg">
<path d="M75.5325 127.832C76.2033 129.814 76.4696 130.642 77.5241 132.442C83.2098 138.964 91.746 138.574 99.0079 140.097C105.786 141.518 120.089 145.994 124.549 151.403C122.524 156.661 121.156 161.767 121.432 167.485C121.555 170.02 122.057 172.8 122.228 175.373C122.358 177.32 122.098 180.685 122.702 182.401L122.935 183.635L122.766 183.748C121.742 184.453 119.476 186.445 118.767 186.813C114.742 188.899 103.721 193.466 99.6144 194.158C100.034 197.076 100.424 199.998 100.786 202.924C100.276 203.138 100.143 203.193 99.676 203.484C94.5345 206.51 90.4464 209.406 87.3433 214.67L87.8312 215.078C86.4449 217.801 84.8697 222.126 84.7456 225.206L83.8316 225.343C82.2739 225.279 81.5969 225.286 80.0798 224.914C72.7784 222.288 71.5497 213.309 67.6383 207.427C65.2584 203.847 62.8981 199.406 60.8853 195.588L60.3338 195.852C59.4865 193.994 58.6174 192.147 57.7266 190.309L57.8629 188.875C58.1593 186.798 58.2658 184.464 58.4087 182.352C58.4122 181.647 58.5419 180.676 58.6142 179.955C58.424 177.003 57.8431 174.178 58.23 171.194C58.8394 166.492 60.4674 162.601 60.5837 157.812C60.71 152.612 59.2733 148.535 58.6821 143.499C58.2133 139.505 59.0736 134.917 59.5775 130.932C62.7305 132.137 68.4733 133.433 71.6028 131.768L72.1129 131.617C73.9209 130.229 74.5035 129.916 75.5325 127.832Z" fill="#F5C5A3"/>
<path d="M58.6142 179.955C64.4185 197.356 83.4098 196.717 98.2601 193.839L99.3089 193.553L99.6144 194.158C100.034 197.076 100.424 199.998 100.786 202.924C100.276 203.138 100.143 203.193 99.676 203.484C94.5345 206.51 90.4464 209.406 87.3433 214.67L87.8312 215.078C86.4449 217.801 84.8697 222.126 84.7456 225.206L83.8316 225.343C82.2739 225.279 81.5969 225.286 80.0798 224.914C72.7784 222.288 71.5497 213.309 67.6383 207.427C65.2584 203.847 62.8981 199.406 60.8853 195.588L60.3338 195.852C59.4865 193.994 58.6174 192.147 57.7266 190.309L57.8629 188.875C58.1593 186.798 58.2658 184.464 58.4087 182.352C58.4122 181.647 58.5419 180.676 58.6142 179.955Z" fill="#F5C5A3"/>
<path d="M58.6142 179.955C64.4185 197.356 83.4098 196.717 98.2601 193.839L98.6043 194.146C98.3285 194.476 98.4653 194.39 98.2646 194.497C87.6784 197.302 72.8564 197.481 64.0242 190.011L63.8254 190.086L63.7249 190.35C63.1355 189.809 60.6555 185.938 60.0289 185.031C59.438 190.261 58.7074 190.885 60.8853 195.588L60.3338 195.852C59.4865 193.994 58.6174 192.147 57.7266 190.309L57.8629 188.875C58.1593 186.798 58.2658 184.464 58.4087 182.352C58.4122 181.647 58.5419 180.676 58.6142 179.955Z" fill="#F5C5A3"/>
<path d="M58.4091 182.352C58.9627 182.826 59.5095 183.236 59.5236 184.025C59.5482 185.401 59.2302 188.255 57.8633 188.875C58.1597 186.797 58.2662 184.464 58.4091 182.352Z" fill="#F5C5A3"/>
<path d="M98.2617 193.839L99.3105 193.553L99.616 194.158C100.036 197.076 100.425 199.998 100.788 202.923C100.277 203.138 100.145 203.193 99.6776 203.484C99.5499 201.869 98.9001 195.666 98.2663 194.497C98.4669 194.39 98.3301 194.476 98.606 194.146L98.2617 193.839Z" fill="#F5C5A3"/>
<path d="M87.3457 214.67L87.8336 215.078C86.4474 217.801 84.8721 222.126 84.748 225.206L83.834 225.343C85.383 221.132 84.6213 219.659 87.3457 214.67Z" fill="#F5C5A3"/>
<path d="M122.704 182.401L122.936 183.635L122.768 183.748C121.744 184.453 119.477 186.445 118.768 186.813C114.744 188.899 103.722 193.466 99.6161 194.158L99.3105 193.553C107.088 191.263 117.051 188.411 122.704 182.401Z" fill="#F5C5A3"/>
<path d="M75.5329 127.832C76.2037 129.814 76.47 130.642 77.5245 132.442C75.7157 132.201 73.9115 131.926 72.1133 131.617C73.9213 130.229 74.5039 129.916 75.5329 127.832Z" fill="#F5C5A3"/>
<path d="M122.935 183.635C123.651 186.057 124.273 187.513 125.261 189.805C125.603 190.482 126.002 191.19 126.232 191.9C127.363 194.12 128.615 197.525 129.155 199.964C129.629 201.354 129.919 202.8 130.012 204.266C132.45 215.083 128.081 226.611 127.477 237.373C127.326 240.083 127.114 242.858 126.916 245.567C126.544 250.312 126.05 255.045 125.432 259.765C124.287 268.769 121.246 279.856 121.474 288.573L121.464 289.567C113.99 294.487 103.872 296.822 95.5655 292.643L95.3444 292.88L94.7424 290.896C91.6416 283.502 90.4286 270.912 89.284 262.879C88.2489 255.631 87.3574 247.831 86.6301 240.517C86.2356 236.538 86.3975 231.734 86.0578 227.662C85.962 226.531 85.5899 225.906 84.7461 225.206C84.8701 222.126 86.4454 217.801 87.8317 215.078L87.3437 214.67C90.4469 209.406 94.535 206.51 99.6764 203.484C100.144 203.193 100.276 203.138 100.787 202.924C100.424 199.998 100.034 197.076 99.6149 194.158C103.721 193.466 114.743 188.899 118.767 186.813C119.476 186.445 121.743 184.453 122.766 183.748L122.935 183.635Z" fill="#F5C5A3"/>
<path d="M122.935 183.635C123.651 186.057 124.274 187.513 125.261 189.805C124.411 198.272 107.798 199.692 100.787 202.924C100.425 199.998 100.035 197.076 99.6152 194.158C103.722 193.466 114.743 188.899 118.768 186.813C119.477 186.445 121.743 184.453 122.767 183.748L122.935 183.635Z" fill="#F5C5A3"/>
<path d="M100.787 202.924C107.798 199.693 124.41 198.272 125.261 189.805C125.603 190.482 126.002 191.19 126.232 191.9C127.363 194.12 128.615 197.525 129.155 199.964C129.629 201.354 129.919 202.8 130.012 204.267C129.928 204.187 129.841 204.109 129.755 204.029C127.333 200.631 127.009 198.711 122.675 197.538C122.228 197.418 121.779 197.302 121.328 197.192C111.008 200.497 100.527 201.835 92.4123 209.684C90.301 211.727 89.544 213.115 87.8317 215.078L87.3438 214.67C90.4469 209.406 94.535 206.51 99.6765 203.484C100.144 203.193 100.276 203.138 100.787 202.924Z" fill="#F5C5A3"/>
<path d="M126.234 191.9C127.365 194.12 128.616 197.525 129.157 199.964C128.197 200.07 125.319 197.041 121.865 196.59C123.915 195.129 124.638 193.778 126.234 191.9Z" fill="#F5C5A3"/>
<path d="M94.7422 290.896C96.434 292.18 97.818 293.074 99.9908 293.591C105.301 294.857 112.424 293.498 117.317 291.245C118.242 290.819 120.032 289.382 121.081 288.792L121.473 288.573L121.464 289.567C113.99 294.487 103.871 296.822 95.5653 292.643L95.3441 292.88L94.7422 290.896Z" fill="#F5C5A3"/>
<path d="M89.5348 85.2241C98.6709 84.9735 105.586 85.4446 113.997 81.351C116.396 80.1839 123.817 76.2447 125.849 76.311C127.162 77.5133 127.976 78.1861 129.408 79.242L130.53 80.1636C135.619 83.6498 140.421 86.3726 143.558 91.9641C146.937 97.9848 147.03 103.595 147.085 110.295L147.028 111.391C140.259 114.994 129.045 116.88 121.241 117.336L120.849 117.59L120.831 118.374C121.298 120.221 121.141 120.965 121.421 122.416C121.827 132.578 121.565 138.259 124.002 148.592C124.289 149.695 124.46 150.252 124.552 151.403C120.092 145.994 105.789 141.518 99.0106 140.097C91.7487 138.574 83.2125 138.964 77.5268 132.442C76.4722 130.642 76.2059 129.814 75.5352 127.832L75.604 126.658C76.7835 125.862 75.5308 124.605 76.5085 123.235C77.252 113.048 80.3371 99.7819 84.4615 90.4645C85.7616 88.6747 87.7974 86.5807 89.5348 85.2241Z" fill="#F5C5A3"/>
<path d="M130.529 80.1636C135.618 83.6497 140.419 86.3726 143.557 91.9641C146.936 97.9848 147.029 103.595 147.084 110.295L147.027 111.391C140.258 114.994 129.044 116.88 121.24 117.336L120.848 117.59L120.864 116.798C116.91 106.507 114.179 80.7799 130.529 80.1636Z" fill="#F5C5A3"/>
<path d="M147.084 110.295L147.027 111.391C140.258 114.994 129.044 116.88 121.24 117.336L120.848 117.59L120.864 116.798C122.642 116.371 126.108 116.153 128.084 115.884C135.143 114.927 140.891 113.765 147.084 110.295Z" fill="#F5C5A3"/>
<path d="M120.829 118.374C121.297 120.221 121.139 120.965 121.42 122.416C121.826 132.578 121.563 138.259 124.001 148.592C123.077 148.486 116.691 145.023 115.079 144.4C109.479 142.235 104.602 140.533 98.6855 139.475C112.145 138.438 115.473 128.711 120.829 118.374Z" fill="#F5C5A3"/>
<path d="M129.408 79.2419L130.53 80.1635C114.18 80.7798 116.911 106.507 120.865 116.798L120.849 117.59L120.831 118.373C115.475 128.711 112.146 138.438 98.6868 139.475C104.604 140.533 109.48 142.234 115.08 144.4C116.692 145.022 123.079 148.486 124.002 148.592C124.289 149.695 124.46 150.252 124.552 151.403C120.092 145.994 105.789 141.518 99.0106 140.097C91.7487 138.574 83.2125 138.964 77.5268 132.442C76.4722 130.642 76.2059 129.814 75.5352 127.832L75.604 126.658C76.7835 125.862 75.5308 124.605 76.5085 123.235C76.3206 129.046 77.4675 133.293 83.3545 135.835C91.9721 139.556 103.288 140.792 110.611 133.72C114.934 129.546 117.816 122.994 120.251 117.509C116.152 107.339 114.013 87.6158 124.884 80.7625C126.211 79.9264 127.928 79.6464 129.408 79.2419Z" fill="#F5C5A3"/>
<path d="M81.8733 64.0932C75.0022 63.8704 76.0248 59.8785 74.2783 55.1844C71.6802 48.202 69.9467 41.9178 70.4807 34.4044C70.5361 33.6267 69.5042 31.457 69.6091 30.5281C69.9951 26.1325 70.488 20.6955 71.9345 16.5465C74.1413 10.3309 78.7449 5.25739 84.7172 2.45842C90.7388 -0.434258 96.8835 -0.773299 103.172 1.43651C116.656 6.17487 119.638 20.3672 115.133 32.7548C114.538 39.426 112.675 38.9478 111.081 44.0266C110.146 44.4911 109.586 45.0043 108.735 45.5428L106.058 45.6074C104.914 52.5603 102.996 54.8976 97.1913 59.1859C93.68 61.7801 87.6357 65.1853 83.1039 64.8123C82.7087 64.1009 82.5799 64.2241 81.8572 64.199L81.8733 64.0932Z" fill="#F5C5A3"/>
<path d="M109.062 32.8105C112.658 28.6467 114.881 32.6119 114.047 36.2059C113.452 38.7726 111.062 42.9635 108.791 44.4002C107.849 44.9955 107.035 44.9159 105.971 44.9013C106.085 44.0472 106.942 41.6835 107.197 40.5574C107.781 37.9914 108.278 35.3031 109.062 32.8105Z" fill="#F5C5A3"/>
<path d="M107.805 32.7914C109.876 29.3664 112.979 29.4758 115.131 32.7549C114.536 39.4261 112.673 38.948 111.08 44.0267C110.145 44.4912 109.584 45.0044 108.733 45.543L106.057 45.6075C104.912 52.5605 102.995 54.8977 97.1896 59.186C93.6783 61.7802 87.634 65.1855 83.1022 64.8124C82.7071 64.1011 82.5782 64.2242 81.8555 64.1991L81.8717 64.0933C89.971 63.7363 97.7847 59.0843 102.778 52.588C104.208 50.7294 104.798 47.7644 105.32 45.4844L105.97 44.9014C107.035 44.916 107.849 44.9955 108.79 44.4002C111.061 42.9636 113.451 38.7726 114.046 36.206C114.88 32.612 112.657 28.6468 109.062 32.8106L107.805 32.7914Z" fill="#F5C5A3"/>
<path d="M107.806 32.7913L109.062 32.8104C108.278 35.3029 107.781 37.9913 107.197 40.5573C106.941 41.6834 106.084 44.0471 105.97 44.9012L105.32 45.4842C105.058 42.2874 107.268 36.0476 107.806 32.7913Z" fill="#F5C5A3"/>
<path d="M57.7277 190.309C58.6185 192.147 59.4877 193.994 60.3349 195.852L60.8865 195.588C62.8993 199.406 65.2596 203.847 67.6395 207.427C71.5508 213.309 72.7796 222.288 80.0809 224.914L79.4628 225.516C84.477 227.584 85.3998 223.02 85.392 232.09C85.3893 235.2 85.5954 239.146 85.8986 242.24C87.2145 254.812 88.8766 267.344 90.8807 279.824C83.6845 283.671 70.834 287.547 64.6535 280.073C64.3118 277.585 62.6334 273.107 61.7301 270.606C52.0272 243.741 53.0121 217.956 57.7277 190.309Z" fill="#F5C5A3"/>
<path d="M60.8855 195.588C62.8983 199.406 65.2586 203.847 67.6385 207.427C71.5499 213.309 72.7786 222.288 80.08 224.914L79.4619 225.516C79.3709 225.48 79.2797 225.441 79.1887 225.405C77.1855 224.547 75.4237 223.211 74.0582 221.515C72.3833 219.431 69.5435 212.753 68.1265 210.051C65.9214 205.849 62.0604 200.079 60.334 195.852L60.8855 195.588Z" fill="#F5C5A3"/>
<path d="M68.1842 302.502C73.2969 309.205 89.015 303.877 93.1692 297.388C98.0462 313.346 99.2615 320.731 95.4675 337.072C93.9969 343.408 93.8761 358.463 94.3503 364.956C90.2075 368.137 81.9588 370.716 77.3166 367.51C76.0366 351.652 71.1514 337.129 68.8737 321.508C67.9218 314.98 68.1078 309.055 68.1842 302.502Z" fill="#F5C5A3"/>
<path d="M125.019 307.648C133.38 328.134 127.021 342.206 122.65 362.195C121.579 367.1 120.368 372.325 119.762 377.289C119.723 377.674 119.616 379.004 119.52 379.295L119.408 378.917C118.321 378.83 116.157 380.385 114.871 380.524C110.452 381.005 107.379 380.529 103.703 377.909L103.612 377.706L103.929 376.491C104.941 371.575 105.256 363.301 104.827 358.305C104.98 356.274 104.652 353.267 104.467 351.205C103.605 341.679 101.964 332.58 102.723 322.963C102.871 321.079 102.078 317.222 101.74 315.201C102.059 315.413 102.385 315.616 102.716 315.813C109.134 319.524 121.426 313.795 125.019 307.648Z" fill="#F5C5A3"/>
<path d="M103.928 376.491C107.592 380.994 115.511 380.805 119.761 377.289C119.722 377.674 119.615 379.004 119.519 379.296L119.407 378.917C118.32 378.83 116.156 380.385 114.87 380.524C110.451 381.006 107.378 380.529 103.703 377.909L103.611 377.706L103.928 376.491Z" fill="#F5C5A3"/>
<path d="M74.7734 67.3102C74.941 68.3232 74.3244 68.7965 73.9015 69.9737C72.339 74.3252 73.1144 77.2288 76.8154 80.0184C79.146 81.7752 83.0551 82.5846 83.4462 85.3416C83.5903 86.3576 83.7451 88.8684 84.116 89.5467L84.4592 90.4646C80.3348 99.782 77.2497 113.048 76.5062 123.235C75.5285 124.605 76.7812 125.862 75.6017 126.658L75.5329 127.832C74.5039 129.916 73.9213 130.23 72.1132 131.617L71.6032 131.768C68.4736 133.433 62.7309 132.137 59.5779 130.932L59.3266 128.386C56.089 125.467 54.7501 121.567 54.3317 117.33C53.746 116.11 54.471 113.392 53.8652 111.981L54.417 108.006L55.1088 107.706C55.4683 105.928 56.368 103.612 55.617 102.276L55.4298 101.722L55.9255 101.619L56.1063 101.224C56.0477 100.254 55.8865 99.4953 54.9259 99.1463C53.6195 89.5708 61.5733 73.7488 69.444 68.3139C71.0772 68.076 73.1201 67.6209 74.7734 67.3102Z" fill="#F5C5A3"/>
<path d="M84.1167 89.5466L84.4598 90.4646C80.3355 99.7819 77.2504 113.048 76.5069 123.235C75.5292 124.605 76.7818 125.862 75.6024 126.658L74.8516 127.044C75.5686 124.957 76.0046 118.63 76.43 115.977C78.0484 105.889 79.8688 98.7484 84.1167 89.5466Z" fill="#F5C5A3"/>
<path d="M59.3281 128.386C60.2324 129.303 60.522 129.871 61.2737 130.772C64.6732 131.819 67.4008 132.16 70.8963 131.213L71.6047 131.768C68.4752 133.433 62.7324 132.137 59.5794 130.932L59.3281 128.386Z" fill="#F5C5A3"/>
<path d="M75.6014 126.658L75.5326 127.832C74.5036 129.916 73.921 130.23 72.113 131.617L71.6029 131.768L70.8945 131.213C73.0416 130.103 73.6294 129.097 74.8506 127.044L75.6014 126.658Z" fill="#F5C5A3"/>
<path d="M54.417 108.006L55.1088 107.706C54.9918 109.768 54.7547 115.539 54.3317 117.33C53.746 116.11 54.471 113.392 53.8652 111.981L54.417 108.006Z" fill="#F5C5A3"/>
<path d="M121.239 117.336C129.043 116.88 140.256 114.994 147.026 111.391C147.147 117.366 148.225 121.742 148.879 127.554C149.593 133.892 149.173 140.838 148.816 147.184C148.711 149.055 148.629 152.658 148.398 154.408C148.145 160.72 149.114 162.494 150.589 168.674C145.906 168.892 134.303 170.747 130.286 172.934C130.283 168.957 130.84 166.114 129.645 162.329C123.113 147.664 122.702 138.433 122.164 122.692L121.419 122.415C121.138 120.965 121.296 120.221 120.828 118.373L120.846 117.59L121.239 117.336Z" fill="#F5C5A3"/>
<path d="M135.201 162.978C141.549 159.871 141.998 156.654 145.425 151.326C146.396 152.187 147.385 153.426 148.398 154.408C148.145 160.72 149.114 162.494 150.589 168.674C145.906 168.892 134.303 170.747 130.285 172.934C130.283 168.957 130.839 166.114 129.645 162.329C131.402 162.656 133.407 162.81 135.201 162.978Z" fill="#F5C5A3"/>
<path d="M120.846 117.59L121.239 117.336C121.628 118.872 121.961 121.092 122.164 122.692L121.419 122.416C121.138 120.965 121.296 120.221 120.828 118.373L120.846 117.59Z" fill="#F5C5A3"/>
<path d="M108.732 45.543C109.583 45.0044 110.144 44.4912 111.079 44.0267C110.182 51.1272 110.153 60.1443 114.781 66.092C117.175 69.1675 121.95 72.987 125.057 75.6015L125.846 76.3111C123.815 76.2447 116.393 80.184 113.995 81.3511C105.584 85.4447 98.6683 84.9736 89.5322 85.2242C87.7948 86.5808 85.759 88.6748 84.4589 90.4646L84.1158 89.5467C83.7448 88.8684 83.59 86.3576 83.4459 85.3416C83.0549 82.5846 79.1458 81.7752 76.8151 80.0184C73.1142 77.2288 72.3387 74.3252 73.9012 69.9737C74.3242 68.7966 74.9407 68.3232 74.7731 67.3102C75.4788 67.0681 76.202 66.9682 76.9394 66.8309L81.1501 65.2675L82.1536 65.208L82.9261 65.439L83.1011 64.8124C87.6329 65.1854 93.6773 61.7802 97.1886 59.186C102.994 54.8977 104.911 52.5604 106.056 45.6075L108.732 45.543Z" fill="#F5C5A3"/>
<path d="M74.7731 67.3101C75.4788 67.0679 76.202 66.9681 76.9394 66.8308C70.042 74.6427 76.4382 79.6357 83.4457 82.9025C84.3228 85.1294 84.575 86.0827 84.7802 88.4893C86.4998 86.6318 87.5531 85.6728 89.6895 84.3171C95.1206 84.435 100.125 84.3887 105.499 83.3768C112.62 82.0361 118.311 77.801 125.057 75.6014L125.846 76.311C123.815 76.2446 116.393 80.1838 113.995 81.351C105.584 85.4445 98.6683 84.9735 89.5322 85.2241C87.7948 86.5807 85.759 88.6747 84.4589 90.4645L84.1158 89.5466C83.7448 88.8682 83.59 86.3575 83.4459 85.3415C83.0549 82.5845 79.1458 81.7751 76.8151 80.0183C73.1142 77.2287 72.3387 74.3251 73.9012 69.9736C74.3242 68.7964 74.9407 68.3231 74.7731 67.3101Z" fill="#F5C5A3"/>
<path d="M82.1543 65.208L82.9268 65.439C82.9591 66.6011 82.9847 67.1401 82.8137 68.2799L82.4682 68.4726L82.5029 68.6771L82.7311 68.6901L82.7031 68.7886L82.5157 68.8453C82.0234 67.4358 82.1901 66.7532 82.1543 65.208Z" fill="#F5C5A3"/>
<path d="M94.351 364.956L94.3989 366.053C94.6885 369.156 95.0989 372.246 95.6233 375.319L95.8399 376.799C96.5535 380.732 99.1733 387.444 96.6196 390.839C92.8986 395.785 83.6816 393.977 78.5267 396.357C74.1802 398.363 71.794 401.029 68.0114 403.715C65.8798 405.046 63.3216 405.395 60.9545 406.125C59.3616 406.615 57.7248 408.056 56.2528 408.514C53.6059 409.337 50.2962 410.14 48.5547 407.515C48.4859 406.674 48.5128 406.355 48.1519 405.577C47.8498 406.437 47.9118 406.514 47.1078 406.761C45.829 406.042 46.3426 404.996 46.8892 403.995L46.4587 403.518L46.2585 403.407L46.2168 402.978C46.7015 401.934 46.87 401.79 47.6357 400.894L47.122 400.657L47.0894 400.208C47.7699 399.079 48.169 398.265 49.1462 397.372C49.4866 396.82 49.5365 396.576 50.1239 396.352C52.2799 394.246 57.0059 392.745 59.6517 391.348C64.0526 389.02 72.455 382.182 75.4739 378.249L75.9124 377.485C76.9211 374.995 77.1112 373.308 77.3333 370.656C77.2622 369.692 77.3076 368.497 77.3174 367.51C81.9595 370.716 90.2082 368.137 94.351 364.956Z" fill="#F5C5A3"/>
<path d="M94.3488 364.956L94.3967 366.053C94.6862 369.156 95.0966 372.246 95.621 375.319C95.2152 375.953 93.0264 377.891 92.3606 378.233C89.6816 379.617 85.9811 379.792 82.9938 379.9C81.5651 379.936 76.9229 378.32 75.9102 377.485C76.9188 374.995 77.109 373.308 77.3311 370.656C77.2599 369.692 77.3053 368.497 77.3151 367.51C81.9573 370.716 90.206 368.137 94.3488 364.956Z" fill="#F5C5A3"/>
<path d="M94.3499 364.956L94.3978 366.053C89.2609 369.222 83.2448 371.023 77.4008 368.598C77.4022 369.076 77.448 370.269 77.3322 370.656C77.2611 369.692 77.3064 368.497 77.3163 367.51C81.9584 370.716 90.2071 368.137 94.3499 364.956Z" fill="#F5C5A3"/>
<path d="M95.622 375.319L95.8386 376.799L95.5969 376.942C94.8559 377.394 92.3456 379.282 92.0287 379.394C88.7158 380.554 86.8917 379.774 83.4439 381.338C80.7585 380.383 78.1004 379.352 75.4727 378.249L75.9111 377.485C76.9239 378.32 81.5661 379.936 82.9947 379.9C85.982 379.793 89.6825 379.617 92.3616 378.233C93.0273 377.891 95.2161 375.953 95.622 375.319Z" fill="#F5C5A3"/>
<path d="M48.1523 405.577C48.273 405.048 48.4415 404.629 49.021 404.401C50.1832 403.945 55.7859 400.655 56.4496 400.479L56.7469 400.714L56.6833 401.138C54.9525 402.351 52.9641 403.117 51.1524 404.191C49.2796 405.299 48.7203 405.327 48.5552 407.515C48.4864 406.674 48.5133 406.355 48.1523 405.577Z" fill="#F5C5A3"/>
<path d="M46.459 403.518C48.0947 402.182 50.7961 399.761 52.921 399.708C52.7339 400.021 52.8698 399.87 52.4833 400.089L51.7373 400.502C49.9285 401.489 48.3849 403.16 46.8895 403.995L46.459 403.518Z" fill="#F5C5A3"/>
<path d="M47.0879 400.208L47.4094 400.053C48.5002 399.513 51.4234 397.472 52.5527 397.559C50.8267 399.184 49.3964 399.478 47.6342 400.894L47.1205 400.657L47.0879 400.208Z" fill="#F5C5A3"/>
<path d="M50.1242 396.352C50.9694 396.051 51.6365 395.657 52.4008 395.88C51.6734 396.79 50.261 397.084 49.1465 397.371C49.4869 396.82 49.5368 396.576 50.1242 396.352Z" fill="#F5C5A3"/>
<path d="M100.981 388.263C104.046 390.201 107.224 389.996 110.478 391.614C110.719 391.475 110.97 391.352 111.228 391.243C112.126 390.862 118.091 389.686 118.98 390.082C119.443 389.841 119.304 389.904 119.675 389.492C121.251 392.173 122.126 397.02 121.385 400.094C120.489 403.808 116.679 404.845 114.185 407.301C110.487 410.942 108.786 417.032 102.814 417.358C101.494 419.041 100.86 420.213 98.4961 419.367L97.7414 419.046C96.9434 420.829 95.2083 421.403 93.8425 419.864L93.8038 419.711L93.3706 419.513C92.5999 421.567 90.6961 422.415 89.0978 420.787C88.9769 420.598 88.7535 420.448 88.5665 420.288L88.4525 419.803L88.6874 419.465C87.3718 418.92 86.8953 419.114 85.0628 418.254C85.7908 417.162 88.334 414.027 88.4457 413.156C86.7265 414.171 85.5526 416.227 84.4436 417.899C82.7144 416.141 82.2007 415.89 79.8066 415.833C80.5194 414.709 81.6806 413.651 82.532 412.513C83.7315 411.061 84.7144 409.002 85.981 407.634C91.2684 401.916 97.445 395.267 100.981 388.263Z" fill="#F5C5A3"/>
<path d="M110.477 391.615C110.718 391.475 110.969 391.352 111.227 391.243C112.125 390.862 118.09 389.686 118.979 390.082C119.006 390.68 118.97 390.643 119.22 391.197C118.023 395.903 112.8 394.186 110.477 391.615Z" fill="#F5C5A3"/>
<path d="M23.7842 191.597C27.8522 191.531 33.7657 198.691 36.465 199.022C34.4834 206.743 32.3071 211.264 27.6992 217.773C25.8859 220.334 21.466 229.189 18.0677 229.595C17.5227 229.167 17.7377 229.447 17.6189 228.565C18.1465 226.957 19.3411 225.4 20.171 223.886C21.1359 222.13 22.309 219.91 22.9864 218.029L22.2166 218.038L21.8831 218.43C21.3393 221.057 19.088 224.066 17.6826 226.321C16.6652 227.956 14.5491 232.794 12.0335 231.791C11.7764 231.173 11.8491 230.437 12.1419 229.851C14.1581 225.826 17.069 222.085 18.7818 217.878L18.5232 217.336C17.8392 217.652 17.0542 219.987 16.5024 220.979C14.4645 224.627 12.0242 228.106 9.73118 231.597C9.11717 232.53 7.93223 232.721 6.99764 232.051C6.05918 230.145 7.81025 228.43 8.78792 226.93C10.2722 224.65 14.6642 217.846 14.8444 215.304L14.6145 215.227C12.6715 217.393 7.80728 229.226 4.49622 229.089L4.17336 228.727C4.07965 228.161 3.94718 227.071 4.20597 226.533C7.42743 219.837 11.7736 212.794 13.3781 205.475C13.2215 204.531 13.2538 204.542 12.7983 203.724L12.7121 203.708C12.4426 203.997 12.5767 203.908 12.2894 204.061C9.14589 205.721 6.70557 208.838 3.04863 209.513C1.89333 209.727 0.136802 209.118 0 207.819C1.24011 206.508 3.4604 205.614 5.05391 204.2C8.26967 201.342 10.3256 197.274 14.1592 195.323C15.9046 194.433 17.7113 193.668 19.5654 193.034C20.7544 192.634 22.8008 192.23 23.7842 191.597Z" fill="#F5C5A3"/>
<path d="M21.8827 218.43C21.8114 217.57 21.6672 217.892 22.115 217.354C23.2001 217.135 23.9297 217.142 24.9179 217.73L24.7952 217.919L22.986 218.029L22.2163 218.038L21.8827 218.43Z" fill="#F5C5A3"/>
<path d="M12.7969 203.724L15.3295 203.929L13.6555 204.51C13.4123 205.071 13.4649 204.891 13.3767 205.475C13.2201 204.531 13.2524 204.542 12.7969 203.724Z" fill="#F5C5A3"/>
<path d="M23.7854 200.771C24.3677 201.381 24.1475 202.285 23.6376 202.878C21.8768 204.916 19.2349 205.707 16.6705 206.143L16.5732 205.986C16.5198 204.957 18.8056 204.998 19.928 204.431C21.6317 203.569 22.5945 202.192 23.7854 200.771Z" fill="#F5C5A3"/>
<path d="M150.59 168.674L150.734 169.552C152.28 178.944 151.862 186.823 150.909 196.245C150.595 199.347 149.79 206.323 150.064 209.134L149.934 210.133C145.823 208.779 140.022 208.241 136.39 211.022L136.247 210.003C135.296 203.51 133.084 196.189 131.764 189.665C130.578 183.798 130.22 179.944 130.182 173.974L130.287 172.935C134.304 170.748 145.907 168.892 150.59 168.674Z" fill="#F5C5A3"/>
<path d="M150.59 168.674L150.734 169.552C147.186 169.523 132.614 171.731 130.182 173.974L130.287 172.935C134.304 170.748 145.907 168.892 150.59 168.674Z" fill="#F5C5A3"/>
<path d="M136.246 210.003C140.197 207.739 145.788 208.008 150.063 209.134L149.933 210.133C145.822 208.779 140.022 208.24 136.39 211.022L136.246 210.003Z" fill="#F5C5A3"/>
<path d="M43.071 146.17L43.5565 145.147C44.9017 147.378 47.9245 148.953 50.1811 150.272C53.2521 152.067 56.466 154.27 59.6918 155.69L59.6797 156.568C59.7983 165.057 57.6003 169.303 52.7653 175.779C49.576 180.05 45.9222 184.803 42.9666 189.191L42.4164 189.905C39.1261 188.265 32.9967 184.622 29.8906 182.559L30.3332 181.749C34.8429 173.572 36.6703 163.586 39.3379 154.791C40.1731 152.037 41.8323 148.834 43.071 146.17Z" fill="#F5C5A3"/>
<path d="M43.0723 146.17L43.5577 145.147C44.9029 147.378 47.9258 148.953 50.1823 150.272C53.2533 152.067 56.4672 154.27 59.693 155.69L59.6809 156.568C56.5037 155.512 45.5016 148.528 43.0723 146.17Z" fill="#F5C5A3"/>
<path d="M29.8906 182.559L30.3332 181.75C32.126 183.076 41.2748 188.745 42.9666 189.191L42.4164 189.905C39.1261 188.265 32.9967 184.622 29.8906 182.559Z" fill="#F5C5A3"/>
<path d="M137.42 220.411C141.052 218.756 147.055 218.585 150.193 221.262L150.124 222.365C154.96 230.578 153.198 229.221 154.493 237.801C154.988 239.593 156.44 242.701 156.068 243.998C154.534 245.293 152.822 243.403 151.873 242.272L151.203 242.676L150.594 242.623L150.4 242.167C148.396 247.334 146.823 258.572 141.526 261.6C141.189 261.623 140.895 261.659 140.557 261.641L140.277 261.862L139.447 261.486C138.897 262.619 138.229 263.415 136.998 263.718C136.095 263.486 136.465 263.714 135.851 263.012C135.548 262.09 135.744 261.582 135.92 260.586L135.398 260.456C134.844 260.95 134.764 260.939 134.089 261.21C132.479 260.948 132.865 259.441 133.067 258.18L132.91 256.297C132.121 256.712 131.611 257.008 130.97 256.29C130.53 254.09 132.926 248.91 133.159 246.212C133.667 240.318 133.045 234.358 134.296 228.519C134.821 226.075 136.15 223.916 137.388 221.754L137.42 220.411Z" fill="#F5C5A3"/>
<path d="M138.977 253.289C140.119 253.31 140.847 253.262 141.955 253.572C140.785 256.561 139.444 258.324 139.449 261.486C138.899 262.619 138.231 263.415 137 263.718C136.097 263.486 136.467 263.714 135.853 263.011C135.55 262.09 135.746 261.582 135.922 260.586C136.535 258.762 138.151 255.471 138.977 253.289Z" fill="#F5C5A3"/>
<path d="M142.252 252.592C142.822 250.64 143.415 248.615 143.595 246.582C146.096 248.093 139.823 258.299 140.558 261.641L140.277 261.862L139.447 261.486C139.443 258.324 140.783 256.561 141.953 253.572L142.252 252.592Z" fill="#F5C5A3"/>
<path d="M138.438 252.031C138.78 250.706 139.396 247.546 140.15 246.712L140.372 246.855C140.251 248.707 139.508 250.649 139.184 252.592L138.976 253.289C138.151 255.471 136.534 258.762 135.921 260.586L135.399 260.456C135.358 259.735 137.966 253.369 138.438 252.031Z" fill="#F5C5A3"/>
<path d="M137.421 220.411C141.053 218.756 147.056 218.585 150.193 221.262L150.125 222.365C146.981 219.082 141.044 219.527 137.389 221.754L137.421 220.411Z" fill="#F5C5A3"/>
<path d="M132.91 256.297C133.006 255.978 134.014 253.429 134.105 253.29C135.197 251.632 135.692 246.522 136.633 245.234L136.905 245.307C136.855 246.887 136.052 249.819 135.747 251.584C135.031 253.793 133.995 256.037 133.067 258.18L132.91 256.297Z" fill="#F5C5A3"/>
<path d="M139.832 231.495L140.824 231.283C142.231 234.155 144.6 236.103 147.899 236.264L148.407 235.929C148.599 236.253 148.98 236.841 149.125 237.154C145.596 237.101 140.879 235.163 139.832 231.495Z" fill="#F5C5A3"/>
<path d="M148.406 235.929L148.299 235.318L148.54 235.277C149.282 236.139 149.738 236.944 150.166 238L150.67 239.381L150.082 240.004C149.763 239.431 149.339 237.858 149.124 237.154C148.978 236.841 148.598 236.253 148.406 235.929Z" fill="#F5C5A3"/>
<path d="M150.67 239.381C151.065 240.485 151.309 241.226 151.874 242.272L151.204 242.676L150.595 242.623L150.401 242.167C150.401 241.415 150.228 240.742 150.082 240.004L150.67 239.381Z" fill="#F5C5A3"/>
<path d="M139.213 226.985C139.881 228.521 140.291 229.687 140.82 231.283L139.828 231.495C139.379 229.848 139.249 228.661 139.213 226.985Z" fill="#F5C5A3"/>
<path d="M139.182 252.592H142.251L141.952 253.572C140.844 253.262 140.117 253.31 138.975 253.29L139.182 252.592Z" fill="#F5C5A3"/>
<path d="M121.466 289.567C121.926 297.178 122.257 299.579 124.817 306.866L125.02 307.648C121.427 313.795 109.135 319.524 102.717 315.813C102.386 315.617 102.06 315.414 101.741 315.202C101.493 314.132 101.406 314.02 101.734 313.024C99.5774 309.989 97.0033 304.39 96.545 300.65C96.2395 298.165 96.1232 295.678 95.4483 293.243L95.3457 292.88L95.5669 292.643C103.873 296.822 113.992 294.487 121.466 289.567Z" fill="#F5C5A3"/>
<path d="M124.815 306.866L125.018 307.648C121.425 313.795 109.133 319.524 102.715 315.812C102.384 315.616 102.058 315.413 101.739 315.201C101.49 314.132 101.404 314.02 101.732 313.024C102.774 314.659 103.066 315.151 104.71 316.17C112.97 316.569 119.956 313.583 124.815 306.866Z" fill="#F5C5A3"/>
<path d="M64.6523 280.073C70.8328 287.547 83.6833 283.671 90.8796 279.824C91.2216 281.382 92.3981 286.231 92.4824 287.406C92.7834 291.617 91.5453 292.912 93.1687 297.388C89.0145 303.877 73.2964 309.205 68.1837 302.502C68.4532 298.464 65.9567 294.298 65.5297 290.121C65.1875 286.774 65.0947 283.381 64.6523 280.073Z" fill="#F5C5A3"/>
<path d="M50.3107 95.2C51.7127 96.6854 52.7312 98.4381 54.5443 99.3156L54.9266 99.1462C55.8872 99.4953 56.0484 100.254 56.107 101.224L55.9262 101.619L55.4305 101.722L55.6177 102.276C56.3687 103.612 55.469 105.928 55.1095 107.706L54.4177 108.006L53.8659 111.981C53.0059 120.253 54.1808 122.938 58.7853 129.577C58.6187 134.662 57.3765 137.542 57.7265 143.222C57.2415 143.468 57.2675 143.388 56.7778 143.478C53.0966 144.149 51.8404 143.479 49.0152 141.437C48.9917 140.073 48.0929 138.402 47.825 136.949C47.1788 133.444 47.0078 130.005 47.1756 126.453C47.4253 122.001 48.0354 117.577 48.9999 113.224C50.6313 106.034 51.7056 104.83 50.7113 97.3924C50.6064 97.0801 50.3782 95.591 50.3107 95.2Z" fill="#F5C5A3"/>
<path d="M50.3105 95.2C51.7125 96.6854 52.731 98.4381 54.5441 99.3156L54.9265 99.1462C55.8871 99.4953 56.0482 100.254 56.1068 101.224L55.926 101.619L55.4304 101.722C54.9641 100.019 52.249 97.9672 50.7111 97.3924C50.6063 97.0801 50.378 95.591 50.3105 95.2Z" fill="#F5C5A3"/>
<path d="M55.6199 102.276C56.3709 103.612 55.4712 105.928 55.1117 107.706L54.4199 108.006C54.6887 106.051 54.8771 104.099 55.6199 102.276Z" fill="#F5C5A3"/>
<path d="M50.3094 95.2C49.5544 80.7553 53.6749 69.6041 69.4434 68.3138C61.5727 73.7488 53.6188 89.5708 54.9253 99.1463L54.5429 99.3157C52.7298 98.4381 51.7114 96.6854 50.3094 95.2Z" fill="#F5C5A3"/>
<path d="M103.703 377.909C107.378 380.529 110.452 381.005 114.87 380.524C116.156 380.385 118.32 378.83 119.408 378.917L119.519 379.295C119.303 382.225 119.859 385.821 119.583 387.937C119.604 388.445 119.608 388.995 119.674 389.492C119.303 389.904 119.442 389.841 118.979 390.082C118.09 389.686 112.125 390.862 111.227 391.243C110.969 391.352 110.718 391.475 110.477 391.614C107.223 389.996 104.045 390.201 100.98 388.263L101.236 387.371C101.949 385.449 103.11 380.21 103.703 377.909Z" fill="#F5C5A3"/>
<path d="M101.236 387.371C105.285 390 115.958 391.785 119.583 387.937C119.604 388.445 119.608 388.995 119.674 389.492C119.303 389.904 119.442 389.841 118.979 390.082C118.09 389.686 112.125 390.862 111.227 391.243C110.969 391.352 110.718 391.475 110.477 391.614C107.223 389.996 104.045 390.201 100.98 388.263L101.236 387.371Z" fill="#F5C5A3"/>
<path d="M29.8922 182.559C32.9983 184.622 39.1277 188.265 42.418 189.905C40.135 193.066 38.2412 195.54 36.466 199.022C33.7667 198.691 27.8532 191.531 23.7852 191.597C26.2257 188.871 28.3438 185.884 29.8922 182.559Z" fill="#F5C5A3"/>
<path d="M136.391 211.022C140.023 208.241 145.823 208.779 149.934 210.133C150.005 213.478 150.274 218.017 150.194 221.262C147.057 218.585 141.053 218.756 137.421 220.411C137.462 217.689 136.801 213.767 136.391 211.022Z" fill="#F5C5A3"/>
<path d="M43.5566 145.147C45.0049 142.712 46.0902 140.92 47.2733 138.343C47.8034 139.594 48.1156 140.385 48.8429 141.557L49.015 141.437C51.8402 143.479 53.0965 144.149 56.7776 143.478C57.2674 143.388 57.2414 143.468 57.7264 143.222C58.326 147.561 59.3274 151.22 59.692 155.69C56.4662 154.27 53.2523 152.067 50.1813 150.272C47.9247 148.953 44.9019 147.378 43.5566 145.147Z" fill="#F5C5A3"/>
<path d="M93.3406 289.154C94.1865 291.656 94.7405 293.208 95.1213 295.849C95.3128 297.171 95.4793 300.053 95.746 301.141L95.1874 300.988C93.523 295.953 92.709 294.44 93.3406 289.154Z" fill="#F5C5A3"/>
<path d="M81.855 64.199C82.5778 64.2241 82.7066 64.1009 83.1017 64.8123L82.9266 65.4389L82.1542 65.2079L81.1507 65.2674L80.4188 65.1443L80.248 64.8522C80.8331 64.2833 81.0509 64.32 81.855 64.199Z" fill="#F5C5A3"/>
<path d="M95.1836 300.988L95.7422 301.141C96.0705 302.572 96.367 303.66 96.8024 305.064L96.3897 305.42C95.9406 303.956 95.537 302.479 95.1836 300.988Z" fill="#F5C5A3"/>
</svg>
