<svg xmlns="http://www.w3.org/2000/svg" viewBox="0 0 1480 980" font-family="-apple-system,BlinkMacSystemFont,'Segoe UI','Noto Sans Thai Looped',sans-serif">
  <!-- ─────────────── Defs ─────────────── -->
  <defs>
    <linearGradient id="g-root" x1="0" y1="0" x2="0" y2="1">
      <stop offset="0%" stop-color="#3485ff"/>
      <stop offset="100%" stop-color="#2563eb"/>
    </linearGradient>
    <filter id="soft" x="-20%" y="-20%" width="140%" height="140%">
      <feDropShadow dx="0" dy="2" stdDeviation="3" flood-color="#0f172a" flood-opacity="0.06"/>
    </filter>
    <marker id="arrow" viewBox="0 0 10 10" refX="9" refY="5" markerWidth="6" markerHeight="6" orient="auto-start-reverse">
      <path d="M0 0 L10 5 L0 10 Z" fill="#94a3b8"/>
    </marker>
  </defs>

  <!-- Background -->
  <rect width="1480" height="980" fill="#f8fafc"/>

  <!-- ─────────────── Title ─────────────── -->
  <text x="40" y="48" font-size="22" font-weight="700" fill="#0f172a">EHP-CIS · Sitemap</text>
  <text x="40" y="72" font-size="13" fill="#64748b">All routes &amp; navigation surfaces · v.2026</text>

  <!-- Legend -->
  <g transform="translate(900, 32)" font-size="11" fill="#475569">
    <rect x="0" y="0" width="14" height="14" rx="3" fill="#3485ff"/><text x="22" y="11">Entry</text>
    <rect x="80" y="0" width="14" height="14" rx="3" fill="#8b5cf6"/><text x="102" y="11">Workspace (panel)</text>
    <rect x="240" y="0" width="14" height="14" rx="3" fill="#10b981"/><text x="262" y="11">Insights</text>
    <rect x="340" y="0" width="14" height="14" rx="3" fill="#f59e0b"/><text x="362" y="11">Operations</text>
    <rect x="445" y="0" width="14" height="14" rx="3" fill="#64748b"/><text x="467" y="11">Utility</text>
    <rect x="510" y="0" width="14" height="14" rx="3" fill="#ffffff" stroke="#94a3b8" stroke-dasharray="3 2"/><text x="532" y="11">Modal / Overlay</text>
  </g>

  <!-- ─────────────── Root ─────────────── -->
  <g filter="url(#soft)">
    <rect x="600" y="110" width="280" height="64" rx="14" fill="url(#g-root)"/>
    <text x="740" y="142" text-anchor="middle" font-size="18" font-weight="700" fill="#ffffff">EHP-CIS</text>
    <text x="740" y="160" text-anchor="middle" font-size="11" fill="#dbeafe">App Shell · Sidebar · TopBar · Tabs</text>
  </g>

  <!-- Branches from root -->
  <g stroke="#cbd5e1" stroke-width="1.5" fill="none" marker-end="url(#arrow)">
    <path d="M 740 174 C 740 200, 160 200, 160 230"/>
    <path d="M 740 174 C 740 200, 440 200, 440 230"/>
    <path d="M 740 174 C 740 200, 720 200, 720 230"/>
    <path d="M 740 174 C 740 200, 1000 200, 1000 230"/>
    <path d="M 740 174 C 740 200, 1280 200, 1280 230"/>
  </g>

  <!-- ─────────────── Lane headers ─────────────── -->
  <g font-size="11" font-weight="700" fill="#0f172a" text-transform="uppercase" letter-spacing="0.06em">
    <text x="160" y="248" text-anchor="middle" fill="#3485ff">ENTRY</text>
    <text x="440" y="248" text-anchor="middle" fill="#8b5cf6">WORKSPACES</text>
    <text x="720" y="248" text-anchor="middle" fill="#10b981">INSIGHTS</text>
    <text x="1000" y="248" text-anchor="middle" fill="#f59e0b">OPERATIONS</text>
    <text x="1280" y="248" text-anchor="middle" fill="#64748b">UTILITY</text>
  </g>

  <!-- ─────────────── ENTRY lane ─────────────── -->
  <g transform="translate(60, 270)">
    <g filter="url(#soft)">
      <rect width="200" height="56" rx="10" fill="#ffffff" stroke="#3485ff" stroke-width="1.5"/>
      <text x="14" y="22" font-size="13" font-weight="600" fill="#0f172a">Home</text>
      <text x="14" y="40" font-size="11" font-family="monospace" fill="#3485ff">/</text>
      <text x="190" y="40" text-anchor="end" font-size="10" fill="#94a3b8">App.tsx</text>
    </g>
    <g transform="translate(0, 76)" filter="url(#soft)">
      <rect width="200" height="56" rx="10" fill="#ffffff" stroke="#3485ff" stroke-width="1.5"/>
      <text x="14" y="22" font-size="13" font-weight="600" fill="#0f172a">All Menus</text>
      <text x="14" y="40" font-size="11" font-family="monospace" fill="#3485ff">/menus</text>
      <text x="190" y="40" text-anchor="end" font-size="10" fill="#94a3b8">AllMenus</text>
    </g>
    <g transform="translate(0, 152)" filter="url(#soft)">
      <rect width="200" height="56" rx="10" fill="#ffffff" stroke="#3485ff" stroke-width="1.5"/>
      <text x="14" y="22" font-size="13" font-weight="600" fill="#0f172a">New Patient by Voice</text>
      <text x="14" y="40" font-size="11" font-family="monospace" fill="#3485ff">/patient/new</text>
      <text x="190" y="40" text-anchor="end" font-size="10" fill="#94a3b8">A2UI flow</text>
    </g>
  </g>

  <!-- ─────────────── WORKSPACES lane ─────────────── -->
  <g transform="translate(340, 270)">
    <!-- OPD Registry panel -->
    <g filter="url(#soft)">
      <rect width="200" height="56" rx="10" fill="#f5f3ff" stroke="#8b5cf6" stroke-width="1.5"/>
      <text x="14" y="22" font-size="13" font-weight="600" fill="#0f172a">ระเบียนผู้ป่วยนอก</text>
      <text x="14" y="40" font-size="10" fill="#7c3aed">panel · 6 items</text>
    </g>
    <!-- children of OPD -->
    <g transform="translate(0, 76)">
      <rect width="200" height="42" rx="8" fill="#ffffff" stroke="#cbd5e1" stroke-width="1"/>
      <text x="14" y="18" font-size="12" fill="#0f172a">OPD Card</text>
      <text x="14" y="34" font-size="10" font-family="monospace" fill="#8b5cf6">/opd</text>
    </g>
    <g transform="translate(0, 124)">
      <rect width="200" height="42" rx="8" fill="#ffffff" stroke="#cbd5e1" stroke-width="1"/>
      <text x="14" y="18" font-size="12" fill="#0f172a">Patient by HN</text>
      <text x="14" y="34" font-size="10" font-family="monospace" fill="#8b5cf6">/opd/:hn</text>
      <text x="190" y="34" text-anchor="end" font-size="9" font-style="italic" fill="#94a3b8">dynamic</text>
    </g>
    <g transform="translate(0, 172)">
      <rect width="200" height="42" rx="8" fill="#fafafa" stroke="#e5e7eb" stroke-width="1" stroke-dasharray="2 2"/>
      <text x="14" y="18" font-size="12" fill="#475569">ลงทะเบียน · ส่งตรวจ · นัด</text>
      <text x="14" y="34" font-size="10" fill="#94a3b8">+ 3 more (state-only)</text>
    </g>

    <!-- IPD Registry -->
    <g transform="translate(0, 232)" filter="url(#soft)">
      <rect width="200" height="56" rx="10" fill="#f5f3ff" stroke="#8b5cf6" stroke-width="1.5"/>
      <text x="14" y="22" font-size="13" font-weight="600" fill="#0f172a">ระเบียนผู้ป่วยใน</text>
      <text x="14" y="40" font-size="10" fill="#7c3aed">panel · 3 items</text>
    </g>
    <g transform="translate(0, 308)">
      <rect width="200" height="42" rx="8" fill="#fafafa" stroke="#e5e7eb" stroke-width="1" stroke-dasharray="2 2"/>
      <text x="14" y="18" font-size="12" fill="#475569">เข้ารับบริการ · รักษา · ติดตาม</text>
      <text x="14" y="34" font-size="10" fill="#94a3b8">state-only (no route)</text>
    </g>

    <!-- Workbench -->
    <g transform="translate(0, 368)" filter="url(#soft)">
      <rect width="200" height="56" rx="10" fill="#f5f3ff" stroke="#8b5cf6" stroke-width="1.5"/>
      <text x="14" y="22" font-size="13" font-weight="600" fill="#0f172a">Workbench</text>
      <text x="14" y="40" font-size="10" fill="#7c3aed">panel · 16 items (5 groups)</text>
    </g>
    <g transform="translate(0, 444)">
      <rect width="200" height="42" rx="8" fill="#fafafa" stroke="#e5e7eb" stroke-width="1" stroke-dasharray="2 2"/>
      <text x="14" y="18" font-size="12" fill="#475569">Nurse · Lab · Pharm · Dental ▸</text>
      <text x="14" y="34" font-size="10" fill="#94a3b8">+ Checkup ▸ + Finance</text>
    </g>

    <!-- Pharmacy -->
    <g transform="translate(0, 504)" filter="url(#soft)">
      <rect width="200" height="56" rx="10" fill="#f5f3ff" stroke="#8b5cf6" stroke-width="1.5"/>
      <text x="14" y="22" font-size="13" font-weight="600" fill="#0f172a">ห้องยา</text>
      <text x="14" y="40" font-size="10" fill="#7c3aed">panel · 3 items</text>
    </g>
  </g>

  <!-- ─────────────── INSIGHTS lane ─────────────── -->
  <g transform="translate(620, 270)">
    <g filter="url(#soft)">
      <rect width="200" height="56" rx="10" fill="#ecfdf5" stroke="#10b981" stroke-width="1.5"/>
      <text x="14" y="22" font-size="13" font-weight="600" fill="#0f172a">Doctor Schedule</text>
      <text x="14" y="40" font-size="11" font-family="monospace" fill="#10b981">/schedule</text>
    </g>
    <g transform="translate(0, 76)" filter="url(#soft)">
      <rect width="200" height="56" rx="10" fill="#ecfdf5" stroke="#10b981" stroke-width="1.5"/>
      <text x="14" y="22" font-size="13" font-weight="600" fill="#0f172a">Dashboards (List)</text>
      <text x="14" y="40" font-size="11" font-family="monospace" fill="#10b981">/dashboards</text>
    </g>
    <g transform="translate(0, 152)">
      <rect width="200" height="42" rx="8" fill="#ffffff" stroke="#10b981" stroke-width="1.5"/>
      <text x="14" y="18" font-size="12" fill="#0f172a">Dashboard View</text>
      <text x="14" y="34" font-size="10" font-family="monospace" fill="#10b981">/dashboards/:id</text>
      <text x="190" y="34" text-anchor="end" font-size="9" font-style="italic" fill="#94a3b8">dynamic</text>
    </g>
    <!-- Composer (modal) -->
    <g transform="translate(0, 204)">
      <rect width="200" height="42" rx="8" fill="#ffffff" stroke="#10b981" stroke-width="1" stroke-dasharray="4 3"/>
      <text x="14" y="18" font-size="12" fill="#0f172a">AI Composer (modal)</text>
      <text x="14" y="34" font-size="10" fill="#10b981">prompt → widget JSON</text>
    </g>
    <!-- Connector from list → view -->
    <path d="M 100 132 C 100 142, 100 148, 100 152" stroke="#94a3b8" stroke-width="1" fill="none" marker-end="url(#arrow)"/>

    <!-- Analytics -->
    <g transform="translate(0, 268)" filter="url(#soft)">
      <rect width="200" height="56" rx="10" fill="#ecfdf5" stroke="#10b981" stroke-width="1.5"/>
      <text x="14" y="22" font-size="13" font-weight="600" fill="#0f172a">วิเคราะห์ · Analytics</text>
      <text x="14" y="40" font-size="10" fill="#10b981">rail-only · no route</text>
    </g>
    <!-- EPIDEM -->
    <g transform="translate(0, 344)" filter="url(#soft)">
      <rect width="200" height="56" rx="10" fill="#ecfdf5" stroke="#10b981" stroke-width="1.5"/>
      <text x="14" y="22" font-size="13" font-weight="600" fill="#0f172a">EPIDEM</text>
      <text x="14" y="40" font-size="10" fill="#10b981">rail-only · stub</text>
    </g>
  </g>

  <!-- ─────────────── OPERATIONS lane ─────────────── -->
  <g transform="translate(900, 270)">
    <g filter="url(#soft)">
      <rect width="200" height="56" rx="10" fill="#fffbeb" stroke="#f59e0b" stroke-width="1.5"/>
      <text x="14" y="22" font-size="13" font-weight="600" fill="#0f172a">Automation (List)</text>
      <text x="14" y="40" font-size="11" font-family="monospace" fill="#d97706">/automation</text>
    </g>
    <g transform="translate(0, 76)">
      <rect width="200" height="42" rx="8" fill="#ffffff" stroke="#f59e0b" stroke-width="1.5"/>
      <text x="14" y="18" font-size="12" fill="#0f172a">Automation Builder</text>
      <text x="14" y="34" font-size="10" font-family="monospace" fill="#d97706">/automation/:id</text>
      <text x="190" y="34" text-anchor="end" font-size="9" font-style="italic" fill="#94a3b8">dynamic</text>
    </g>
    <path d="M 100 132 C 100 138, 100 144, 100 118" stroke="#94a3b8" stroke-width="1" fill="none" marker-end="url(#arrow)"/>

    <!-- PCU -->
    <g transform="translate(0, 140)" filter="url(#soft)">
      <rect width="200" height="56" rx="10" fill="#fffbeb" stroke="#f59e0b" stroke-width="1.5"/>
      <text x="14" y="22" font-size="13" font-weight="600" fill="#0f172a">PCU</text>
      <text x="14" y="40" font-size="10" fill="#d97706">rail-only · stub</text>
    </g>
    <g transform="translate(0, 216)" filter="url(#soft)">
      <rect width="200" height="56" rx="10" fill="#fffbeb" stroke="#f59e0b" stroke-width="1.5"/>
      <text x="14" y="22" font-size="13" font-weight="600" fill="#0f172a">ส่งต่อ · Referral</text>
      <text x="14" y="40" font-size="10" fill="#d97706">rail-only · stub</text>
    </g>
    <g transform="translate(0, 292)" filter="url(#soft)">
      <rect width="200" height="56" rx="10" fill="#fffbeb" stroke="#f59e0b" stroke-width="1.5"/>
      <text x="14" y="22" font-size="13" font-weight="600" fill="#0f172a">เคลม · Claims</text>
      <text x="14" y="40" font-size="10" fill="#d97706">rail-only · stub</text>
    </g>
    <g transform="translate(0, 368)" filter="url(#soft)">
      <rect width="200" height="56" rx="10" fill="#fffbeb" stroke="#f59e0b" stroke-width="1.5"/>
      <text x="14" y="22" font-size="13" font-weight="600" fill="#0f172a">Telehealth</text>
      <text x="14" y="40" font-size="10" fill="#d97706">rail-only · stub</text>
    </g>
  </g>

  <!-- ─────────────── UTILITY lane ─────────────── -->
  <g transform="translate(1180, 270)">
    <g filter="url(#soft)">
      <rect width="200" height="56" rx="10" fill="#ffffff" stroke="#64748b" stroke-width="1.5"/>
      <text x="14" y="22" font-size="13" font-weight="600" fill="#0f172a">Settings</text>
      <text x="14" y="40" font-size="11" font-family="monospace" fill="#475569">/settings</text>
    </g>
    <g transform="translate(0, 76)" filter="url(#soft)">
      <rect width="200" height="56" rx="10" fill="#ffffff" stroke="#64748b" stroke-width="1.5"/>
      <text x="14" y="22" font-size="13" font-weight="600" fill="#0f172a">AI Mode</text>
      <text x="14" y="40" font-size="11" font-family="monospace" fill="#475569">/ai</text>
    </g>
    <g transform="translate(0, 152)" filter="url(#soft)">
      <rect width="200" height="56" rx="10" fill="#ffffff" stroke="#64748b" stroke-width="1.5"/>
      <text x="14" y="22" font-size="13" font-weight="600" fill="#0f172a">SOAP Summary</text>
      <text x="14" y="40" font-size="11" font-family="monospace" fill="#475569">/soap</text>
    </g>
  </g>

  <!-- ─────────────── Global overlays section ─────────────── -->
  <g transform="translate(0, 730)">
    <line x1="40" y1="0" x2="1440" y2="0" stroke="#e2e8f0" stroke-width="1"/>
    <text x="40" y="28" font-size="12" font-weight="700" fill="#0f172a" letter-spacing="0.05em">GLOBAL OVERLAYS &amp; CHROME</text>
    <text x="40" y="46" font-size="11" fill="#64748b">Surfaces that ride on top of any page — not separate routes</text>

    <g transform="translate(40, 70)">
      <!-- Sidebar -->
      <g filter="url(#soft)">
        <rect width="200" height="60" rx="10" fill="#ffffff" stroke="#94a3b8" stroke-width="1.5" stroke-dasharray="4 3"/>
        <text x="14" y="22" font-size="13" font-weight="600" fill="#0f172a">Sidebar (rail + panel)</text>
        <text x="14" y="38" font-size="10" fill="#64748b">peek + pin · customizable</text>
        <text x="14" y="52" font-size="10" fill="#64748b">12 rail items · 4 panels</text>
      </g>
      <g transform="translate(220, 0)" filter="url(#soft)">
        <rect width="200" height="60" rx="10" fill="#ffffff" stroke="#94a3b8" stroke-width="1.5" stroke-dasharray="4 3"/>
        <text x="14" y="22" font-size="13" font-weight="600" fill="#0f172a">Top Bar</text>
        <text x="14" y="38" font-size="10" fill="#64748b">Tabs + overflow chip</text>
        <text x="14" y="52" font-size="10" fill="#64748b">User dropdown · Theme switch</text>
      </g>
      <g transform="translate(440, 0)" filter="url(#soft)">
        <rect width="200" height="60" rx="10" fill="#ffffff" stroke="#94a3b8" stroke-width="1.5" stroke-dasharray="4 3"/>
        <text x="14" y="22" font-size="13" font-weight="600" fill="#0f172a">Menu Palette · "/"</text>
        <text x="14" y="38" font-size="10" fill="#64748b">Global search across all menus</text>
        <text x="14" y="52" font-size="10" fill="#64748b">Recent · breadcrumbs</text>
      </g>
      <g transform="translate(660, 0)" filter="url(#soft)">
        <rect width="200" height="60" rx="10" fill="#ffffff" stroke="#94a3b8" stroke-width="1.5" stroke-dasharray="4 3"/>
        <text x="14" y="22" font-size="13" font-weight="600" fill="#0f172a">Customize Sidebar</text>
        <text x="14" y="38" font-size="10" fill="#64748b">Drag reorder · hide · accordion</text>
        <text x="14" y="52" font-size="10" fill="#64748b">per-rail panel customization</text>
      </g>
      <g transform="translate(880, 0)" filter="url(#soft)">
        <rect width="200" height="60" rx="10" fill="#ffffff" stroke="#94a3b8" stroke-width="1.5" stroke-dasharray="4 3"/>
        <text x="14" y="22" font-size="13" font-weight="600" fill="#0f172a">Aiva Drawer · ⌘K</text>
        <text x="14" y="38" font-size="10" fill="#64748b">AI assistant slide-over</text>
      </g>
      <g transform="translate(1100, 0)" filter="url(#soft)">
        <rect width="200" height="60" rx="10" fill="#ffffff" stroke="#94a3b8" stroke-width="1.5" stroke-dasharray="4 3"/>
        <text x="14" y="22" font-size="13" font-weight="600" fill="#0f172a">Theme Studio</text>
        <text x="14" y="38" font-size="10" fill="#64748b">Color / radius / spacing / shadow</text>
        <text x="14" y="52" font-size="10" fill="#64748b">inside Settings + dropdown switch</text>
      </g>
    </g>

    <g transform="translate(40, 160)">
      <g filter="url(#soft)">
        <rect width="200" height="60" rx="10" fill="#ffffff" stroke="#94a3b8" stroke-width="1.5" stroke-dasharray="4 3"/>
        <text x="14" y="22" font-size="13" font-weight="600" fill="#0f172a">Search FAB</text>
        <text x="14" y="38" font-size="10" fill="#64748b">Bottom-right floating button</text>
        <text x="14" y="52" font-size="10" fill="#64748b">opens Menu Palette</text>
      </g>
      <g transform="translate(220, 0)" filter="url(#soft)">
        <rect width="200" height="60" rx="10" fill="#ffffff" stroke="#94a3b8" stroke-width="1.5" stroke-dasharray="4 3"/>
        <text x="14" y="22" font-size="13" font-weight="600" fill="#0f172a">Dictation Island</text>
        <text x="14" y="38" font-size="10" fill="#64748b">Live-caption pill</text>
        <text x="14" y="52" font-size="10" fill="#64748b">tab / mic audio</text>
      </g>
      <g transform="translate(440, 0)" filter="url(#soft)">
        <rect width="200" height="60" rx="10" fill="#ffffff" stroke="#94a3b8" stroke-width="1.5" stroke-dasharray="4 3"/>
        <text x="14" y="22" font-size="13" font-weight="600" fill="#0f172a">Save Commit Overlay</text>
        <text x="14" y="38" font-size="10" fill="#64748b">Animated save feedback</text>
      </g>
      <g transform="translate(660, 0)" filter="url(#soft)">
        <rect width="200" height="60" rx="10" fill="#ffffff" stroke="#94a3b8" stroke-width="1.5" stroke-dasharray="4 3"/>
        <text x="14" y="22" font-size="13" font-weight="600" fill="#0f172a">Toast (HeroUI)</text>
        <text x="14" y="38" font-size="10" fill="#64748b">Top-center pill notifications</text>
      </g>
      <g transform="translate(880, 0)" filter="url(#soft)">
        <rect width="200" height="60" rx="10" fill="#ffffff" stroke="#94a3b8" stroke-width="1.5" stroke-dasharray="4 3"/>
        <text x="14" y="22" font-size="13" font-weight="600" fill="#0f172a">Live Caption (Global)</text>
        <text x="14" y="38" font-size="10" fill="#64748b">Real-time transcription</text>
      </g>
      <g transform="translate(1100, 0)" filter="url(#soft)">
        <rect width="200" height="60" rx="10" fill="#ffffff" stroke="#94a3b8" stroke-width="1.5" stroke-dasharray="4 3"/>
        <text x="14" y="22" font-size="13" font-weight="600" fill="#0f172a">Document Drop Zone</text>
        <text x="14" y="38" font-size="10" fill="#64748b">Drag-drop file intake</text>
      </g>
    </g>
  </g>

  <!-- Footer count -->
  <text x="40" y="958" font-size="11" fill="#94a3b8">
    13 routes · 12 rail items · 4 expandable panels · 12 global overlays
  </text>
  <text x="1440" y="958" text-anchor="end" font-size="11" fill="#94a3b8">
    Generated · 2026-06-04
  </text>
</svg>
